<ttFont>
          <CharString index="0">
            33.1900024414 26.8999938965 26.8999938965 33.1900024414 33.1900024414 -26.8999938965 26.8999938965 -33.1900024414 -33.1900024414 -26.8999938965 -26.8999938965 -33.1900024414 -33.1900024414 26.8999938965 -26.8999938965 33.1900024414 hvcurveto
            return
          </CharString>
          <CharString index="1">
            rmoveto
            -8.49000549316 hlineto
            -3.05999755859 -28.2299957275 -36.7100067139 -77.5800018311 -6.89999389648 -15.4199981689 -206.270004272 -444.220001221 rcurveline
            -37.4600067139 -19.0299987793 -32.0700073242 -14.6999969482 -25.3600006104 hhcurveto
            -8 -10 199.740005493 9.91000366211 -7.86000061035 hlineto
            -22.7899932861 -25.6799926758 19.0500030518 35.2100067139 13.7299957275 hvcurveto
            39.9400024414 92.75 rlineto
            211.800003052 hlineto
            38.8000030518 -91.4100036621 rlineto
            -36.0700073242 14.9199981689 -25.9199981689 -19.5299987793 -23.0800018311 hhcurveto
            -7.86000061035 -9.91000366211 293.88999939 10 -7.47999572754 hlineto
            -27.3999938965 -31.8099975586 15.6600036621 40.1499938965 -19.3500061035 hvcurveto
            -399.600006104 130.449996948 rmoveto
            89.7100067139 208.339996338 88.4400024414 -208.339996338 rlineto
            endchar
          </CharString>
          <CharString index="2">
            -9.66000366211 hlineto
            -26.1900024414 -88.4700012207 -57.9600067139 -54.3899993896 -84.5299987793 -0.820007324219 rrcurveto
            -120.369995117 237.179992676 115.020004272 hlineto
            46.2700042725 -1.44999694824 28.8099975586 -33.2200012207 -44.3500061035 vvcurveto
            -7.07000732422 10.3500061035 211.63999939 -10.3500061035 -6.41999816895 vlineto
            -44.7599945068 -29.3300018311 -33.4199981689 -47.0099945068 -0.880004882812 vhcurveto
            -113.75 242.419998169 144.059997559 hlineto
            57.8200073242 -0.839996337891 33.0899963379 -36.1499938965 -57.6399993896 vvcurveto
            -9.30999755859 10.3500061035 159.5 vlineto
            -15.8099975586 -6.2799987793 -50.5299987793 -8.86000061035 return
          </CharString>
          <CharString index="3">
            -15.2100067139 -231.240005493 -522.720001221 rcurveline
            -39.7299957275 -21.2400054932 -34.4900054932 -16.6100006104 -28.4100036621 hhcurveto
            -9 -10 214.419998169 9.91000366211 -8.78999328613 hlineto
            -25.8200073242 -28.8500061035 22.7599945068 40.0200042725 16.4199981689 hvcurveto
            51.1600036621 123.570007324 rlineto
            234.660003662 hlineto
            49.2299957275 -123.570007324 rlineto
            -40.0200042725 15.2599945068 -28.0899963379 -22.75 -25.8200073242 hhcurveto
            -8.78999328613 -9.91000366211 318.61000061 10 -8.36000061035 hlineto
            -29.4700012207 -34.2299957275 17.0700073242 40.9199981689 -21.6399993896 hvcurveto
            -443.770004272 170.399993896 rmoveto
            102.470001221 245.550003052 97.8200073242 -245.550003052 rlineto
            endchar
          </CharString>
          <CharString index="4">
            -87 callsubr
            554.949996948 -100 callgsubr
            return
          </CharString>
          <CharString index="5">
            rmoveto
            -9.96000671387 7.52000427246 vlineto
            22.9900054932 19.7100067139 -17.3500061035 -37.3399963379 -10.5599975586 hvcurveto
            -80.6600036621 -274.399993896 -175.210006714 352.949996948 -8.2200012207 0.110000610352 -158.300003052 -351.330001831 -103.130004883 272.460006714 rlineto
            37.3399963379 -13.2700042725 23.6999969482 17.5599975586 21.7200012207 hhcurveto
            8.14999389648 9.96000671387 -280.729995728 -10 8 hlineto
            30.8099975586 29.9400024414 -16.6399993896 -34.2700042725 15.1600036621 hvcurveto
            212.869995117 -550.070007324 rlineto
            8.89999389648 hlineto
            0.669998168945 48.25 22.4400024414 52.5200042725 0 vvcurveto
            135 293.11000061 195.440002441 -393.880004883 rlineto
            8.89999389648 hlineto
            -3.19999694824 44.4400024414 19.0299987793 56.3200073242 0 vvcurveto
            148 453.699996948 rlineto
            31.3000030518 14.5899963379 30.8099975586 15.2100067139 29.5099945068 hhcurveto
            7.52000427246 10 hlineto
            endchar
          </CharString>
          <CharString index="6">
            rmoveto
            -240.179992676 -153.25 -139.289993286 -224.720001221 -224.710006714 153.25 -139.279998779 240.179992676 240.179992676 153.25 139.279998779 224.710006714 224.720001221 -153.25 139.289993286 -240.179992676 hvcurveto
            -685.929992676 vmoveto
            -140.979995728 -88.3600006104 123.320007324 198.600006104 198.61000061 88.3600006104 123.330001831 140.979995728 140.979995728 88.3600006104 -123.330001831 -198.61000061 -198.600006104 -88.3600006104 -123.320007324 -140.979995728 hvcurveto
            endchar
          </CharString>
          <CharString index="7">
            rmoveto
            -10.0399932861 12.5899963379 vlineto
            28.8000030518 23.3200073242 -22.0099945068 -29.9499969482 0.509994506836 hvcurveto
            -475.919998169 vlineto
            -29.7700042725 -0.699996948242 -23.8399963379 -22.3600006104 -28.6900024414 hhcurveto
            -11.9799957275 -10 275.309997559 10 -10.8699951172 hlineto
            -26.5800018311 -27.6300048828 19.7899932861 33.25 -31 callgsubr
            hvcurveto
            495.669998169 vlineto
            11.3999938965 -0.449996948242 19.9900054932 1.24000549316 25.7799987793 -1.21000671387 34.6499938965 -1.60000610352 67.1699981689 -14.2599945068 4.4700012207 -98.6399993896 0.850006103516 -19.5399932861 -2.33000183105 -14.3500061035 -1.88000488281 -7.94000244141 -16.7299957275 -84.0200042725 -45.7299957275 -15.4400024414 -41.4299926758 -0.550003051758 rrcurveto
            -25.6000061035 -8.38000488281 hlineto
            18.4299926758 -1.49000549316 22.9400024414 -18.6999969482 18.5200042725 -41.0899963379 15.1499938965 -33.6100006104 29.8300018311 -67.0899963379 22.0500030518 -35.6999969482 rrcurveto
            -74.9199981689 47.5399932861 51.1499938965 -20.9799957275 108.61000061 hhcurveto
            83.8399963379 10.0200042725 hlineto
            -41.2200012207 0.179992675781 -22.5299987793 14.7700042725 -39.0599975586 53.1399993896 -35.0599975586 46.7400054932 -29.1199951172 49.5200042725 -8.44000244141 15.1799926758 -18.7400054932 30.75 -38.1699981689 42.2899932861 -39.6100006104 12.0599975586 rrcurveto
            98.4700012207 14.1900024414 40.3999938965 77.0200042725 70.3500061035 vvcurveto
            124.690002441 -107.449996948 39.1100006104 -110.839996338 vhcurveto
            return
          </CharString>
          <CharString index="8">
            -4 callsubr
            -10 rlineto
            18.4499969482 hlineto
            33.7400054932 27.3600006104 -27.0399932861 -33.5700073242 0.630004882812 hvcurveto
            -395.380004883 vlineto
            -504.509994507 480.949996948 rlineto
            -9.86000061035 hlineto
            0 11.6399993896 -50.5800018311 -74.3399963379 vvcurveto
            -519.5 vlineto
            -33.5599975586 -0.639999389648 -27.3600006104 -27.0299987793 -33.7299957275 hhcurveto
            -18.4600067139 -6 callgsubr
            -10 rlineto
            303.130004883 -6 callgsubr
            10 rlineto
            -18.4600067139 hlineto
            -33.6300048828 -27.3099975586 26.8800048828 33.4400024414 -0.789993286133 hvcurveto
            396.839996338 vlineto
            505.309997559 -481.13999939 rlineto
            9.08000183105 hlineto
            0 -11.5500030518 52.2299957275 75.3500061035 vvcurveto
            516.690002441 vlineto
            33.1900024414 1.07000732422 27.1900024414 26.5899963379 return
          </CharString>
          <CharString index="9">
            rmoveto
            65.5700073242 15.8399963379 79.5299987793 36.2599945068 59.5 37.8399963379 -12.3000030518 35.75 -19.9400024414 27.0700073242 -35.5200042725 18.3899993896 -43.4900054932 -38.9600067139 -66.5700073242 -67.25 -33.7799987793 -57.9299926758 rrcurveto
            return
          </CharString>
          <CharString index="10">
            -85 callsubr
            -330.919998169 -9.9700012207 14 hlineto
            40.7299957275 38.9400024414 -27.0899963379 -30.3000030518 19.5899963379 hvcurveto
            190.460006714 -313.970001221 rlineto
            -246.440002441 vlineto
            -34.5399932861 -0.979995727539 -28.2700042725 -27.7100067139 -34.7899932861 -73 callsubr
            245.220001221 vlineto
            196.880004883 313.490005493 rlineto
            30.7299957275 20.7200012207 38 27.6900024414 41.8399963379 hhcurveto
            14 10.0200042725 hlineto
            endchar
          </CharString>
          <CharString index="11">
            rmoveto
            -37.5899963379 23.1000061035 -30.0599975586 19.2299957275 2.83999633789 37.1499938965 rrcurveto
            45.5 2.5 42.7100067139 32.3200073242 64.1799926758 hhcurveto
            79.6000061035 44.7200012207 -39.7299957275 -60.6799926758 hvcurveto
            8.5 hlineto
            14 131.119995117 rlineto
            -54.2400054932 hlineto
            5.16000366211 -41.5299987793 -55.0599975586 3.97999572754 -33.4199981689 hhcurveto
            -101.820007324 -70.1199951172 return
          </CharString>
          <CharString index="12">
            rmoveto
            10 -280.869995117 -10 15.7700042725 vlineto
            32.2799987793 0.0500030517578 19.3500061035 -16.4100036621 -0.190002441406 -29.1999969482 rrcurveto
            -152.899993896 vlineto
            -23.5700073242 -63.2299957275 -72.2599945068 -35.6000061035 -73.6799926758 -0.0399932861328 rrcurveto
            -147.270004272 0.259994506836 -80.9700012207 123.669998169 193.149993896 vvcurveto
            203.210006714 87.6499938965 123.529998779 163.559997559 vhcurveto
            106.690002441 -0.0500030517578 94.8500061035 -47.75 37.6600036621 -135.869995117 rrcurveto
            8.32000732422 hlineto
            -1.96000671387 171.589996338 rlineto
            29.9199981689 -58.75 -107.050003052 24.25 -109.990005493 hhcurveto
            -235.899993896 -148.119995117 -139.770004272 -223.009994507 -225.13999939 151.160003662 -140.070007324 227.039993286 160.179992676 124.13999939 return
          </CharString>
          <CharString index="13">
            rmoveto
            34.0599975586 27.6100006104 27.6100006104 34.0599975586 34.0599975586 -27.6100006104 27.6100006104 -34.0599975586 -34.0599975586 -27.6100006104 -27.6100006104 -34.0599975586 -34.0599975586 27.6100006104 -27.6100006104 34.0599975586 hvcurveto
            return
          </CharString>
          <CharString index="14">
            rcurveline
            51.2200012207 -32.4199981689 23.4900054932 -23.0500030518 -34.4900054932 vvcurveto
            -48.9799957275 -37.7899932861 -41.1699981689 -77.9600067139 -0.589996337891 vhcurveto
            -106.850006104 -0.460006713867 -64.1399993896 75.6600036621 5.75 90.5200042725 rrcurveto
            -7.83000183105 hlineto
            -24.1600036621 -37.7799987793 -13.6999969482 -76.3099975586 15.3699951172 -38.1399993896 return
          </CharString>
          <CharString index="15">
            rmoveto
            -41.8999938965 27.2200012207 -30.2100067139 26.3699951172 2.42999267578 39.3800048828 rrcurveto
            53.6900024414 2.42999267578 49.7299957275 42.4900054932 78.7299957275 hhcurveto
            84.5899963379 56.2400054932 -45.6799926758 -69.4299926758 -46 callgsubr
            hvcurveto
            9.63000488281 hlineto
            13.1000061035 146.990005493 rlineto
            -62.8099975586 hlineto
            5.78999328613 -45.6699981689 -58.3399963379 4.4700012207 -32.1799926758 hhcurveto
            -126.13999939 -75.8699951172 -71.5299987793 -103.539993286 -8.5 hvcurveto
            -7.28999328613 -72.8899993896 34.1799926758 -60.9100036621 68.8200073242 -45.6600036621 174.25 -115.619995117 rcurveline
            53.75 -35.6699981689 26.2599945068 -27.0500030518 -0.0599975585938 -40.5599975586 0.0599975585938 -62.6499938965 -51.2899932861 -48.1900024414 -86.9600067139 -1.58999633789 -119.960006714 -1.94000244141 -76.6300048828 86.0099945068 8.02000427246 104.259994507 rrcurveto
            -8.78999328613 hlineto
            -26.1600036621 -43.6199951172 -14.1000061035 -84.3399963379 16.5599975586 -41.8000030518 return
          </CharString>
          <CharString index="16">
            -0.190002441406 rrcurveto
            -351.820007324 -10 11.9799957275 hlineto
            29.5599975586 24.1399993896 -22.2400054932 -29.9600067139 0.440002441406 hvcurveto
            -475.520004272 vlineto
            -29.75 -0.669998168945 -24.0500030518 -22.5099945068 -24 callgsubr
            hhcurveto
            -11.9799957275 -10 return
          </CharString>
          <CharString index="17">
            -84 callsubr
            -37.5200042725 -66 callsubr
          </CharString>
          <CharString index="18">
            hlineto
            153.199996948 -153.259994507 -6.69000244141 -8 -152.600006104 65.0800018311 -142.580001831 -64.9900054932 -6.69000244141 8 rlineto
            return
          </CharString>
          <CharString index="19">
            -96 callsubr
            -56.1300048828 -95.3000030518 -8.4700012207 hvcurveto
            -7.5299987793 -68.4700012207 -51 callgsubr
            return
          </CharString>
          <CharString index="20">
            -12.6499938965 hlineto
            -35 -28.3999938965 28.0500030518 34.8300018311 -0.649993896484 hvcurveto
            return
          </CharString>
          <CharString index="21">
            -93 callsubr
            rrcurveto
            -31.0899963379 return
          </CharString>
          <CharString index="22">
            rmoveto
            -10.0200042725 12.6000061035 vlineto
            27.2100067139 23.8000030518 -33.5099945068 -28.3399963379 -15.8999938965 hvcurveto
            -148.830001831 -259.990005493 -142.460006714 260.029998779 rlineto
            28.3399963379 -14.5099945068 20.4299926758 33.5200042725 29.1999969482 hhcurveto
            12.6000061035 9.9700012207 return
          </CharString>
          <CharString index="23">
            rmoveto
            -105 callsubr
            return
          </CharString>
          <CharString index="24">
            rmoveto
            -33.7799987793 58.3200073242 -66.5700073242 66.8600006104 -43.4900054932 38.9600067139 return
          </CharString>
          <CharString index="25">
            rmoveto
            -28.6199951172 -88.7599945068 -58.8099975586 -54.7599945068 -91.3600006104 -0.820007324219 rrcurveto
            -173.5 hlineto
            324.720001221 565.770004272 rlineto
            7.61999511719 vlineto
            -5.44000244141 -11.5200042725 -52.2400054932 -6.2799987793 -38.6000061035 hhcurveto
            -294.100006104 hlineto
            -38.5200042725 0.259994506836 -54.1999969482 7.9700012207 -16.6699981689 7 rrcurveto
            -158.630004883 10.2799987793 8.66000366211 vlineto
            57.2100067139 33.3800048828 36.6799926758 57.9100036621 0.740005493164 vhcurveto
            213.630004883 hlineto
            -329.020004272 -552.419998169 rlineto
            -8.50999450684 514.279998779 vlineto
            43.3099975586 183.669998169 rlineto
            endchar
          </CharString>
          <CharString index="26">
            rmoveto
            -9.9700012207 11.9900054932 vlineto
            30.9799957275 24.5599975586 -21.9100036621 -30.2899932861 1.44000244141 hvcurveto
            -473.740005493 vlineto
            -29.9799957275 -0.479995727539 -24.8699951172 -24.1499938965 -30.6000061035 hhcurveto
            -12.4299926758 -10 337.649993896 hlineto
            214.589996338 128.899993896 111.309997559 188.259994507 188.399993896 -128.899993896 112.050003052 -214.580001831 hvcurveto
            -124.589996338 -39.3500061035 rmoveto
            112.75 hlineto
            125.669998169 77.0399932861 -97.5700073242 -163.529998779 -162.669998169 -77.6600036621 -96.7799987793 -125.039993286 hvcurveto
            -112.75 hlineto
            endchar
          </CharString>
          <CharString index="27">
            -0.160003662109 10 rlineto
            -87 callsubr
            return
          </CharString>
          <CharString index="28">
            491.61000061 615.279998779 rmoveto
            -15.8899993896 -6.2799987793 -50.7700042725 -8.86000061035 -37.7100067139 -0.190002441406 rrcurveto
            -352.86000061 -10 12.0399932861 hlineto
            29.75 24.2700042725 -22.3000030518 -30.0099945068 0.389999389648 hvcurveto
            -475.330001831 vlineto
            -29.7899932861 -0.630004882812 -24.1799926758 -22.5500030518 -29.6000061035 hhcurveto
            -12.0399932861 -10 277.850006104 10 -12.0399932861 hlineto
            -30.4400024414 -23.6699981689 22.8600006104 30.1000061035 -0.940002441406 hvcurveto
            214.410003662 115.940002441 vlineto
            46.3300018311 return
          </CharString>
          <CharString index="29">
            -15 callsubr
            -587.649993896 -61 callgsubr
            303.919998169 -22 callgsubr
            -34.7400054932 -28.2299957275 27.6300048828 -6 callsubr
            -1.07000732422 hvcurveto
            586.800003052 134.330001831 vlineto
            61.3500061035 -1.55000305176 38.8300018311 -39.5599975586 -0.119995117188 -60.9799957275 rrcurveto
            -30 callsubr
            vlineto
            10.0899963379 -20 callsubr
            return
          </CharString>
          <CharString index="30">
            -554.740005493 -96 callgsubr
            return
          </CharString>
          <CharString index="31">
            hhcurveto
            -71 callgsubr
            -68 callsubr
            10 rlineto
            -303.759994507 hlineto
            -68 callsubr
            -10 rlineto
            return
          </CharString>
          <CharString index="32">
            rmoveto
            60.9900054932 21.2100067139 73.7700042725 41.2400054932 52.5599975586 41.2400054932 -15.7100067139 31.2899932861 -22.5599975586 21.4400024414 -37.3500061035 12.7599945068 -36.4199981689 -40.1399993896 -58.7100067139 -66.8600006104 -25.1399993896 -12 callgsubr
            184.089996338 -5.03999328613 rmoveto
            61.3800048828 20.8099975586 73.3800048828 41.6300048828 52.5599975586 41.2400054932 -15.3099975586 30.8999938965 return
          </CharString>
          <CharString index="33">
            rmoveto
            -62.2700042725 -46.8699951172 -35.4600067139 -48.2100067139 -48.2100067139 46.5800018311 -35.4600067139 61.8999938965 61.8899993896 46.5800018311 36.0299987793 48.9700012207 48.75 -46.2899932861 33.5800018311 -61.5200042725 hvcurveto
            -0.669998168945 -24.8099975586 rmoveto
            28.8399963379 21.8699951172 -23.5800018311 -35.2799987793 -34.8800048828 -21.8699951172 -23.3000030518 -28.8399963379 -28.4600067139 return
          </CharString>
          <CharString index="34">
            hhcurveto
            -12.6499938965 hlineto
            -70 callsubr
            -10 rlineto
            303.75 hlineto
            -80 callsubr
            return
          </CharString>
          <CharString index="35">
            28.8000030518 -33.2299957275 -44.3600006104 vvcurveto
            -7.07000732422 10.3999938965 211.63999939 -10.3999938965 -6.41999816895 vlineto
            -44.75 -29.3200073242 -33.4199981689 -47.0500030518 -0.880004882812 vhcurveto
            -114.699996948 242.419998169 143.880004883 hlineto
            59.1399993896 -0.839996337891 33.1199951172 -36.8000030518 -57.6499938965 vvcurveto
            -9.32000732422 10.3999938965 vlineto
            return
          </CharString>
          <CharString index="36">
            -22.9400024414 -30.1799926758 return
          </CharString>
          <CharString index="37">
            -0.160003662109 return
          </CharString>
          <CharString index="38">
            -10 -68 callgsubr
            8 -21 callgsubr
            -24 -52 callgsubr
            return
          </CharString>
          <CharString index="39">
            0.160003662109 return
          </CharString>
          <CharString index="40">
            rmoveto
            -9.00999450684 hlineto
            -2.42999267578 -29.1100006104 -39.6199951172 -86.6900024414 return
          </CharString>
          <CharString index="41">
            -91 callsubr
            467.869995117 hlineto
            2.41000366211 hlineto
            endchar
          </CharString>
          <CharString index="42">
            -62 callsubr
            -68.4600067139 -51 callgsubr
            return
          </CharString>
          <CharString index="43">
            0.0200042724609 -8.82000732422 25.6199951172 1.44000244141 14.2799987793 34.3600006104 281.589996338 rcurveline
            230.720001221 -350.300003052 rlineto
            8.89999389648 hlineto
            0.699996948242 44.9700012207 35.4299926758 56.6499938965 0 vvcurveto
            159.460006714 253.399993896 39.1300048828 -286.309997559 1.57000732422 -14.7299957275 -7.10000610352 -25.1699981689 -29.0700073242 -0.0200042724609 rlinecurve
            -13.9700012207 -9.7799987793 278.220001221 10 -14.0899963379 hlineto
            -30.1300048828 -26.5599975586 17.5200042725 31.9400024414 -7.25999450684 hvcurveto
            endchar
          </CharString>
          <CharString index="44">
            -37 callgsubr
            32.3099975586 -84 callgsubr
            -32.3099975586 39.9400024414 hvcurveto
            endchar
          </CharString>
          <CharString index="45">
            415.580001831 -96 callsubr
            -56.1300048828 -95.3000030518 -8.4700012207 hvcurveto
            -7.5299987793 return
          </CharString>
          <CharString index="46">
            -20 callgsubr
            -12.6499938965 hlineto
            -35 -28.3999938965 28.0500030518 34.8300018311 -0.649993896484 hvcurveto
            return
          </CharString>
          <CharString index="47">
            10 -11.8399963379 vlineto
            -31.7700042725 -25.4799957275 22.8000030518 30.0299987793 -1.0299987793 hvcurveto
            474.830001831 vlineto
            29.8200073242 1.25999450684 25.3800048828 22.5800018311 31.6199951172 hhcurveto
            11.5500030518 10 -283.539993286 -10 11.8399963379 hlineto
            31.2599945068 26.1499938965 -71 callsubr
            0.259994506836 hvcurveto
            -473.839996338 vlineto
            -30.1600036621 -0.259994506836 -26.1499938965 -22.9299926758 -31.25 hhcurveto
            -11.8399963379 -10 hlineto
            endchar
          </CharString>
          <CharString index="48">
            rmoveto
            5.89999389648 12.3300018311 vlineto
            17.7799987793 14.7899932861 14.25 17.6900024414 hvcurveto
            286.309997559 vlineto
            28.6699981689 -14.2100067139 9.91000366211 -22.6100006104 vhcurveto
            -12.5700073242 5.89999389648 hlineto
            32.1199951172 2.19999694824 79.2200012207 10.1399993896 38.4799957275 25.3999938965 rrcurveto
            5.89999389648 -368.919998169 hlineto
            -17.5200042725 14.9100036621 -14.0399932861 17.6499938965 vhcurveto
            12.3300018311 -5.89999389648 hlineto
            return
          </CharString>
          <CharString index="49">
            17.3099975586 20.4100036621 37.8300018311 -4.86000061035 49.1300048828 -6.16999816895 54.2799987793 -44.5500030518 60.5800018311 -9.2799987793 68.7899932861 -10.2299957275 45.8300018311 53.4499969482 22.7799987793 22.7299957275 -37.9799957275 36.1000061035 rcurveline
            -25.6399993896 -20.4499969482 -32.9400024414 -28.5700073242 -35.9700012207 4.11000061035 -39.6499938965 4.7799987793 -62.4400024414 48.1000061035 return
          </CharString>
          <CharString index="50">
            700.059997559 rmoveto
            -70 callgsubr
            -593.919998169 vlineto
            13 callsubr
            -92.2799987793 -32.0599975586 -96 -84.8999938965 -36 rrcurveto
            -9 vlineto
            138.770004272 -13 128.38999939 96 147.460006714 vvcurveto
            596.970001221 vlineto
            34.7299957275 0.770004272461 28.3500061035 27.9299926758 34.9199981689 hhcurveto
            -71 callgsubr
            -68 callsubr
            10 rlineto
            endchar
          </CharString>
          <CharString index="51">
            25 653.25 719.179992676 -53 callsubr
            return
          </CharString>
          <CharString index="52">
            -11.7799987793 35.2299957275 34 30.6000061035 29.2200012207 -4.75999450684 53.2799987793 -29.4100036621 33.6499938965 -42.3699951172 48.4499969482 19.1300048828 55.4299926758 return
          </CharString>
          <CharString index="53">
            -18.4600067139 -7.7799987793 -57.0399932861 -9.88999938965 -43.0200042725 -0.509994506836 rrcurveto
            return
          </CharString>
          <CharString index="54">
            rmoveto
            -54 callsubr
            -402.289993286 hlineto
            -75 callgsubr
            return
          </CharString>
          <CharString index="55">
            47.0599975586 hvcurveto
            165.259994507 vlineto
            29.0299987793 -0.699996948242 18.1900024414 16.3099975586 32.3300018311 hhcurveto
            return
          </CharString>
          <CharString index="56">
            0.139999389648 return
          </CharString>
          <CharString index="57">
            rmoveto
            109.289993286 -14 89.9900054932 125 -50.4100036621 113.449996948 -24.1300048828 54.4600067139 -69.4900054932 12.0099945068 -35.9199981689 -34.6699981689 -31.1999969482 -29.7899932861 4.86000061035 -54.3300018311 29.9900054932 -34.3099975586 43.1999969482 -49.8300018311 -19.5 -56 -50.2899932861 -19 rrcurveto
            return
          </CharString>
          <CharString index="58">
            -7 callsubr
            -39 -34.6799926758 return
          </CharString>
          <CharString index="59">
            59.6300048828 83 -33.5099945068 return
          </CharString>
          <CharString index="60">
            -0.149993896484 return
          </CharString>
          <CharString index="61">
            22.2200012207 -37.3500061035 12.3699951172 -37.6000061035 -40.1399993896 return
          </CharString>
          <CharString index="62">
            -21 callgsubr
            -23 -56 callgsubr
            return
          </CharString>
          <CharString index="63">
            401.720001221 57.1399993896 -401.720001221 hlineto
            return
          </CharString>
          <CharString index="64">
            hlineto
            -70 callgsubr
            -554.279998779 vlineto
            -34.8300018311 -0.649993896484 -28.3999938965 -28.0500030518 -35 hhcurveto
            -12.6499938965 hlineto
            -70 callsubr
            -10 rlineto
            517.770004272 hlineto
            return
          </CharString>
          <CharString index="65">
            hlineto
            -288.460006714 -293.869995117 rlineto
            -6.25999450684 189.470001221 -68.6000061035 vlineto
            -18.7299957275 -0.710006713867 -15.4100036621 -13.7400054932 -18.4400024414 hhcurveto
            -6.83000183105 -5.94000244141 187.789993286 5.94000244141 -6.83000183105 hlineto
            return
          </CharString>
          <CharString index="66">
            -68 callsubr
            -10 -32 callsubr
            return
          </CharString>
          <CharString index="67">
            rmoveto
            8 -5 -93.5200042725 -192.960006714 94.5200042725 -197.039993286 -9 -6.21000671387 -205.160003662 203.259994507 rlineto
            return
          </CharString>
          <CharString index="68">
            -36.1499938965 -0.399993896484 -56.9900054932 rrcurveto
            -9.32000732422 10.25 vlineto
            return
          </CharString>
          <CharString index="69">
            -54 callgsubr
            -54 callgsubr
            return
          </CharString>
          <CharString index="70">
            19.6600036621 return
          </CharString>
          <CharString index="71">
            vlineto
            29.8899993896 1.14999389648 23.9499969482 22.6499938965 29.8899993896 hhcurveto
            10.8899993896 10 -275.789993286 -10 11.2100067139 hlineto
            29.4400024414 24.7100067139 -71 callsubr
            0.210006713867 hvcurveto
            return
          </CharString>
          <CharString index="72">
            -30.1399993896 hhcurveto
            -10.8999938965 hlineto
            -31 callgsubr
            -10 rlineto
            281.550003052 hlineto
            return
          </CharString>
          <CharString index="73">
            5.05000305176 -10 36 15 58.5800018311 return
          </CharString>
          <CharString index="74">
            -12 121.529998779 84 132.770004272 vvcurveto
            505.429992676 vlineto
            29.8699951172 0.990005493164 25.7100067139 23.9400024414 31.6300048828 hhcurveto
            11.5200042725 hlineto
            -46 callgsubr
            10.0500030518 rlineto
            endchar
          </CharString>
          <CharString index="75">
            rlineto
            -71 callgsubr
            return
          </CharString>
          <CharString index="76">
            35.2599945068 21.5899963379 23.5800018311 28.4499969482 hvcurveto
            return
          </CharString>
          <CharString index="77">
            -11.75 return
          </CharString>
          <CharString index="78">
            28.2400054932 -32 return
          </CharString>
          <CharString index="79">
            -15.7299957275 14.8200073242 18.6000061035 -0.220001220703 hvcurveto
            67.6499938965 vlineto
            -200.979995728 57.1199951172 rmoveto
            96.1300048828 96.5599975586 rlineto
            -96.5599975586 vlineto
            endchar
          </CharString>
          <CharString index="80">
            -104.490005493 return
          </CharString>
          <CharString index="81">
            -554.740005493 -20 callgsubr
            return
          </CharString>
          <CharString index="82">
            -261 31.5700073242 291.740005493 rmoveto
            8.42999267578 -33.6699981689 rlineto
            300 hlineto
            8.42999267578 33.6699981689 -8.42999267578 33.1900024414 rlineto
            -300 hlineto
            endchar
          </CharString>
          <CharString index="83">
            rmoveto
            -18 callsubr
            return
          </CharString>
          <CharString index="84">
            172.289993286 -30 callgsubr
            -172.289993286 -172.289993286 -30 callgsubr
            172.289993286 -172.289993286 57.1399993896 172.289993286 172.289993286 return
          </CharString>
          <CharString index="85">
            hhcurveto
            18.4600067139 hlineto
            -46 callgsubr
            10 rlineto
            return
          </CharString>
          <CharString index="86">
            -9.94000244141 return
          </CharString>
          <CharString index="87">
            -47 callsubr
            rlineto
            return
          </CharString>
          <CharString index="88">
            hhcurveto
            -10.8800048828 -10 275.13999939 10 -11.2100067139 hlineto
            -29.7899932861 -23.8899993896 22.5 29.7400054932 -0.669998168945 hvcurveto
            return
          </CharString>
          <CharString index="89">
            -68 callsubr
            -21 callsubr
            rlineto
            return
          </CharString>
          <CharString index="90">
            hhcurveto
            -71 callgsubr
            -68 callsubr
            9.99000549316 rlineto
            -303.759994507 hlineto
            -68 callsubr
            -9.99000549316 -32 callsubr
            return
          </CharString>
          <CharString index="91">
            hlineto
            -51 callsubr
            -10 rlineto
            10.8999938965 hlineto
            30.1699981689 24.4799957275 -24.1799926758 -30.0299987793 0.559997558594 hvcurveto
            return
          </CharString>
          <CharString index="92">
            1.55999755859 rrcurveto
            134.460006714 return
          </CharString>
          <CharString index="93">
            rmoveto
            -6 callsubr
            27.9400024414 27.9400024414 -6 callsubr
            -6 callsubr
            -27.9400024414 return
          </CharString>
          <CharString index="94">
            rmoveto
            -10.3300018311 hlineto
            -26.1900024414 return
          </CharString>
          <CharString index="95">
            rmoveto
            72.4199981689 return
          </CharString>
          <CharString index="96">
            -11.9700012207 return
          </CharString>
          <CharString index="97">
            rmoveto
            -61.9600067139 vlineto
            322.009994507 -153.13999939 -322.009994507 -153.580001831 rlineto
            return
          </CharString>
          <CharString index="98">
            -39 -34.6799926758 -12 rrcurveto
            endchar
          </CharString>
          <CharString index="99">
            hlineto
            29.4799957275 23.6600036621 -24.6699981689 -29.5200042725 0.550003051758 hvcurveto
            return
          </CharString>
          <CharString index="100">
            -29 callsubr
            -11 callsubr
            return
          </CharString>
          <CharString index="101">
            34.4700012207 return
          </CharString>
          <CharString index="102">
            -0.580001831055 -24.4600067139 return
          </CharString>
          <CharString index="103">
            rmoveto
            -46 callgsubr
            return
          </CharString>
          <CharString index="104">
            -2.53999328613 -42 rlinecurve
            return
          </CharString>
          <CharString index="105">
            vlineto
            -30.0599975586 -0.979995727539 -24.0200042725 -22.8200073242 return
          </CharString>
          <CharString index="106">
            -34 callsubr
            -9 -3 callsubr
            return
          </CharString>
          <CharString index="107">
            69 -80.9900054932 return
          </CharString>
          <CharString index="108">
            -39.3300018311 return
          </CharString>
          <CharString index="109">
            39.3800048828 51.2799987793 51.2799987793 39.3800048828 return
          </CharString>
          <CharString index="110">
            7.11000061035 -71.7700042725 8.38000488281 -46.6999969482 return
          </CharString>
          <CharString index="111">
            0.190002441406 return
          </CharString>
          <CharString index="112">
            14 callgsubr
            -45 -27 callgsubr
            60 return
          </CharString>
          <CharString index="113">
            14 callgsubr
            -44 -27 callgsubr
            59 return
          </CharString>
          <CharString index="114">
            -23 16.3699951172 115 -6 6 rcurveline
            -48.6900024414 -45 return
          </CharString>
          <CharString index="115">
            -71.4700012207 return
          </CharString>
          <CharString index="116">
            -175.470001221 0.100006103516 -175.470001221 return
          </CharString>
          <CharString index="117">
            rlinecurve
            3 -3 callgsubr
            return
          </CharString>
          <CharString index="118">
            36.6000061035 -37.6600036621 -0.119995117188 return
          </CharString>
          <CharString index="119">
            -0.949996948242 hvcurveto
            return
          </CharString>
          <CharString index="120">
            0.00999450683594 return
          </CharString>
          <CharString index="121">
            -0.690002441406 return
          </CharString>
          <CharString index="122">
            0.119995117188 return
          </CharString>
          <CharString index="123">
            -40.1199951172 return
          </CharString>
          <CharString index="124">
            hlineto
            32.3699951172 183.570007324 rlineto
            return
          </CharString>
          <CharString index="125">
            rmoveto
            -68 callsubr
            return
          </CharString>
          <CharString index="126">
            -34.25 1.30999755859 hvcurveto
            return
          </CharString>
          <CharString index="127">
            -70 callsubr
            10 rlineto
            return
          </CharString>
          <CharString index="128">
            33.4799957275 return
          </CharString>
          <CharString index="129">
            -32.1999969482 return
          </CharString>
          <CharString index="130">
            -21.2100067139 return
          </CharString>
          <CharString index="131">
            -34.7299957275 -126.089996338 return
          </CharString>
          <CharString index="132">
            -80.8000030518 -68.7299957275 return
          </CharString>
        <CharString name=".notdef">
          -391 endchar
        </CharString>
        <CharString name="A">
          75 354.559997559 720.070007324 -67 callsubr
          -7.13000488281 -104 callsubr
        </CharString>
        <CharString name="AE">
          330 944.949996948 195.11000061 rmoveto
          -10 hlineto
          -29.1000061035 -93.6600036621 -67.4700012207 -58.2400054932 -89.1999969482 -0.479995727539 rrcurveto
          -133.589996338 275.660003662 129.949996948 hlineto
          47.25 -2.53999328613 34.1600036621 -35.5 -0.130004882812 -47.5399932861 rrcurveto
          -8.66000366211 vlineto
          9.86000061035 -0.119995117188 rlineto
          230.929992676 vlineto
          -9.86000061035 -0.130004882812 rlineto
          -8.66000366211 vlineto
          -51 callsubr
          -48.0800018311 -34.9100036621 -35.7599945068 -48.1300048828 -1.80999755859 rrcurveto
          -128.330001831 296.729995728 164.820007324 hlineto
          58.5099945068 -1.94000244141 11 callsubr
          -58.3999938965 rrcurveto
          -10.5399932861 vlineto
          10.0700073242 -31 callgsubr
          rlineto
          169.600006104 vlineto
          -18.5800018311 -7.83000183105 -57.7100067139 -9.9700012207 -43.1199951172 -0.389999389648 rrcurveto
          -335.190002441 -10 4.61000061035 hlineto
          22.6799926758 12.9400024414 -20.1999969482 -23.2599945068 -13.9299926758 hvcurveto
          -384.789993286 -576.070007324 rlineto
          -38.3300018311 -26.4299926758 -31.0099945068 -22.1399993896 -30.9499969482 hhcurveto
          -8 -10 222.509994507 9.94000244141 -9.05000305176 hlineto
          -27.4900054932 -0.710006713867 -27.8099975586 25.7799987793 21.5599975586 35.5599975586 150.509994507 247.820007324 rcurveline
          159.320007324 -260.039993286 hlineto
          -26.8000030518 -0.509994506836 -21.8399963379 -21.5800018311 -26.9199981689 hhcurveto
          -9.72999572754 hlineto
          -0.119995117188 -10 rlineto
          493.399993896 hlineto
          -567.979995728 360.539993286 rmoveto
          133.710006714 220.020004272 rlineto
          -220.020004272 vlineto
          endchar
        </CharString>
        <CharString name="Aacute">
          75 341.550003052 762.169998169 -103 callgsubr
          20.0099945068 -49.1000061035 -67 callsubr
          -7.13000488281 -104 callsubr
        </CharString>
        <CharString name="Abreve">
          75 465.5 904.11000061 -85 callgsubr
          -122.589996338 -184.039993286 -67 callsubr
          -7.13000488281 -104 callsubr
        </CharString>
        <CharString name="Acircumflex">
          75 345.449996948 915.25 rmoveto
          11.1499938965 -89 callsubr
          153.330001831 -42.0200042725 -67 callsubr
          -7.13000488281 -104 callsubr
        </CharString>
        <CharString name="Adieresis">
          75 233.020004272 758.869995117 -106 callgsubr
          -111.899993896 -38.8000030518 -67 callsubr
          -7.13999938965 -104 callsubr
        </CharString>
        <CharString name="Agrave">
          75 370.979995728 770.940002441 -83 callsubr
          -35.5099945068 -91 callgsubr
          -9.42999267578 -43.8699951172 -67 callsubr
          -7.13999938965 -104 callsubr
        </CharString>
        <CharString name="Amacron">
          75 217.570007324 795.36000061 -64 callgsubr
          136.979995728 -140.649993896 -67 callsubr
          -7.13000488281 -104 callsubr
        </CharString>
        <CharString name="Aogonek">
          85 359.800003052 714 -67 callsubr
          -7.13000488281 -15.2100067139 -233.149993896 -510.009994507 rcurveline
          -44.5500030518 -20.8300018311 -36.6900024414 -18.3399963379 -29.9400024414 hhcurveto
          -9 -10 214.410003662 9.91000366211 -8.78999328613 hlineto
          -25.8200073242 -28.8500061035 22.6399993896 40.0200042725 16.4199981689 hvcurveto
          53.3000030518 123.61000061 rlineto
          240.089996338 hlineto
          52.4700012207 -127.089996338 14.3800048828 -38.5700073242 -3.83999633789 -19.4700012207 -23.3800048828 -14.1199951172 rlinecurve
          -29.7700042725 -19 -27.4100036621 -20 -4.69999694824 -42 -13.4400024414 -128 190.720001221 7 callsubr
          -65.2200012207 28 -3.03999328613 59 -1.82000732422 31 16.5200042725 31 48.8200073242 10 61.1100006104 13.1999969482 100.929992676 -12.5599975586 48.6900024414 -0.610000610352 rrcurveto
          9.86999511719 vlineto
          -8.5299987793 0.979995727539 -30.3099975586 3.63999938965 -35.1100006104 13.4299926758 -20.6999969482 43.0800018311 rlinecurve
          -449.940002441 167.339996338 rmoveto
          104.509994507 242.149993896 99.9900054932 -242.149993896 rlineto
          endchar
        </CharString>
        <CharString name="Aring">
          75 362.36000061 697.029998779 rmoveto
          45.9400024414 4.13999938965 35.6199951172 28.9900054932 0.25 39.1799926758 -0.270004272461 44.1699981689 -41.1799926758 27.3099975586 -51.7299957275 -46 callgsubr
          -51.8999938965 -47 callsubr
          -41.8500061035 -29.1600036621 -68 callsubr
          -42.8699951172 -47 callsubr
          -40.1900024414 37.8300018311 -28.8200073242 46.9199981689 -3 -10.3800048828 -37.0599975586 -29.2200012207 -63.8699951172 -6.0299987793 -12.8500061035 -228.880004883 -512.029998779 rcurveline
          -43.0599975586 -20.9799957275 -36.0200042725 -17.8999938965 -29.4900054932 hhcurveto
          -9 -10 214.419998169 9.91000366211 -8.78999328613 hlineto
          -25.8200073242 -28.8500061035 22.7599945068 40.0200042725 16.4199981689 hvcurveto
          51.9900054932 123.570007324 rlineto
          232.940002441 hlineto
          49.8099975586 -123.570007324 rlineto
          -40.0200042725 15.5700073242 -28.0899963379 -22.75 -25.8200073242 hhcurveto
          -8.78999328613 -9.91000366211 318.61000061 10 -8.36000061035 hlineto
          -30.6499938965 -35.7899932861 18.4600067139 44.5500030518 -21.4299926758 hvcurveto
          -342.119995117 695.729995728 rmoveto
          0.0700073242188 31.5899963379 18.6399993896 20.9499969482 24.4900054932 -0.190002441406 25.0599975586 0.199996948242 18.9299926758 -20.9499969482 -0.119995117188 -31.6100006104 15 callsubr
          -31.2799987793 -18.9299926758 -20.9499969482 -25.0599975586 -0.119995117188 -24.4900054932 15 callsubr
          -18.6399993896 20.9499969482 -0.0599975585938 31.2899932861 rrcurveto
          -98.1000061035 -530.350006104 rmoveto
          101.320007324 240.320007324 96.8600006104 -240.320007324 rlineto
          endchar
        </CharString>
        <CharString name="Atilde">
          75 531.100006104 889.130004883 -87 callgsubr
          7.75 19 rrcurveto
          -165.11000061 -169.059997559 -67 callsubr
          -7.13000488281 -104 callsubr
        </CharString>
        <CharString name="B">
          33 42 -5 callgsubr
          12.6999969482 hlineto
          34.6799926758 0.0800018310547 28.2299957275 -27.6199951172 1.07000732422 -34.4600067139 rrcurveto
          -555.789993286 vlineto
          -34.5299987793 -1 -28.2599945068 -27.6999969482 -34.7799987793 hhcurveto
          -12.6499938965 hlineto
          -70 callsubr
          -10 rlineto
          316.5 hlineto
          169.25 112.539993286 66.5 128.679992676 -0.300003051758 hvcurveto
          0.300003051758 106.38999939 -76.5399932861 70.1100006104 -101.199996948 9.16999816895 62.7299957275 7.64999389648 60.0700073242 48.5700073242 0.169998168945 91.6600036621 rrcurveto
          122.479995728 -0.169998168945 -108.570007324 48.7799987793 -145.270004272 hhcurveto
          -62.5500030518 -654.419998169 rmoveto
          611.339996338 28.5800018311 vlineto
          76.8200073242 -46 callgsubr
          51 -40.4600067139 0.169998168945 -100.429992676 -0.169998168945 -100.960006714 -59.6799926758 -36.2100067139 -63.0200042725 0.220001220703 0.229995727539 -9.41000366211 rcurveline
          89.0700073242 4 callsubr
          76.1799926758 -45.6399993896 -0.309997558594 -116.929992676 0.309997558594 -113.429992676 -63.8600006104 -48.8899993896 -88.9900054932 0.470001220703 rrcurveto
          endchar
        </CharString>
        <CharString name="C">
          139 713.539993286 291.850006104 -92 callgsubr
        </CharString>
        <CharString name="Cacute">
          139 418.259994507 762.169998169 -103 callgsubr
          302.279998779 -477.320007324 -92 callgsubr
        </CharString>
        <CharString name="Ccaron">
          139 434.699996948 764.039993286 -93 callgsubr
          140.429992676 -625.350006104 -92 callgsubr
        </CharString>
        <CharString name="Ccedilla">
          139 721.86000061 291.88999939 rmoveto
          -8.32000732422 hlineto
          -31.1399993896 -196.630004883 -78.0099945068 -66.9900054932 -153.869995117 -0.169998168945 rrcurveto
          -148.910003662 3.99000549316 -93.75 123.190002441 197.960006714 vvcurveto
          196.470001221 96.9199981689 122.179992676 158.630004883 vhcurveto
          109.960006714 -0.0700073242188 85.8600006104 -52.2799987793 36.4499969482 -131.309997559 rrcurveto
          8.32000732422 hlineto
          -1.96000671387 171.589996338 rlineto
          29.4199981689 -56.6999969482 -85.4600067139 24.75 -106.5 hhcurveto
          -254 -154.539993286 -139.320007324 -223.679992676 -213.13999939 139.600006104 -132.440002441 218.380004883 -17.4100036621 hvcurveto
          -45.7899932861 -59 -1 callsubr
          -53 -66 callgsubr
          68 10 callsubr
          37.4499969482 43 rcurveline
          152.669998169 85.1999969482 59.7599945068 73.9900054932 44.8099975586 hvcurveto
          endchar
        </CharString>
        <CharString name="Cdotaccent">
          139 428.059997559 764.229995728 -94 callsubr
          285.479995728 -472.380004883 -92 callgsubr
        </CharString>
        <CharString name="D">
          187 5 callgsubr
          699.970001221 -82 callgsubr
        </CharString>
        <CharString name="Dcaron">
          187 418.690002441 764.039993286 -93 callgsubr
          -514.970001221 -217.229995728 -82 callgsubr
        </CharString>
        <CharString name="Dcroat">
          187 278.270004272 795.36000061 -64 callgsubr
          -236.13999939 -160.740005493 -82 callgsubr
        </CharString>
        <CharString name="Delta">
          11 321 714 rmoveto
          -316 -704.419998169 rlineto
          -9.58000183105 642 10 vlineto
          -316 704 rlineto
          190.529998779 -672.279998779 rmoveto
          -454.779998779 hlineto
          230.089996338 521.350006104 rlineto
          endchar
        </CharString>
        <CharString name="E">
          -10 605.699996948 13 callgsubr
          rmoveto
          -81 callgsubr
          281.410003662 133.839996338 hlineto
          48.4199981689 -1.50999450684 35.25 -35.8600006104 -0.130004882812 -48.2899932861 rrcurveto
          -8.66000366211 vlineto
          9.77000427246 -0.119995117188 rlineto
          231.11000061 vlineto
          -9.77000427246 -0.130004882812 rlineto
          -8.66000366211 vlineto
          -51 callsubr
          -48.7100067139 -35.8300018311 -36.0599975586 -49.1100006104 -0.929992675781 rrcurveto
          -132.570007324 290.949996948 168.259994507 hlineto
          59.9700012207 -2.50999450684 37.8300018311 -39.3200073242 -0.119995117188 -60.1799926758 rrcurveto
          -30 callsubr
          vlineto
          10.0899963379 -20 callsubr
          174.839996338 vlineto
          -18.5899963379 -7.83000183105 -57.6699981689 -9.9700012207 -43.1100006104 -0.389999389648 rrcurveto
          -383.380004883 hlineto
          -18 callsubr
          12.6499938965 hlineto
          33.9299926758 27.7200012207 -26.3500061035 -33.3399963379 2.27000427246 hvcurveto
          -557.520004272 -96 callgsubr
          517.770004272 hlineto
          endchar
        </CharString>
        <CharString name="Eacute">
          -10 312.690002441 762.169998169 -103 callgsubr
          300.009994507 -565.119995117 rmoveto
          -107 callgsubr
          517.770004272 hlineto
          endchar
        </CharString>
        <CharString name="Ecaron">
          -10 329.130004883 764.039993286 -93 callgsubr
          138.160003662 -713.160003662 rmoveto
          -107 callgsubr
          517.770004272 hlineto
          endchar
        </CharString>
        <CharString name="Ecircumflex">
          -10 316.589996338 915.25 rmoveto
          11.1600036621 -89 callsubr
          433.330001831 -558.039993286 rmoveto
          -107 callgsubr
          517.770004272 hlineto
          endchar
        </CharString>
        <CharString name="Edieresis">
          -10 204.160003662 758.869995117 -106 callgsubr
          168.100006104 -554.820007324 rmoveto
          -107 callgsubr
          517.770004272 hlineto
          endchar
        </CharString>
        <CharString name="Edotaccent">
          -10 322.490005493 764.229995728 -94 callsubr
          283.210006714 -560.190002441 rmoveto
          -107 callgsubr
          517.770004272 hlineto
          endchar
        </CharString>
        <CharString name="Egrave">
          -10 342.130004883 770.940002441 -83 callsubr
          -35.5099945068 -91 callgsubr
          270.580001831 -559.899993896 rmoveto
          -107 callgsubr
          517.770004272 hlineto
          endchar
        </CharString>
        <CharString name="Emacron">
          -10 188.720001221 795.36000061 -64 callgsubr
          416.990005493 -656.669998169 rmoveto
          -107 callgsubr
          517.770004272 hlineto
          endchar
        </CharString>
        <CharString name="Eng">
          221 538.619995117 700.009994507 -4 callsubr
          -11.1399993896 rlineto
          17.4499969482 hlineto
          31.9100036621 25.8800048828 -25.5800018311 -31.75 0.600006103516 hvcurveto
          -402.979995728 vlineto
          -510.580001831 486.419998169 rlineto
          -9.86000061035 hlineto
          0 11.6399993896 -50.5800018311 -74.3399963379 vvcurveto
          -521.830001831 vlineto
          -31.6900024414 -0.669998168945 -25.8600006104 -25.5 -31.8600006104 hhcurveto
          -17.4600067139 -6 callgsubr
          -11.0700073242 rlineto
          288.36000061 -6 callgsubr
          11.0700073242 rlineto
          -17.4600067139 hlineto
          -31.8999938965 -25.8899993896 25.5700073242 31.75 -0.600006103516 hvcurveto
          404.470001221 vlineto
          372.490005493 -355.020004272 rlineto
          -104.11000061 vlineto
          13 callsubr
          -132.710006714 -31.6900024414 -33 -55.9199981689 -40 5.30999755859 -8 rcurveline
          115.800003052 -16 105.369995117 69 132 vvcurveto
          650.839996338 vlineto
          29.75 0.470001220703 24.9700012207 23.3099975586 30.4600067139 hhcurveto
          17.4600067139 hlineto
          -46 callgsubr
          11.1399993896 rlineto
          endchar
        </CharString>
        <CharString name="Eogonek">
          -10 606.270004272 -1 callgsubr
          -2.33999633789 35 15.8899993896 30 54.8399963379 13 46.9900054932 13 callgsubr
          rcurveline
          -107 callgsubr
          466.300003052 hlineto
          -43.9400024414 -9 1 callsubr
          -29 -4.78999328613 -51 -34 callgsubr
          17.3600006104 115 rrcurveto
          endchar
        </CharString>
        <CharString name="Eth">
          187 44.0599975586 699.970001221 18 callsubr
          -9.91000366211 -32 callsubr
          33.0800018311 30.6199951172 -25.0599975586 -32.1600036621 hvcurveto
          -261.779998779 -78.7899932861 8 callgsubr
          78.7899932861 -256.220001221 vlineto
          -34.7700042725 -0.729995727539 -28.3699951172 -27.9799957275 -34.9600067139 hhcurveto
          -12.6499938965 hlineto
          -70 callsubr
          -10 rlineto
          362.820007324 hlineto
          236.240005493 145.229995728 133.839996338 215.839996338 216.240005493 -145.229995728 134.020004272 -236.240005493 hvcurveto
          -135.839996338 -371.029998779 rmoveto
          129.660003662 5 callgsubr
          -129.660003662 286.699996948 123.699996948 hlineto
          143.289993286 92.2799987793 -118.029998779 -190.059997559 -189.470001221 -92.2799987793 -117.660003662 -143.289993286 hvcurveto
          -123.699996948 hlineto
          endchar
        </CharString>
        <CharString name="Euro">
          67 669.839996338 190.410003662 rmoveto
          -109.009994507 -27.1499938965 -59.6600036621 -52.2799987793 -109.179992676 hhcurveto
          -127.220001221 -80.6699981689 93.8699951172 148.479995728 -20.7400054932 hvcurveto
          303.059997559 hlineto
          14.2200012207 5 callgsubr
          rlineto
          -321.470001221 hlineto
          -0.740005493164 12.1699981689 -0.380004882812 12.4700012207 -0.00999450683594 12.75 rrcurveto
          32.6100006104 346.210006714 vlineto
          14.8300018311 5 callgsubr
          rlineto
          -356.289993286 hlineto
          150.119995117 19.7599945068 80.3800048828 96.0099945068 120.570007324 hhcurveto
          71.1199951172 99.2799987793 -29.1399993896 -119.699996948 -12.0399932861 hvcurveto
          10 hlineto
          44.6999969482 131.649993896 rlineto
          42.0599975586 -33.6300048828 -103.949996948 17.2400054932 -85.8000030518 hhcurveto
          -192.529998779 -142.259994507 -120.279998779 -167.970001221 -33.0399932861 hvcurveto
          -100.199996948 hlineto
          -15 8 callgsubr
          rlineto
          109.320007324 hlineto
          -0.929992675781 -11.0399932861 -0.479995727539 -11.2100067139 -0.00999450683594 -11.3600006104 0.0500030517578 -12.3200073242 0.589996337891 -12.1399993896 1.11999511719 -11.9299926758 rrcurveto
          -94.6600036621 hlineto
          -15 8 callgsubr
          rlineto
          115.970001221 hlineto
          -166.899993896 34.5500030518 142.300003052 -117.570007324 188.399993896 hhcurveto
          79.9499969482 103 18.1499938965 43.9199981689 42.5 hvcurveto
          141.339996338 vlineto
          endchar
        </CharString>
        <CharString name="F">
          -46 544.690002441 548.589996338 rmoveto
          169.600006104 vlineto
          -18.5899963379 -7.83000183105 -57.6399993896 -9.9700012207 -43.1100006104 -0.389999389648 rrcurveto
          -383.410003662 hlineto
          -18 callsubr
          12.6499938965 hlineto
          33.9199981689 30 -26.3399963379 -33.3300018311 hvcurveto
          -557.559997559 -96 callgsubr
          303.800003052 hlineto
          -80 callsubr
          251.279998779 133.809997559 vlineto
          48.4100036621 -1.50999450684 35.25 -35.8600006104 -0.130004882812 -48.2899932861 rrcurveto
          -8.66000366211 vlineto
          9.77000427246 -0.119995117188 rlineto
          231.11000061 vlineto
          -9.77000427246 -0.130004882812 rlineto
          -8.66000366211 vlineto
          -51 callsubr
          -48.7100067139 -35.8300018311 -36.0599975586 -49.1100006104 -0.929992675781 rrcurveto
          -132.570007324 290.949996948 170.979995728 hlineto
          58.5 -1.94999694824 11 callsubr
          -58.3899993896 rrcurveto
          -10.5399932861 vlineto
          endchar
        </CharString>
        <CharString name="G">
          195 819.279998779 325.38999939 -95 callsubr
          68.0899963379 60.7200012207 -52 callsubr
          endchar
        </CharString>
        <CharString name="Gbreve">
          195 537.020004272 904.11000061 -85 callgsubr
          270.61000061 -578.720001221 -95 callsubr
          68.0800018311 60.7299957275 -52 callsubr
          endchar
        </CharString>
        <CharString name="Gcommaaccent">
          195 819.279998779 325.38999939 -95 callsubr
          68.0800018311 60.7299957275 -52 callsubr
          -418.589996338 -572.410003662 0 callgsubr
          -69 callsubr
          -11.9799957275 -9 callsubr
        </CharString>
        <CharString name="Gdotaccent">
          195 422.869995117 764.229995728 -94 callsubr
          396.410003662 -438.850006104 -95 callsubr
          68.0800018311 60.7299957275 -52 callsubr
          endchar
        </CharString>
        <CharString name="H">
          220 819.869995117 -15 callgsubr
          554.330001831 vlineto
          34.8300018311 0.639999389648 28.3999938965 28.0500030518 35 -17 callsubr
          34.5800018311 28.1300048828 -28.6399993896 19 callsubr
          -257.669998169 -324.220001221 257.669998169 vlineto
          34.5399932861 0.979995727539 28.2700042725 28.3399963379 34.7899932861 -17 callsubr
          34.8600006104 28.3099975586 -28.2400054932 -34.6399993896 0.869995117188 hvcurveto
          -554.330001831 -61 callsubr
          254.520004272 324.220001221 -255.279998779 vlineto
          -34.4799957275 -1.05000305176 -28.2400054932 -27.6399993896 -34.7400054932 hhcurveto
          -12.6499938965 hlineto
          -70 callsubr
          -10 rlineto
          endchar
        </CharString>
        <CharString name="Hbar">
          206 813.070007324 -15 callgsubr
          419.169998169 66.5200042725 5 callgsubr
          -66.5500030518 93.0099945068 vlineto
          34.8300018311 0.669998168945 28.3999938965 28.0500030518 35 -76 callsubr
          12.6499938965 hlineto
          34.5800018311 28.1300048828 -27.3800048828 19 callsubr
          -94.2799987793 -324.220001221 93.6399993896 vlineto
          34.5399932861 0.979995727539 28.2700042725 27.7200012207 34.7899932861 -76 callsubr
          12.6499938965 hlineto
          34.8600006104 28.3099975586 -27.8300018311 -34.6399993896 0.869995117188 hvcurveto
          -93.4199981689 -64.0899963379 8 callgsubr
          64.0899963379 -419.169998169 -61 callsubr
          254.520004272 324.220001221 -255.279998779 vlineto
          -34.4799957275 -1.05000305176 -28.2400054932 -27.6399993896 -34.7400054932 hhcurveto
          -12.6499938965 hlineto
          -70 callsubr
          -10 rlineto
          -247.380004883 369.520004272 rmoveto
          122.509994507 324.220001221 -122.509994507 vlineto
          endchar
        </CharString>
        <CharString name="I">
          -255 345.410003662 10 rmoveto
          -103 callsubr
          303.789993286 hlineto
          endchar
        </CharString>
        <CharString name="IJ">
          130 345.410003662 10 rmoveto
          -103 callsubr
          303.789993286 hlineto
          85.8999938965 -57 callsubr
        </CharString>
        <CharString name="Iacute">
          -255 182.63999939 762.169998169 -103 callgsubr
          169.779998779 -759.169998169 rmoveto
          -103 callsubr
          303.789993286 hlineto
          endchar
        </CharString>
        <CharString name="Icircumflex">
          -255 186.539993286 915.25 rmoveto
          11.1499938965 -89 callsubr
          303.089996338 -752.089996338 rmoveto
          -103 callsubr
          303.789993286 hlineto
          endchar
        </CharString>
        <CharString name="Idieresis">
          -255 74.1100006104 758.869995117 -106 callgsubr
          37.8699951172 -748.869995117 rmoveto
          -103 callsubr
          303.789993286 hlineto
          endchar
        </CharString>
        <CharString name="Idotaccent">
          -255 192.440002441 764.229995728 -94 callsubr
          152.979995728 -754.229995728 rmoveto
          -103 callsubr
          303.789993286 hlineto
          endchar
        </CharString>
        <CharString name="Igrave">
          -255 218.13999939 770.940002441 -83 callsubr
          -35.5200042725 -91 callgsubr
          134.270004272 -753.940002441 rmoveto
          -103 callsubr
          303.789993286 hlineto
          endchar
        </CharString>
        <CharString name="Imacron">
          -255 58.6600036621 795.36000061 -64 callgsubr
          286.75 -850.720001221 rmoveto
          -103 callsubr
          303.789993286 hlineto
          endchar
        </CharString>
        <CharString name="Iogonek">
          -255 345.570007324 hmoveto
          -0.160003662109 10 rlineto
          -103 callsubr
          141.789993286 hlineto
          -45.9900054932 -8 -42.2700042725 -29 -4.97999572754 -53 -34 callgsubr
          17.3600006104 115 -6 6 rcurveline
          5 callsubr
          -2.05999755859 30.7700042725 13.8300018311 33.75 53.4600067139 14.4799957275 rrcurveto
          endchar
        </CharString>
        <CharString name="J">
          -257 44.9100036621 -57 callsubr
        </CharString>
        <CharString name="K">
          -67 callgsubr
          194.479995728 -40 callgsubr
          -16.8300018311 -53 callgsubr
          endchar
        </CharString>
        <CharString name="Kcommaaccent">
          -67 callgsubr
          194.470001221 -40 callgsubr
          -16.8399963379 -53 callgsubr
          -286.880004883 -281.020004272 -12 callsubr
          -9 -68 callgsubr
          7 -23.4199981689 -23 -52 callgsubr
          -11.9700012207 -9 callsubr
        </CharString>
        <CharString name="L">
          -25 605.710006714 13 callgsubr
          -62 callgsubr
        </CharString>
        <CharString name="Lacute">
          -25 183.759994507 762.169998169 -98 callsubr
          428.940002441 -565.130004883 -77 callgsubr
          endchar
        </CharString>
        <CharString name="Lcaron">
          -25 406.600006104 524.339996338 -55 callgsubr
          201.539993286 -328.36000061 -62 callgsubr
        </CharString>
        <CharString name="Lcommaaccent">
          -25 605.710006714 13 callgsubr
          -77 callgsubr
          -272.949996948 -242 -12 callsubr
          -10 59.6300048828 83 -32 callgsubr
        </CharString>
        <CharString name="Ldot">
          -25 605.710006714 13 callgsubr
          -77 callgsubr
          -143.580001831 357.169998169 -14 callsubr
          27.9400024414 -4 callgsubr
          -27.9400024414 -27.9400024414 -9 callgsubr
        </CharString>
        <CharString name="Lslash">
          -25 605.710006714 13 callgsubr
          rmoveto
          -81 callgsubr
          325.520004272 hlineto
          117.61000061 68.0399932861 -21.6999969482 38.1100006104 -95.9100036621 -55.4799957275 rlineto
          208.229995728 vlineto
          34.8300018311 0.679992675781 28.3999938965 28.0500030518 35 hhcurveto
          -71 callgsubr
          -68 callsubr
          10 rlineto
          -303.800003052 hlineto
          -70 callgsubr
          -295.020004272 vlineto
          -100.910003662 -58.3800048828 21.6999969482 -38.1100006104 79.2200012207 45.8300018311 rlineto
          -208.600006104 -96 callgsubr
          517.770004272 hlineto
          endchar
        </CharString>
        <CharString name="M">
          312 789.020004272 713.699996948 rmoveto
          -9.13999938965 hlineto
          -297.470001221 -509.86000061 -310.279998779 510.169998169 rlineto
          -9.2799987793 hlineto
          -82.8500061035 -641.350006104 rlineto
          -39.5299987793 -5.21000671387 -32 -23.1199951172 -35.9499969482 hhcurveto
          -15.8399963379 -10 209.289993286 9.44999694824 -15.5800018311 hlineto
          -21.5399932861 0.0500030517578 -19.8000030518 21.1199951172 2.36000061035 21.5399932861 39.3899993896 359.850006104 rcurveline
          257.320007324 -432 rlineto
          9.42999267578 hlineto
          1.36000061035 48.6000061035 37.2100067139 61.9400024414 0 vvcurveto
          187.309997559 323.949996948 39.5599975586 -362.339996338 2.36000061035 -21.6399993896 -19.8099975586 -21.0099945068 -21.5399932861 -0.0500030517578 rlinecurve
          -15.5800018311 -9.44000244141 300.460006714 10 -15.9199981689 hlineto
          -35.75 -30.7899932861 23.1199951172 39.5299987793 -6.33999633789 hvcurveto
          endchar
        </CharString>
        <CharString name="N">
          224 532.550003052 700.020004272 -99 callsubr
          33.4499969482 -22 callsubr
          endchar
        </CharString>
        <CharString name="Nacute">
          224 406.990005493 762.169998169 -98 callsubr
          132.559997559 -69.1499938965 -99 callsubr
          33.4600067139 -22 callsubr
          endchar
        </CharString>
        <CharString name="Ncaron">
          224 423.429992676 764.039993286 -93 callgsubr
          -29.2899932861 -217.190002441 -99 callsubr
          33.4600067139 -22 callsubr
          endchar
        </CharString>
        <CharString name="Ncommaaccent">
          224 532.550003052 700.020004272 -99 callsubr
          33.4600067139 -22 callsubr
          -409.089996338 -947.020004272 -12 callsubr
          -69 callsubr
          -11.9700012207 -9 callsubr
        </CharString>
        <CharString name="Ntilde">
          224 596.539993286 889.130004883 -80 callgsubr
          -52.5599975586 -189.11000061 -99 callsubr
          33.4600067139 -22 callsubr
          endchar
        </CharString>
        <CharString name="O">
          237 442.179992676 714 -101 callsubr
        </CharString>
        <CharString name="OE">
          430 1051.05999756 13 callgsubr
          rmoveto
          -10 hlineto
          -99.2400054932 -31.0099945068 -64.8399963379 -62.0700073242 -99.8899993896 hhcurveto
          -132.86000061 281.410003662 135.419998169 hlineto
          48.4199981689 -1.50999450684 35.25 -35.8600006104 -0.130004882812 -48.2899932861 rrcurveto
          -8.66000366211 vlineto
          9.77000427246 -0.119995117188 rlineto
          231.11000061 vlineto
          -9.77000427246 -0.130004882812 rlineto
          -8.66000366211 vlineto
          0.130004882812 -48.7100067139 -35.8300018311 -36.0599975586 -49.1100006104 -0.929992675781 rrcurveto
          -134.149993896 290.949996948 169.050003052 hlineto
          59.9700012207 -2.50999450684 37.8300018311 1 callsubr
          -14 callgsubr
          -60.1799926758 rrcurveto
          -30 callsubr
          vlineto
          10.8899993896 -20 callsubr
          174.839996338 vlineto
          -18.6100006104 -7.83000183105 -57.6600036621 -9.9700012207 -43.1100006104 -0.389999389648 rrcurveto
          -248.350006104 hlineto
          -26.1900024414 -20.7700042725 2.19000244141 2.94999694824 23 callsubr
          hvcurveto
          4.9700012207 -35.9499969482 -37.2599945068 3.88999938965 -39.4499969482 hhcurveto
          -245.039993286 -151.630004883 -139.160003662 -223.619995117 -226.050003052 154.660003662 -139.160003662 234.720001221 51.2700042725 45.1699981689 9 3 38.6699981689 hvcurveto
          27.5099945068 2 14.5200042725 0 98.6900024414 0.0299987792969 rrcurveto
          2.38999938965 hlineto
          289.779998779 hlineto
          2.69999694824 hlineto
          -441.199996948 88.4900054932 rmoveto
          -30.5800018311 -0.240005493164 -54.5 -29.8000030518 -66.2700042725 hhcurveto
          -144.369995117 -97.2599945068 122.929992676 198.960006714 0.610000610352 hvcurveto
          204.429992676 0.610000610352 100.289993286 117.460006714 140.720001221 hhcurveto
          66.8000030518 53.3600006104 -29.3600006104 -31.2700042725 0.240005493164 hvcurveto
          endchar
        </CharString>
        <CharString name="Oacute">
          237 431.660003662 770.669998169 -98 callsubr
          17.5200042725 -63.6699981689 -101 callsubr
        </CharString>
        <CharString name="Ocircumflex">
          237 435.570007324 923.75 rmoveto
          11.1499938965 -89 callsubr
          150.839996338 -56.5899963379 -101 callsubr
        </CharString>
        <CharString name="Odieresis">
          237 323.13999939 767.369995117 -106 callgsubr
          -114.38999939 -53.3699951172 -101 callsubr
        </CharString>
        <CharString name="Ograve">
          237 457.169998169 779.440002441 -83 callsubr
          -35.5099945068 -91 callgsubr
          -11.9199981689 -58.4400024414 rmoveto
          -240.179992676 -153.25 -139.289993286 -224.720001221 -224.710006714 153.25 -139.279998779 240.179992676 240.179992676 153.25 139.279998779 224.710006714 224.720001221 -153.25 139.289993286 -240.179992676 hvcurveto
          -685.929992676 vmoveto
          -144.800003052 -87.5800018311 123.320007324 198.600006104 198.61000061 87.5800018311 123.330001831 144.800003052 144.800003052 87.5800018311 -123.330001831 -198.61000061 -198.600006104 -87.5800018311 -123.320007324 -144.800003052 hvcurveto
          endchar
        </CharString>
        <CharString name="Ohungarumlaut">
          237 344 774.220001221 -75 callsubr
          -22.9600067139 -46 callsubr
          -58.3099975586 -29 callgsubr
          -68.7599945068 -65.2599945068 -101 callsubr
        </CharString>
        <CharString name="Omacron">
          237 307.690002441 803.86000061 -64 callgsubr
          134.490005493 -155.220001221 -101 callsubr
        </CharString>
        <CharString name="Omega">
          210 807.649993896 212.660003662 rmoveto
          -63.3800048828 -35.1799926758 -22.5099945068 -21.3999938965 -59.4299926758 hhcurveto
          -166.380004883 hlineto
          166.240005493 20.9499969482 121.61000061 126.86000061 136.240005493 vvcurveto
          171.13999939 -165.63999939 130.929992676 -218.88999939 -222.179992676 -168.300003052 -128.289993286 -173.779998779 2.2200012207 vhcurveto
          1.19000244141 -134.789993286 108.300003052 -123.649993896 175.429992676 -25.6300048828 rrcurveto
          -163.919998169 hlineto
          -59.4299926758 0.0200042724609 -22.5099945068 21.3999938965 -35.1799926758 63.3800048828 rrcurveto
          -10 hlineto
          47.7100067139 -212.660003662 rlineto
          291.800003052 hlineto
          12.1399993896 131.789993286 -104.919998169 42.7400054932 -85.6100006104 91.4400024414 0.0700073242188 143.679992676 rlinecurve
          148.5 101.059997559 113.710006714 132.100006104 131.61000061 99.2400054932 -112.729995728 -147.179992676 -1.35000610352 vhcurveto
          -1.74000549316 -147.190002441 -89.6600036621 -89.8899993896 -102.199996948 -43.0800018311 12.1399993896 -131.779998779 rcurveline
          294.399993896 hlineto
          47.7100067139 212.660003662 rlineto
          endchar
        </CharString>
        <CharString name="Oslash">
          233 749.589996338 694.720001221 19 callgsubr
          -53.6699981689 -63.2299957275 rlineto
          34.1199951172 -60.7700042725 -75.4600067139 18.3500061035 -87.1699981689 hhcurveto
          -240.179992676 -151.289993286 -139.289993286 -224.720001221 -118.130004883 41.8099975586 -94.5200042725 74.5500030518 -63.0899963379 hvcurveto
          -56.6600036621 -66.75 36.5500030518 -30.5 58.6900024414 69.2200012207 rlineto
          -39.0899963379 62.8999938965 80.0700073242 -21.1399993896 93.5599975586 hhcurveto
          240.179992676 151.289993286 139.279998779 224.710006714 124.36000061 -46.3300018311 98.1900024414 -82.0899963379 62.9100036621 hvcurveto
          -461.649993896 -471.070007324 rmoveto
          -22.0200042725 50.1900024414 -11.7599945068 62.6600036621 72.7599945068 vvcurveto
          198.61000061 87.5800018311 123.330001831 144.800003052 69.1600036621 56.1100006104 -28.1399993896 -51.0399932861 39.7400054932 vhcurveto
          26.3600006104 -41.8500061035 rmoveto
          26.6600036621 -52.5299987793 14.3399963379 -68.0299987793 -80.3600006104 vvcurveto
          -198.600006104 -87.5700073242 -123.320007324 -144.800003052 -74.6399993896 -59.4400024414 32.7700042725 58.9600067139 -40.0700073242 vhcurveto
          endchar
        </CharString>
        <CharString name="Otilde">
          237 621.220001221 897.630004883 -80 callgsubr
          -167.600006104 -183.630004883 -101 callsubr
        </CharString>
        <CharString name="P">
          14 45.1699981689 -5 callgsubr
          12.5500030518 hlineto
          33.3200073242 30.5200042725 -23.8899993896 -33.7299957275 hvcurveto
          -559.589996338 vlineto
          -34.8300018311 14 callsubr
          -28.3999938965 -28.0500030518 -35 hhcurveto
          -12.6499938965 hlineto
          -70 callsubr
          -10 rlineto
          303.899993896 hlineto
          20 callsubr
          -12.6999969482 hlineto
          -34.9499969482 -0.00999450683594 -28.3999938965 28.0500030518 -0.649993896484 34.8300018311 rrcurveto
          584.990005493 66.7100067139 -28 callgsubr
          24 callsubr
          -121.089996338 12.7299957275 0.630004882812 14 callsubr
          15 callsubr
          -9.44999694824 rcurveline
          25 callgsubr
          184.830001831 10 callgsubr
          rrcurveto
          109.240005493 -3.42999267578 -74.1799926758 82.3600006104 -171.089996338 hhcurveto
          endchar
        </CharString>
        <CharString name="Q">
          241 1351.25 -72 rmoveto
          -110.979995728 -90 -172.220001221 -5 -180.429992676 69 -133.179992676 51 -81.5700073242 32 -93.3000030518 18.8200073242 rrcurveto
          158.369995117 44.25 96.1300048828 124.259994507 177.660003662 vvcurveto
          224.720001221 -152.990005493 139.289993286 -239.789993286 -240.179992676 -153.25 -139.289993286 -224.720001221 -222.839996338 150.710006714 -139.149993896 236.740005493 -2 vhcurveto
          126.309997559 -12 116.449996948 -111 147.580001831 -75 298.020004272 -150 224.179992676 130 9.03999328613 156 rrcurveto
          -1145.58999634 425.990005493 rmoveto
          198.61000061 88.6199951172 123.330001831 141.369995117 140.979995728 88.3600006104 -123.330001831 -198.61000061 -198.600006104 -88.3600006104 -123.320007324 -140.979995728 -140.979995728 -89.0099945068 123.320007324 198.600006104 vhcurveto
          endchar
        </CharString>
        <CharString name="R">
          106 44.8200073242 -5 callgsubr
          12.7599945068 hlineto
          34.8899993896 0.0500030517578 28.3999938965 -28.0500030518 0.660003662109 -34.8300018311 rrcurveto
          -554.809997559 vlineto
          -34.6100006104 -0.880004882812 -28.3000030518 -27.7899932861 -34.8399963379 hhcurveto
          -12.6499938965 hlineto
          -70 callsubr
          -10 rlineto
          304.059997559 hlineto
          20 callsubr
          -12.4600067139 hlineto
          -35.1900024414 -0.00999450683594 -28.3999938965 28.0500030518 -0.649993896484 34.8300018311 rrcurveto
          583.369995117 vlineto
          12.5399932861 -0.309997558594 36.7899932861 1.11000061035 26.5200042725 -1.13999938965 65.6799926758 -1.60000610352 48.2700042725 -42.7899932861 4 -95.6399993896 0.839996337891 -20.1499938965 -2.21000671387 -16.0899963379 -2.33999633789 -12.1799926758 -17.8300018311 -87.6000061035 -54.6799926758 -27.4400024414 -53.7700042725 -0.559997558594 rrcurveto
          -30.5299987793 -9.50999450684 hlineto
          25.9499969482 -4.46000671387 22.3399963379 -21.1900024414 19.4199981689 -41.7400054932 13.9100036621 -29.8999938965 45.0899963379 -99.0200042725 24.3200073242 -42.3699951172 rrcurveto
          -79.9900054932 45.9199981689 79.5599975586 -23.6699981689 109.38999939 hhcurveto
          97.3600006104 10.0299987793 hlineto
          -52.1199951172 0.779998779297 -28.5 20.1499938965 -43.1300048828 54.8999938965 -37.6699981689 46.9700012207 -59.9799957275 95.1100006104 -3.03999328613 4.86000061035 -22.1900024414 35.0399932861 -37.5800018311 39.7200012207 -42.2400054932 13.8399963379 rrcurveto
          113.490005493 11.3000030518 50.2100067139 94.5500030518 84.1699981689 vvcurveto
          139.279998779 -116.61000061 49.3099975586 -121.240005493 vhcurveto
          endchar
        </CharString>
        <CharString name="Racute">
          106 354.169998169 762.169998169 -103 callgsubr
          -302.339996338 23 callgsubr
          -101 callgsubr
          endchar
        </CharString>
        <CharString name="Rcaron">
          106 370.600006104 764.050003052 -93 callgsubr
          -464.199996948 -217.210006714 -101 callgsubr
          endchar
        </CharString>
        <CharString name="Rcommaaccent">
          106 44.8200073242 700 -101 callgsubr
          2.82000732422 -942 0 callgsubr
          -9 59.6300048828 82 -32 callgsubr
        </CharString>
        <CharString name="S">
          -63 251.089996338 482.710006714 rmoveto
          -41.8999938965 27.2200012207 -30.2100067139 26.3699951172 2.42999267578 39.3800048828 rrcurveto
          53.6900024414 2.42999267578 49.7299957275 42.4900054932 78.7299957275 hhcurveto
          84.5899963379 56.2400054932 -45.6799926758 -69.4299926758 -46 callgsubr
          hvcurveto
          9.63000488281 hlineto
          13.1000061035 146.990005493 rlineto
          -62.8099975586 hlineto
          5.78999328613 -45.6699981689 -58.3399963379 4.4700012207 -32.1799926758 hhcurveto
          -126.13999939 -75.8699951172 -71.5299987793 -103.539993286 -8.5 hvcurveto
          -7.28999328613 -72.8899993896 34.1799926758 -60.8999938965 68.8099975586 -45.6600036621 174.25 -115.619995117 rcurveline
          53.75 -35.6699981689 26.2599945068 -27.0500030518 -0.0599975585938 -40.5599975586 0.0599975585938 -62.6499938965 -51.2899932861 -48.1900024414 -86.9600067139 -1.58999633789 -119.960006714 -1.94000244141 -76.6300048828 86.0099945068 8.02000427246 104.259994507 rrcurveto
          -8.78999328613 hlineto
          -26.1600036621 -43.6199951172 -14.1000061035 -84.3399963379 16.5599975586 -41.8000030518 rrcurveto
          -37.6000061035 36.4799957275 84.0399932861 -23.1100006104 89.6799926758 hhcurveto
          159.929992676 98.2100067139 76.7599945068 130.270004272 6.07000732422 hvcurveto
          -45 callgsubr
        </CharString>
        <CharString name="Sacute">
          -63 278.020004272 762.169998169 -103 callgsubr
          -19.9299926758 -286.460006714 -92 callsubr
          rrcurveto
          -37.6000061035 36.4799957275 84.0399932861 -23.1100006104 89.6799926758 hhcurveto
          159.929992676 98.2100067139 76.7599945068 130.270004272 6.07000732422 hvcurveto
          -45 callgsubr
        </CharString>
        <CharString name="Scaron">
          -63 294.460006714 764.039993286 -93 callgsubr
          -181.779998779 -434.490005493 -92 callsubr
          rrcurveto
          -37.6000061035 36.4799957275 84.0399932861 -23.1100006104 89.6799926758 hhcurveto
          159.929992676 98.2100067139 76.7599945068 130.270004272 6.07000732422 hvcurveto
          -45 callgsubr
        </CharString>
        <CharString name="Scedilla">
          -63 251.089996338 482.710006714 -92 callsubr
          34.4799957275 -35.5500030518 76.9799957275 -22.1600036621 84.0700073242 -3 -47.0399932861 -61 rcurveline
          -1 callsubr
          -52 -66 callgsubr
          67 10 callsubr
          41.4199981689 48 rcurveline
          139.699996948 11 84.7700042725 74.2899932861 5.63000488281 120.740005493 -45 callgsubr
        </CharString>
        <CharString name="Scommaaccent">
          -83 243.960006714 482.320007324 rmoveto
          -41.1000061035 26.6999969482 -30.7299957275 26.1999969482 2.42999267578 40.8600006104 rrcurveto
          53.3699951172 2.47999572754 49.6100006104 42.2599945068 75.5599975586 hhcurveto
          36.3800048828 32.9400024414 -7.27000427246 -16.0500030518 24.3500061035 hvcurveto
          31.6100006104 -20.8500061035 18.9199981689 -32.4400024414 -51 callsubr
          -32.4499969482 rrcurveto
          9.63000488281 hlineto
          13.1000061035 141.100006104 rlineto
          -57.0700073242 hlineto
          6.30000305176 -47.0399932861 -62.3500061035 3.96000671387 -37.0399932861 hhcurveto
          -116.61000061 25 callsubr
          -106.070007324 -8.5 hvcurveto
          -7.28999328613 -73.5 34.2100067139 -60 69.0800018311 -45.8399963379 174.25 -115.619995117 rcurveline
          55.0500030518 -36.5299987793 24.5399932861 -28.1699981689 -0.0599975585938 -39.3999938965 0.0599975585938 -61.1499938965 -46.8399963379 -49.3500061035 -87.5700073242 -1.32000732422 rrcurveto
          -121.75 -75.5 82.6699981689 97.6300048828 4.07000732422 hvcurveto
          -8.78999328613 hlineto
          -25 -43.0700073242 -13.1199951172 -75.3800048828 15.1999969482 -43.4600067139 rrcurveto
          -36.5200042725 35.6000061035 80.8200073242 -24.1900024414 95.6699981689 hhcurveto
          157.679992676 98.4400024414 76.6399993896 130.679992676 4 callgsubr
          75.4199981689 -36.0899963379 51.8999938965 -58.2100067139 37.8200073242 rrcurveto
          -207.119995117 -605.449996948 0 callgsubr
          -10 -48 callsubr
          76 -16.1000061035 36 -46.3699951172 8 -21 callgsubr
          -24 -52 callgsubr
          -11.9700012207 -38 -34.6799926758 -13 rrcurveto
          endchar
        </CharString>
        <CharString name="T">
          -56 callsubr
          61.3500061035 -78 callsubr
          endchar
        </CharString>
        <CharString name="Tbar">
          -56 callsubr
          61.3500061035 -15 callsubr
          -256.419998169 -154.38999939 8 callgsubr
          154.38999939 -289.080001831 -61 callgsubr
          303.919998169 -22 callgsubr
          -34.7400054932 -28.2299957275 27.6300048828 -6 callsubr
          -1.07000732422 hvcurveto
          288.240005493 154.740005493 5 callgsubr
          -154.740005493 256.419998169 134.330001831 vlineto
          61.3500061035 -1.55000305176 38.8099975586 -40.8399963379 16 callgsubr
          -59.7100067139 rrcurveto
          -30 callsubr
          vlineto
          10.0899963379 -20 callsubr
          endchar
        </CharString>
        <CharString name="Tcaron">
          25 340 764.039993286 -93 callgsubr
          174.830001831 -198.029998779 -53 callsubr
          61.3500061035 -78 callsubr
          endchar
        </CharString>
        <CharString name="Tcedilla">
          25 132.449996948 701 rmoveto
          -75 callgsubr
          61.3500061035 -15 callsubr
          -587.649993896 -61 callgsubr
          122.440002441 hlineto
          -47.8300018311 -62 -1 callsubr
          -52 -66 callgsubr
          67 10 callsubr
          41.4199981689 48 rcurveline
          133.490005493 -22 callgsubr
          -34.7400054932 -28.2299957275 27.6300048828 -6 callsubr
          -1.07000732422 hvcurveto
          586.800003052 134.330001831 vlineto
          61.3500061035 -1.55000305176 38.8300018311 -39.5599975586 -0.119995117188 -60.9799957275 rrcurveto
          -30 callsubr
          vlineto
          10.0899963379 -20 callsubr
          174.300003052 vlineto
          -54 callsubr
          endchar
        </CharString>
        <CharString name="Thorn">
          5 269.61000061 554.050003052 rmoveto
          73.7700042725 -100 callgsubr
          303.789993286 -22 callgsubr
          -35 -28.3999938965 28.0500030518 34.8300018311 -0.649993896484 hvcurveto
          439.050003052 62.1600036621 -28 callgsubr
          rrcurveto
          24 callsubr
          -120.470001221 12.0700073242 -0.0299987792969 vvcurveto
          15 callsubr
          -9.44999694824 25 callgsubr
          182.86000061 10 callgsubr
          rlinecurve
          108.63999939 -3.91999816895 -70.1300048828 82.9499969482 -172.690002441 hhcurveto
          endchar
        </CharString>
        <CharString name="U">
          180 580.539993286 700 -104 callgsubr
          19.6699981689 -47 callgsubr
        </CharString>
        <CharString name="Uacute">
          180 440.679992676 762.169998169 -103 callgsubr
          146.850006104 23 callgsubr
          -104 callgsubr
          -37 callsubr
          -47 callgsubr
        </CharString>
        <CharString name="Ucircumflex">
          180 444.589996338 915.25 rmoveto
          11.1499938965 -89 callsubr
          280.169998169 -62.0899963379 -104 callgsubr
          -37 callsubr
          -47 callgsubr
        </CharString>
        <CharString name="Udieresis">
          180 332.160003662 758.869995117 -106 callgsubr
          14.9400024414 -58.8699951172 -104 callgsubr
          -37 callsubr
          -47 callgsubr
        </CharString>
        <CharString name="Ugrave">
          180 470.119995117 770.940002441 -83 callsubr
          -35.5099945068 -91 callgsubr
          117.419998169 -63.9400024414 -104 callgsubr
          -37 callsubr
          -47 callgsubr
        </CharString>
        <CharString name="Uhungarumlaut">
          180 353.020004272 765.720001221 -58 callgsubr
          -22.9600067139 -46 callsubr
          -58.3099975586 -29 callgsubr
          60.5800018311 -70.7599945068 -104 callgsubr
          -37 callsubr
          -47 callgsubr
        </CharString>
        <CharString name="Umacron">
          180 316.710006714 795.36000061 -64 callgsubr
          263.830001831 -160.720001221 -104 callgsubr
          -37 callsubr
          -47 callgsubr
        </CharString>
        <CharString name="Uogonek">
          180 580.539993286 700 rmoveto
          -10 16.3000030518 vlineto
          28.4299926758 23.1499938965 -20.1000061035 -28.0399932861 1.25 hvcurveto
          -394.470001221 vlineto
          -134.300003052 -0.279998779297 -76.1799926758 -83.4600067139 -122.13999939 hhcurveto
          -119.63999939 -74.4900054932 88.3999938965 142.259994507 hvcurveto
          381.699996948 vlineto
          27.9799957275 1.2200012207 23.1199951172 20.0399932861 28.3800048828 hhcurveto
          16.3000030518 10 -288.11000061 -10 16.2899932861 hlineto
          28.8899993896 23.4400024414 -20.7599945068 -28.7599945068 0.539993286133 hvcurveto
          -388.830001831 vlineto
          -0.0800018310547 -158.059997559 104.830001831 -100.61000061 201.160003662 -7 -40.3399963379 -11 -34.5800018311 -28 -4.4700012207 -48 -34 callgsubr
          17.3600006104 115 -6 6 rcurveline
          6 callsubr
          -2.2799987793 35 15.0299987793 29 51.5200042725 13 158.660003662 13.1199951172 93.8399963379 99.9900054932 13 callsubr
          153.300003052 rrcurveto
          389.380004883 vlineto
          27.5599975586 1.74000549316 22.9499969482 -37 callsubr
          -47 callgsubr
        </CharString>
        <CharString name="Uring">
          180 451.020004272 930.88999939 -74 callsubr
          -21.5899963379 23.3000030518 34.8999938965 -31 callsubr
          130.190002441 -206.070007324 -104 callgsubr
          -37 callsubr
          -47 callgsubr
        </CharString>
        <CharString name="V">
          86 541.720001221 700.059997559 rmoveto
          -21 callsubr
          8.78999328613 vlineto
          25.8200073242 28.8500061035 -22.6399993896 -40.0200042725 -16.4199981689 hvcurveto
          -176.199996948 -413.330001831 -169.320007324 413.330001831 rlineto
          40.0200042725 -14.1600036621 26.7799987793 22.6399993896 25.8200073242 hhcurveto
          8.78999328613 9.94999694824 -318.460006714 -10.0399932861 8 hlineto
          29.4600067139 34.1300048828 -16.8000030518 -40.4900054932 21.6600036621 hvcurveto
          303.050003052 -652.740005493 rlineto
          9.00999450684 hlineto
          2.42999267578 29.0399932861 39.6199951172 86.6900024414 7.13000488281 15.2100067139 236.770004272 523.36000061 rcurveline
          39.3500061035 21.2700042725 34.3399963379 16.3699951172 28.5800018311 hhcurveto
          8.91999816895 10.0399932861 hlineto
          endchar
        </CharString>
        <CharString name="W">
          330 789.339996338 700 rmoveto
          -9.91000366211 8.78999328613 vlineto
          27.8200073242 21.1799926758 -22.2400054932 -40.0200042725 -10.9900054932 hvcurveto
          -99.7799987793 -351.779998779 -198.979995728 439.270004272 -9.30999755859 0.320007324219 -181.449996948 -435.13999939 -123.020004272 347 rlineto
          40.0200042725 -13.0800018311 25.9299926758 22.5599975586 25.8200073242 hhcurveto
          8.78999328613 9.91000366211 -305.050003052 -10 8 hlineto
          29.6100006104 38.0800018311 -16.6900024414 -41.1499938965 18.3000030518 hvcurveto
          239.330001831 -650.160003662 rlineto
          9.44000244141 hlineto
          1.03999328613 52.7200012207 23.5700073242 58.3600006104 0 vvcurveto
          157.869995117 371.759994507 218.169998169 -482.839996338 rlineto
          9.44000244141 hlineto
          -2.7200012207 48.7700042725 20.3300018311 62.3200073242 0 vvcurveto
          167.990005493 538.529998779 rlineto
          41.5399932861 15.8099975586 40.9799957275 16.8399963379 29.6799926758 hhcurveto
          8.78999328613 10 hlineto
          endchar
        </CharString>
        <CharString name="Wacute">
          330 518.649993896 762.169998169 -103 callgsubr
          277.690002441 23 callgsubr
          -97 callgsubr
        </CharString>
        <CharString name="Wcircumflex">
          330 522.550003052 915.25 rmoveto
          11.1499938965 -89 callsubr
          411.009994507 -62.0899963379 -97 callgsubr
        </CharString>
        <CharString name="Wdieresis">
          330 410.119995117 758.869995117 -106 callgsubr
          145.779998779 -58.8699951172 -97 callgsubr
        </CharString>
        <CharString name="Wgrave">
          330 548.080001831 770.940002441 -83 callsubr
          -35.5200042725 -91 callgsubr
          248.259994507 -63.9400024414 -97 callgsubr
        </CharString>
        <CharString name="X">
          88 756.070007324 10 rmoveto
          -13.6300048828 hlineto
          -41.9700012207 -38.3999938965 27.4199981689 30.8500061035 -21.0099945068 hvcurveto
          -201.13999939 310.770004272 170.259994507 252.75 rlineto
          30.6399993896 21.6100006104 36.4199981689 27.5599975586 41.7400054932 hhcurveto
          14 hlineto
          -14 callgsubr
          10.0200042725 rlineto
          -245.559997559 hlineto
          0.110000610352 -10.0200042725 rlineto
          12.6000061035 hlineto
          27.2700042725 24.4799957275 -33.6699981689 -28.3899993896 -17.0399932861 hvcurveto
          -122.509994507 -192.160003662 -124.75 192.75 rlineto
          28.2599945068 -16.3600006104 23.9600067139 33.2400054932 27.0899963379 hhcurveto
          12.6000061035 hlineto
          -14 callgsubr
          9.9700012207 rlineto
          -339.630004883 -9.9700012207 14.2799987793 hlineto
          41.7899932861 38.3000030518 -27.9600067139 -30.8699951172 21 hvcurveto
          184.550003052 -286.399993896 -196.979995728 -278.339996338 rlineto
          -29.9100036621 -22.8500061035 -35.25 -26.5399932861 -40.8500061035 hhcurveto
          -14 -9.96000671387 247.020004272 hlineto
          -14 callgsubr
          9.96000671387 rlineto
          -12.6000061035 hlineto
          -27.2700042725 -26.4600067139 33.7299957275 28.3899993896 18.6499938965 hvcurveto
          146.86000061 216.559997559 140.009994507 -217.289993286 rlineto
          -28.3500061035 16.8200073242 -24.0599975586 -33.0500030518 -27.2200012207 hhcurveto
          -12.6000061035 hlineto
          0.110000610352 -10 rlineto
          341.020004272 hlineto
          endchar
        </CharString>
        <CharString name="Y">
          61 495.800003052 700.020004272 -85 callsubr
          -330.929992676 -9.9700012207 14 hlineto
          40.7299957275 38.9400024414 -27.0899963379 -30.3000030518 19.5899963379 hvcurveto
          190.460006714 -313.970001221 rlineto
          -246.440002441 vlineto
          -34.5399932861 -0.979995727539 -28.2700042725 -27.7100067139 -34.7899932861 -73 callsubr
          245.220001221 vlineto
          196.880004883 313.490005493 rlineto
          30.7299957275 20.7200012207 37.9900054932 27.6900024414 41.8399963379 hhcurveto
          14 10.0200042725 hlineto
          endchar
        </CharString>
        <CharString name="Yacute">
          61 387.380004883 762.169998169 -98 callsubr
          115.419998169 -69.1499938965 -97 callsubr
        </CharString>
        <CharString name="Ycircumflex">
          61 391.279998779 915.25 rmoveto
          11.1600036621 -89 callsubr
          248.740005493 -62.0700073242 -97 callsubr
        </CharString>
        <CharString name="Ydieresis">
          61 278.850006104 758.869995117 -106 callgsubr
          -16.4900054932 -58.8500061035 -97 callsubr
        </CharString>
        <CharString name="Ygrave">
          61 416.809997559 770.940002441 -83 callsubr
          -35.5200042725 -91 callgsubr
          85.9799957275 -63.9199981689 -97 callsubr
        </CharString>
        <CharString name="Z">
          20 623.240005493 201.25 rmoveto
          -96.7700042725 -26.3399963379 -65.8200073242 -62.5599975586 -87.5700073242 hhcurveto
          -210 hlineto
          370.990005493 663.410003662 rlineto
          8.66999816895 vlineto
          -6.17999267578 -11.8000030518 -53.9499969482 -6.7200012207 -40.2200012207 hhcurveto
          -318.080001831 hlineto
          -42.7100067139 -0.199996948242 -59.6199951172 10.2100067139 -18.9499969482 7.99000549316 rrcurveto
          -174.399993896 vlineto
          10.0899963379 -46 callgsubr
          rlineto
          11.75 vlineto
          -0.119995117188 61.1000061035 39 40.2100067139 61.5700073242 -59 callgsubr
        </CharString>
        <CharString name="Zacute">
          20 320.330001831 762.169998169 -103 callgsubr
          309.910003662 -567.910003662 rmoveto
          -96.7799987793 -74 callgsubr
          61.5800018311 -59 callgsubr
        </CharString>
        <CharString name="Zcaron">
          20 336.770004272 764.039993286 -93 callgsubr
          148.059997559 -715.949996948 rmoveto
          -96.7700042725 -74 callgsubr
          61.5700073242 -59 callgsubr
        </CharString>
        <CharString name="Zdotaccent">
          20 330.130004883 764.229995728 -94 callsubr
          293.11000061 -562.979995728 rmoveto
          -96.7799987793 -74 callgsubr
          61.5700073242 -59 callgsubr
        </CharString>
        <CharString name="a">
          3 318.899993896 627.600006104 rmoveto
          -8.49000549316 hlineto
          -3.05999755859 -28.2299957275 -36.7100067139 -77.5800018311 -6.89999389648 -15.4199981689 -206.270004272 -444.220001221 rcurveline
          -37.4600067139 -19.0299987793 -32.0700073242 -14.6999969482 -25.3600006104 hhcurveto
          -8 -10 199.740005493 9.91000366211 -7.86000061035 hlineto
          -22.7899932861 -25.6799926758 19.0500030518 35.2100067139 13.7299957275 hvcurveto
          39.9400024414 92.75 rlineto
          211.800003052 hlineto
          38.8000030518 -91.4100036621 rlineto
          -36.0700073242 14.9199981689 -25.9100036621 -19.5299987793 -23.0800018311 hhcurveto
          -7.86000061035 -9.91000366211 293.88999939 10 -7.47999572754 hlineto
          -27.3999938965 -31.8099975586 15.6600036621 40.1499938965 -19.3500061035 hvcurveto
          -399.600006104 130.449996948 rmoveto
          89.7100067139 208.339996338 88.4400024414 -208.339996338 rlineto
          endchar
        </CharString>
        <CharString name="aacute">
          3 305.020004272 662.169998169 -103 callgsubr
          20.8800048828 -41.5599975586 -106 callsubr
        </CharString>
        <CharString name="abreve">
          3 428.970001221 804.11000061 -85 callgsubr
          -121.710006714 -176.509994507 -106 callsubr
        </CharString>
        <CharString name="acircumflex">
          3 308.919998169 815.25 rmoveto
          11.1600036621 -89 callsubr
          154.199996948 -34.4900054932 -106 callsubr
        </CharString>
        <CharString name="acute">
          -105 209.490005493 744.149993896 -103 callgsubr
          endchar
        </CharString>
        <CharString name="adieresis">
          3 196.490005493 658.869995117 -106 callgsubr
          -111.029998779 -31.2700042725 -106 callsubr
        </CharString>
        <CharString name="ae">
          223 836.960006714 175.380004883 rmoveto
          -25.3600006104 -83.8699951172 -59.3500061035 -51.4700012207 -77.7899932861 -0.429992675781 rrcurveto
          -119.729995728 231.179992676 115.399993896 hlineto
          42.9199981689 -2.32000732422 30.8399963379 -32.0299987793 -31 callgsubr
          -43.1600036621 rrcurveto
          -5.61000061035 vlineto
          9.02000427246 -14 callgsubr
          rlineto
          207.179992676 vlineto
          -9.02000427246 -14 callgsubr
          rlineto
          -6.77000427246 vlineto
          0.130004882812 -43.6000061035 -31.4199981689 -32.2400054932 -43.6499938965 -1.74000549316 rrcurveto
          -114.100006104 248.940002441 144.009994507 hlineto
          53.7200012207 -1.83000183105 33.3500061035 -34.1100006104 -14 callgsubr
          -53.6199951172 rrcurveto
          -8.58999633789 vlineto
          9.21000671387 -0.119995117188 rlineto
          154.279998779 vlineto
          -15.9900054932 -6.7200012207 -49.5200042725 -8.55000305176 -37.0899963379 -0.360000610352 rrcurveto
          -309.869995117 -8.58999633789 4.0299987793 hlineto
          19.9400024414 11.3600006104 -17.6799926758 -20.6399993896 -12.6399993896 hvcurveto
          -341.539993286 -490.429992676 rlineto
          -34.7799987793 -24.2100067139 -26.3000030518 -17.4900054932 -27.0599975586 hhcurveto
          -7 -10 197.550003052 9.94000244141 -7.75 hlineto
          -22.0899963379 0.110000610352 -23.9299926758 17.5 13.4100036621 28.2899932861 135.619995117 214.949996948 rcurveline
          141.160003662 -220.649993896 hlineto
          -23.0200042725 -0.440002441406 -18.8000030518 -17.1300048828 -23.1799926758 hhcurveto
          -8.38000488281 hlineto
          -14 callgsubr
          -10 rlineto
          446.559997559 hlineto
          37.7200012207 175.380004883 rlineto
          -549.619995117 134.899993896 rmoveto
          116.25 184.25 rlineto
          -184.25 vlineto
          endchar
        </CharString>
        <CharString name="agrave">
          3 334.449996948 670.940002441 -83 callsubr
          -35.5200042725 -91 callgsubr
          -8.55000305176 -36.3399963379 -106 callsubr
        </CharString>
        <CharString name="amacron">
          3 181.039993286 695.36000061 -64 callgsubr
          137.86000061 -133.119995117 -106 callsubr
        </CharString>
        <CharString name="ampersand">
          166 847.830001831 10.6100006104 rmoveto
          -51.8399963379 15.5099945068 -56.9900054932 46.2799987793 -73.3600006104 63.7700042725 33.3000030518 61.2799987793 11.5599975586 74.25 -1.96000671387 74.4400024414 -0.220001220703 31.8500061035 5.07000732422 21.1499938965 30.6000061035 -0.259994506836 rrcurveto
          14.2799987793 10 -233.850006104 -10 14.9400024414 hlineto
          25.7899932861 0.259994506836 20.5299987793 -14.5399932861 14.9600067139 -31.3099975586 22.1699981689 -46.3999938965 2 -62.3699951172 -17.4900054932 -57.4199981689 -45.6699981689 37.9499969482 -65.4499969482 57.9600067139 -42.3399963379 36.9299926758 rrcurveto
          -109.690002441 95.7299957275 -59.5099945068 61.5 77.6100006104 vvcurveto
          68.1399993896 46.8099975586 49.0899963379 67.0299987793 90.4700012207 35.1900024414 -82.5700073242 -89.8800048828 0.610000610352 vhcurveto
          9.4700012207 hlineto
          35.5099945068 143.559997559 -34.1300048828 47.7599945068 -85.4100036621 22.8999938965 -77.8099975586 0.369995117188 rlinecurve
          -124.759994507 -117.580001831 -55.6799926758 -122.86000061 -50.1000061035 16.3600006104 -45.4600067139 27.6600036621 -43.3300018311 hvcurveto
          -67.6300048828 -21.9900054932 -79.4700012207 -53.5399932861 -104.970001221 vvcurveto
          -173.929992676 195.229995728 -52.3099975586 153.369995117 83.1399993896 64.2400054932 17.5399932861 29.6000061035 48.8600006104 vhcurveto
          95.5299987793 -55.1399993896 107.440002441 12 73.5 6 rrcurveto
          -663.300003052 236.270004272 rmoveto
          -2.69999694824 50.3800048828 13.3399963379 35.1199951172 15.9499969482 24.7700042725 35 -41.1600036621 43.9299926758 -40.0599975586 48.1300048828 -41.3300018311 37.2299957275 -32.2400054932 84 -71.3600006104 67.1100006104 -51.8800048828 rrcurveto
          -22.4400024414 -30.5099945068 -37.9799957275 -13.8099975586 -45.2799987793 hhcurveto
          -114.460006714 -107.100006104 68.6300048828 135.369995117 -6.67999267578 hvcurveto
          endchar
        </CharString>
        <CharString name="aogonek">
          -9 319.13999939 620.949996948 rmoveto
          -8.47999572754 hlineto
          -2.9700012207 -28.0700073242 -36.3800048828 -77.5200042725 -6.41000366211 -14.2299957275 -203.880004883 -438.070007324 rcurveline
          -38.0599975586 -19.4100036621 -31.3000030518 -15.0099945068 -26.3200073242 hhcurveto
          -8 -10 194.169998169 9.91000366211 -7.78999328613 hlineto
          -22.5700073242 -25.9700012207 19.2299957275 35.4100036621 14.0099945068 hvcurveto
          41.8200073242 95.9199981689 rlineto
          214.410003662 hlineto
          38.6900024414 -91.8000030518 15.6999969482 -40.1399993896 -10.5800018311 -17.2200012207 -22.3800048828 -11.3000030518 rlinecurve
          -39.1600036621 -20 -28.5700073242 -24 -4.67999267578 -43 -13.4400024414 -129 189.539993286 7 callsubr
          -63.6499938965 28 -3.82000732422 59 -2.25999450684 31 13.5 30 47.6300048828 11 60.5899963379 14.0899963379 106.380004883 -11.0899963379 35.9700012207 -1 rrcurveto
          10.1799926758 vlineto
          -12.1799926758 -45.6999969482 9.91000366211 44.1300048828 -22.7400054932 hvcurveto
          -398.080001831 136.869995117 rmoveto
          92.1900024414 211.429992676 89.1000061035 -211.429992676 rlineto
          endchar
        </CharString>
        <CharString name="approxequal">
          -160 67.3600006104 337.550003052 rmoveto
          30.4400024414 29.8000030518 -58 callsubr
          -62.5099945068 3 callsubr
          -59.7599945068 20 callgsubr
          39.5 -205.830001831 rmoveto
          30.4400024414 29.7899932861 -58 callsubr
          -62.5 3 callsubr
          -59.75 20 callgsubr
          endchar
        </CharString>
        <CharString name="aring">
          3 315.350006104 830.88999939 rmoveto
          -62.2700042725 -46.8699951172 -35.4600067139 -48.2100067139 -48.2100067139 46.5800018311 -35.4600067139 61.8999938965 61.8899993896 46.5800018311 36.0299987793 48.9700012207 48.75 -46.2899932861 33.5899963379 -61.5200042725 hvcurveto
          -0.669998168945 -24.8099975586 rmoveto
          28.8399963379 21.8699951172 -23.5800018311 -35.2799987793 -34.8899993896 -21.8699951172 -23.3000030518 -28.8399963379 -28.4600067139 -21.5899963379 23.3000030518 34.8999938965 -31 callsubr
          4.2200012207 -178.470001221 -106 callsubr
        </CharString>
        <CharString name="asciicircum">
          -89 245.130004883 376.710006714 rmoveto
          64.8899993896 hlineto
          208.160003662 -200.899993896 rlineto
          -78.6300048828 hlineto
          -162 153.539993286 -163.820007324 -153.539993286 rlineto
          -78.7100067139 hlineto
          endchar
        </CharString>
        <CharString name="asciitilde">
          -148 399.149993896 358.720001221 rmoveto
          24.7200012207 -60.9199981689 -37.4600067139 -34.2899932861 -40.5399932861 1.25 -49.0899963379 1.52000427246 -83.5399932861 98.8099975586 -73.0500030518 -1.38000488281 -65.3500061035 -1.24000549316 -60.5099945068 -49.8300018311 20.7200012207 -100.029998779 rrcurveto
          57.3899993896 hlineto
          -14.4499969482 69.4199981689 27.0299987793 26.1799926758 35.0099945068 -1.64999389648 rrcurveto
          -2.66000366211 56.6600036621 76.8600006104 -96.2899932861 72.1399993896 hhcurveto
          69.4400024414 69.9600067139 47.2700042725 103.820007324 -27.3300018311 hvcurveto
          endchar
        </CharString>
        <CharString name="asterisk">
          -253 201.529998779 605.279998779 rmoveto
          62.3600006104 -9.2200012207 88.7100067139 15.5700073242 rlineto
          47.2599945068 vlineto
          -27.8999938965 38.6100006104 -80.6799926758 -40.3000030518 -44.8800048828 -43.8399963379 27.8800048828 56.2799987793 12.6000061035 89.1799926758 -45.1399993896 14 -45.1399993896 -14 13.3999938965 -89.1799926758 27.8099975586 -56.1999969482 -44.9700012207 43.8899993896 -80.9199981689 39.5399932861 -27.2599945068 -38.6100006104 rlineto
          -47.2599945068 vlineto
          88.3200073242 -14.8200073242 62.1399993896 9.08999633789 -55.6999969482 -29.1600036621 -62.6199951172 -64.7400054932 28.2899932861 -37.8600006104 44.75 -15.2100067139 41.5800018311 80.0299987793 10.5700073242 62 10.5500030518 -62.0800018311 42.2299957275 -79.5599975586 44.75 15.2100067139 28.2899932861 37.8600006104 -63.2599945068 64.2799987793 rlineto
          endchar
        </CharString>
        <CharString name="at">
          348 523.729995728 207.350006104 rmoveto
          8 -74.1199951172 rlineto
          -27.5500030518 0.520004272461 -26.2400054932 -15.5700073242 -15.8999938965 hhcurveto
          -6.96000671387 hlineto
          -1.30000305176 -7.38999938965 rlineto
          207.039993286 hlineto
          1.32000732422 7.46000671387 rlineto
          -5.11000061035 hlineto
          -19.7100067139 -15.0299987793 13.7799987793 33.2400054932 -5.19999694824 hvcurveto
          -67.3099975586 403.699996948 rlineto
          -6.7200012207 hlineto
          -8.38000488281 -19.5200042725 -46.3500061035 -57.3399963379 0 vvcurveto
          -127.039993286 -173.050003052 -51.1199951172 -66.3500061035 -64.9700012207 -114.830001831 -73.7700042725 2.2200012207 rlinecurve
          -82.0899963379 2.27000427246 3.80999755859 140.880004883 62.5099945068 134.940002441 95.9799957275 207.479995728 178.759994507 80.2700042725 163.210006714 -29.7700042725 145.679992676 -27.1799926758 78.6199951172 -125.630004883 -15.0399932861 -178.979995728 -25.2799987793 -307.529998779 -264.630004883 -198.770004272 -342.5 137 4 -10 rcurveline
          445.720001221 -184 284.789993286 260.339996338 17.5500030518 298.720001221 11.6199951172 190.75 -113.210006714 154.679992676 -223.669998169 30.3300018311 -250.330001831 33.5099945068 -226.5 -123.789993286 -84.3999938965 -202.559997559 -75.0899963379 -180.759994507 83.9199981689 -145.86000061 126.580001831 4.57000732422 64.9799957275 2.14999389648 46.1900024414 43.0200042725 66.6100006104 89.2400054932 rrcurveto
          127.13999939 178.990005493 rmoveto
          16.0700073242 -148.86000061 rlineto
          -121.149993896 hlineto
          endchar
        </CharString>
        <CharString name="atilde">
          3 494.570007324 789.130004883 -87 callgsubr
          7.75 19 rrcurveto
          -164.240005493 -161.520004272 -106 callsubr
        </CharString>
        <CharString name="b">
          -37 35.5800018311 600.020004272 rmoveto
          -9.97999572754 11.2799987793 vlineto
          30.5299987793 23.7599945068 -21.75 -30.8999938965 0.520004272461 hvcurveto
          -474.600006104 vlineto
          -29.8999938965 -0.449996948242 -23.7799987793 -22.9100036621 -30.5800018311 hhcurveto
          -11.2799987793 -10 290.059997559 hlineto
          134.699996948 116.940002441 45.6799926758 125.11000061 90.7899932861 -71.0399932861 58.8099975586 -86.0200042725 6.25 hvcurveto
          55.5500030518 4.82000732422 54.3899993896 43.5299987793 75.6399993896 vvcurveto
          125.38999939 -120.630004883 24.0099945068 -105.259994507 vhcurveto
          -60.7400054932 -560.279998779 rmoveto
          521.199996948 28.2200012207 vlineto
          63.4600067139 45.3800048828 -30.4100036621 -89.4700012207 -82.4600067139 -47.1199951172 -33.0299987793 -60.7100067139 hvcurveto
          -8.7799987793 vlineto
          82.2100067139 0.660003662109 59.9600067139 -42.3300018311 -95.3899993896 vvcurveto
          -102.009994507 -59.3800048828 -37.9700012207 -71.2799987793 vhcurveto
          endchar
        </CharString>
        <CharString name="backslash">
          -215 8.78999328613 696.5 rmoveto
          360.940002441 -710.5 47.6600036621 24.5500030518 -360.509994507 708.919998169 rlineto
          endchar
        </CharString>
        <CharString name="bar">
          -384 100 -180 rmoveto
          57.1399993896 880 -30 callgsubr
          hlineto
          endchar
        </CharString>
        <CharString name="braceleft">
          -262 85 314.470001221 rmoveto
          16.2700042725 -1.53999328613 21.1799926758 -4.55999755859 6.5 -16.5599975586 10.8500061035 -27.5800018311 -28.0299987793 -79.9900054932 0.270004272461 -72.5500030518 rrcurveto
          -112.679992676 0.490005493164 56.8899993896 -99 168.960006714 hhcurveto
          1.67999267578 8 -93.2400054932 24 15.6399993896 78.2100067139 -31 callgsubr
          102.210006714 rlinecurve
          -0.610000610352 133.279998779 -29.6699981689 50.8699951172 -73.2599945068 19.8200073242 72.5599975586 21.9900054932 30.3500061035 32.6499938965 0.619995117188 157.61000061 -51 callsubr
          98.9199981689 -2.2799987793 73.3500061035 92.0299987793 23.8699951172 -1.67999267578 8 rcurveline
          -168.960006714 0.130004882812 -69.0299987793 -97.8800048828 -0.490005493164 -115.630004883 -0.270004272461 -69.5099945068 30.3099975586 -84.8000030518 -10.3999938965 -25.25 -7.58000183105 -15.1199951172 -21.5099945068 -0.119995117188 -17.5800018311 -0.119995117188 rrcurveto
          endchar
        </CharString>
        <CharString name="braceright">
          -262 27.8600006104 724.779998779 rmoveto
          92.0299987793 -23.8699951172 -2.2799987793 -73.3500061035 -51 callsubr
          -98.9199981689 0.619995117188 -157.61000061 30.3500061035 -32.6499938965 72.5599975586 -21.9900054932 -73.2599945068 -19.8200073242 -29.6699981689 -50.8699951172 -0.610000610352 -133.279998779 -31 callgsubr
          -102.210006714 15.6399993896 -78.2100067139 -93.25 -24 1.67999267578 -8 rcurveline
          168.960006714 56.8899993896 99 112.679992676 0.5 hvcurveto
          0.270004272461 72.5500030518 -28.0299987793 79.9900054932 10.8500061035 27.5800018311 6.5 16.5599975586 21.1799926758 4.55999755859 16.2700042725 1.53999328613 rrcurveto
          10 vlineto
          -17.5800018311 15 callsubr
          -21.5099945068 15 callsubr
          -7.58000183105 15.1199951172 -10.3999938965 25.25 30.3000030518 84.8000030518 -0.270004272461 69.5099945068 -0.5 115.630004883 -69.0299987793 97.8800048828 -168.960006714 -0.130004882812 rrcurveto
          endchar
        </CharString>
        <CharString name="bracketleft">
          -224 120 -90 rmoveto
          257.490005493 10 hlineto
          -107.490005493 38 rlineto
          715.779998779 vlineto
          104.179992676 38.2200012207 rlineto
          10 -254.179992676 vlineto
          endchar
        </CharString>
        <CharString name="bracketright">
          -224 43.3099975586 722 rmoveto
          -10 vlineto
          104.179992676 -38.2100067139 rlineto
          -715.789993286 vlineto
          -107.490005493 -38 rlineto
          -10 257.490005493 812 vlineto
          endchar
        </CharString>
        <CharString name="breve">
          -104 333.720001221 865.880004883 -85 callgsubr
          endchar
        </CharString>
        <CharString name="brokenbar">
          -384 100 350 rmoveto
          57.1399993896 350 -30 callgsubr
          hlineto
          -880 vmoveto
          57.1399993896 350 -30 callgsubr
          hlineto
          endchar
        </CharString>
        <CharString name="bullet">
          -274 201.660003662 209.509994507 rmoveto
          73.5800018311 24.4900054932 7.33000183105 6.83999633789 24.1399993896 72.2299957275 4.7200012207 14.25 4 callsubr
          10.2400054932 -4.19000244141 12.6799926758 -24.7200012207 74.2700042725 22 callgsubr
          6.72999572754 -74.3099975586 24.7299957275 -12.5299987793 4.19999694824 -9.83999633789 0 -12.5700073242 -4.2200012207 -74.2700042725 -24.7200012207 -6.72999572754 22 callgsubr
          -24.7299957275 -74.3099975586 -4.16999816895 -12.6399993896 13 callsubr
          -9.63000488281 4.17999267578 -12.6799926758 24.7200012207 -74.2700042725 6.74000549316 -6.72999572754 74.3099975586 -24.7299957275 rrcurveto
          12.5299987793 -4.19999694824 9.82000732422 0 12.5299987793 4.19999694824 rrcurveto
          endchar
        </CharString>
        <CharString name="c">
          41 625.699996948 250.690002441 rmoveto
          -90 callgsubr
          -198.240005493 138.009994507 -114.070007324 222.580001831 -1 hvcurveto
          130.119995117 81.8500061035 49.5 63.3899993896 39.0599975586 hvcurveto
          -30 callsubr
          150.820007324 rlineto
          endchar
        </CharString>
        <CharString name="cacute">
          41 367.919998169 671.440002441 -103 callgsubr
          264.779998779 -427.75 rmoveto
          -90 callgsubr
          -198.240005493 138.009994507 -114.070007324 222.580001831 -1 hvcurveto
          130.119995117 81.8500061035 49.5 63.3899993896 39.0500030518 hvcurveto
          -30 callsubr
          150.820007324 rlineto
          endchar
        </CharString>
        <CharString name="caron">
          -41 291.050003052 693.470001221 -93 callgsubr
          endchar
        </CharString>
        <CharString name="ccaron">
          41 384.36000061 673.320007324 -93 callgsubr
          102.929992676 -575.779998779 rmoveto
          -90 callgsubr
          -198.240005493 138.009994507 -114.070007324 222.580001831 -1 hvcurveto
          130.119995117 81.8500061035 49.5 63.3899993896 39.0599975586 hvcurveto
          -30 callsubr
          150.820007324 rlineto
          endchar
        </CharString>
        <CharString name="ccedilla">
          41 633.449996948 250.710006714 rmoveto
          -7.75 hlineto
          -90 callgsubr
          -186.089996338 121.61000061 -111.740005493 199.020004272 -13.4900054932 hvcurveto
          -47.1600036621 -61 -34 callsubr
          -10 -3 callsubr
          -52 -66 callgsubr
          67 rlinecurve
          3 0 callsubr
          5 1 callgsubr
          39.4600067139 45 rcurveline
          126.210006714 2 79.6900024414 48.6000061035 38.3800048828 62.2899932861 rrcurveto
          endchar
        </CharString>
        <CharString name="cdotaccent">
          41 377.729995728 673.509994507 -94 callsubr
          247.979995728 -422.809997559 rmoveto
          -90 callgsubr
          -198.240005493 138.009994507 -114.070007324 222.580001831 -1 hvcurveto
          130.119995117 81.8500061035 49.5 63.3899993896 39.0599975586 hvcurveto
          -30 callsubr
          150.820007324 rlineto
          endchar
        </CharString>
        <CharString name="cedilla">
          -41 228.800003052 -62 rmoveto
          -1 callsubr
          -52 -66 callgsubr
          67 10 callsubr
          42.0899963379 48.7799987793 rcurveline
          -48.0599975586 hlineto
          endchar
        </CharString>
        <CharString name="cent">
          -54 545.350006104 304.309997559 rmoveto
          -6.5299987793 hlineto
          -20.9600067139 -138.039993286 -51.1799926758 -49.5099945068 -115.910003662 -2.00999450684 37.9900054932 462.080001831 rcurveline
          63.3800048828 -8.66999816895 50.5200042725 -35.75 24.7100067139 -91.8500061035 rrcurveto
          6.5299987793 137.240005493 hlineto
          -33.4299926758 17.2100067139 -50.6699981689 14.5500030518 -57.9199981689 5.33000183105 6.9700012207 84.7899932861 rcurveline
          -40.8399963379 1.05000305176 -6.7200012207 -83.7100067139 rlineto
          -201.550003052 -120.990005493 -98.6499938965 -171.229995728 -158.169998169 107.729995728 -98.2400054932 171.520004272 -12.7100067139 hvcurveto
          -6.75 -84.1000061035 39.3399963379 -3 7.05000305176 85.7100067139 108.490005493 0.919998168945 67.5 42.2400054932 32.3399963379 54.1600036621 rlinecurve
          -244.740005493 -55.7599945068 rmoveto
          -91.4900054932 17.8999938965 -48.5700073242 82.2200012207 0.259994506836 130.940002441 -0.279998779297 143.050003052 57.3899993896 84.4299926758 119.710006714 2.17999267578 rrcurveto
          endchar
        </CharString>
        <CharString name="circumflex">
          -41 270.86000061 848.649993896 rmoveto
          11.1499938965 -89 callsubr
          endchar
        </CharString>
        <CharString name="colon">
          -423 111.25 372.440002441 rmoveto
          -37 callgsubr
          32.3800048828 -84 callgsubr
          -32.3800048828 39.9400024414 hvcurveto
          -382.440002441 vmoveto
          -63 callsubr
        </CharString>
        <CharString name="comma">
          -411 45.7400054932 -113 -50 callgsubr
        </CharString>
        <CharString name="commaaccentcomb">
          -641 34.9499969482 -183 -12 callsubr
          -10 -48 callsubr
          75 -16.1000061035 36.8600006104 -46.3699951172 7.67999267578 -21 callgsubr
          -23.5399932861 -52 callgsubr
          -11.9700012207 -9 callsubr
        </CharString>
        <CharString name="copyright">
          207 424 714 rmoveto
          -201.029998779 -162.970001221 -162.970001221 -201.029998779 -201.029998779 162.970001221 -162.970001221 201.029998779 201.029998779 162.970001221 162.970001221 201.029998779 201.029998779 -162.970001221 162.970001221 -201.029998779 hvcurveto
          -46.0500030518 vmoveto
          175.470001221 0.100006103516 142.589996338 -142.589996338 16 callgsubr
          9 callsubr
          -142.589996338 -142.589996338 9 callsubr
          16 callgsubr
          -142.589996338 142.589996338 0.100006103516 175.470001221 16 callgsubr
          175.470001221 142.589996338 142.589996338 175.470001221 16 callgsubr
          rrcurveto
          188.429992676 -346.100006104 rmoveto
          -12.7700042725 -107.539993286 -67 -51.4299926758 -93.5599975586 -0.119995117188 -83.9100036621 0.779998779297 -55.3300018311 73.9600067139 0.110000610352 112.479995728 -14 callgsubr
          113.559997559 54.6000061035 74.1699981689 82.6600036621 0.0700073242188 81.8600006104 0.0700073242188 55.8200073242 -44.8000030518 27.1199951172 -75.3999938965 rrcurveto
          5.91000366211 hlineto
          -2.19999694824 112.520004272 -46.0399932861 27.3999938965 -68.5200042725 15.5299987793 -57.4199981689 0.0899963378906 rlinecurve
          -139.449996948 -102.910003662 -95.25 -127.550003052 -126.589996338 102.300003052 -95.8600006104 138.809997559 -0.970001220703 hvcurveto
          85.5 69.0299987793 34.8200073242 56.8099975586 43.1000061035 hvcurveto
          -11.6900024414 103.399993896 rlineto
          endchar
        </CharString>
        <CharString name="currency">
          -100 491.699996948 153.649993896 rmoveto
          -60.2700042725 60.2700042725 68.1799926758 79.8500061035 -0.380004882812 118.320007324 -68.9400024414 79.4199981689 rlinecurve
          61.4100036621 61.4100036621 23 callsubr
          21.2100067139 -61.3899993896 -61.3899993896 -79.4299926758 69.2400054932 -118.539993286 0.479995727539 -79.9600067139 -68.2799987793 rlinecurve
          -59.9499969482 59.9499969482 23 callsubr
          23 callsubr
          59.7599945068 -59.7599945068 -70.8699951172 -79.9799957275 -0.380004882812 -120.509994507 70.1000061035 -80.4199981689 rlinecurve
          -58.6100006104 -58.6000061035 21.2100067139 23 callsubr
          58.6300048828 58.6300048828 80.4199981689 -69.8099975586 120.289993286 0.479995727539 79.8699951172 70.7700042725 rlinecurve
          60.0700073242 -60.0700073242 rlineto
          -330.580001831 90.2100067139 rmoveto
          8 callsubr
          9 callgsubr
          0 115.869995117 9 callgsubr
          9 callgsubr
          9 callgsubr
          9 callgsubr
          115.869995117 0 9 callgsubr
          8 callsubr
          9 callgsubr
          8 callsubr
          0 -115.869995117 8 callsubr
          8 callsubr
          8 callsubr
          8 callsubr
          -115.869995117 0 8 callsubr
          9 callgsubr
          rrcurveto
          endchar
        </CharString>
        <CharString name="d">
          107 32.5599975586 600.029998779 -81 callsubr
        </CharString>
        <CharString name="dagger">
          -149 465.86000061 438.410003662 rmoveto
          -57 callgsubr
          2 callgsubr
          -30.8699951172 -223.990005493 60.8699951172 -335.080001831 rlineto
          10 hlineto
          60.9199981689 335.080001831 -30.5599975586 223.990005493 24 callgsubr
          57 11 callgsubr
          rlineto
          endchar
        </CharString>
        <CharString name="daggerdbl">
          -148 446.419998169 162.679992676 rmoveto
          -136.410003662 -32.5599975586 -57.5099945068 -30.2599945068 30.3000030518 54.4600067139 32.2400054932 112.380004883 -33.1199951172 112.380004883 24 callgsubr
          57.0099945068 11 callgsubr
          20.0700073242 67.6999969482 -57 callgsubr
          rlineto
          2 callgsubr
          -32.2400054932 -112.380004883 33.1199951172 -112.380004883 30.6699981689 -54.6300048828 -57 30.3600006104 -137.539993286 32.6199951172 -20.0700073242 -67.6999969482 20.0700073242 -68.0200042725 137.539993286 32.7299957275 56.6999969482 30.1699981689 -30.3600006104 -54.0599975586 -32.4900054932 -196.800003052 66.7200012207 -20 68.9900054932 20 -32.8600006104 196.800003052 -29.9900054932 54.0500030518 57.2100067139 -30.0899963379 136.410003662 -32.8000030518 20.0700073242 68.0200042725 rlineto
          endchar
        </CharString>
        <CharString name="dcaron">
          107 376.630004883 665.009994507 -93 callgsubr
          -482.490005493 -218.13999939 -81 callsubr
        </CharString>
        <CharString name="dcroat">
          107 236.220001221 696.330001831 -64 callgsubr
          -203.660003662 -161.649993896 -81 callsubr
        </CharString>
        <CharString name="degree">
          -397 122.460006714 664.350006104 rmoveto
          -54.4199981689 -44.1199951172 -44.1199951172 -54.4199981689 -54.4199981689 44.1199951172 -44.1199951172 54.4199981689 54.4199981689 44.1199951172 44.1199951172 54.4199981689 54.4199981689 -44.1199951172 44.1199951172 -54.4199981689 hvcurveto
          -50.9499969482 vmoveto
          26.6499938965 20.9400024414 3 callgsubr
          3 callgsubr
          20.9400024414 26.6499938965 26.6499938965 20.9400024414 20.9400024414 26.6499938965 hvcurveto
          endchar
        </CharString>
        <CharString name="dieresis">
          -41 163.779998779 679.080001831 -106 callgsubr
          endchar
        </CharString>
        <CharString name="divide">
          -160 240.5 422.690002441 -42 callgsubr
          -200.5 -141.509994507 rmoveto
          -44 callsubr
          200.5 -231.690002441 -42 callgsubr
          endchar
        </CharString>
        <CharString name="dollar">
          -84 314.990005493 436.550003052 rmoveto
          17.9400024414 233.289993286 70.2200012207 -9.17999267578 42.7599945068 -42.5599975586 0.220001220703 -61.3600006104 rlinecurve
          9.63000488281 hlineto
          11.3899993896 126.729995728 0.720001220703 7.97999572754 0.990005493164 12.2799987793 rlineto
          -62.4900054932 hlineto
          -21.6699981689 2.77000427246 -24.6999969482 2.4700012207 -23.9299926758 1.82000732422 5.86000061035 76.1399993896 rcurveline
          -41.4499969482 1.05000305176 -5.71000671387 -74.6900024414 rlineto
          -29.3999938965 hlineto
          -116.61000061 0.699996948242 25 callsubr
          -8.5 -106.070007324 -7.28999328613 -73.5 31.1399993896 -65.4700012207 71.7599945068 -40.75 107.220001221 -71.1399993896 rcurveline
          -19.7700042725 -258.660003662 -104.710006714 11.2100067139 -62.2599945068 79.1900024414 6.94999694824 96.3999938965 rlinecurve
          -8.78999328613 hlineto
          -26.1600036621 -43.6199951172 -14.1000061035 -84.3399963379 16.5599975586 -41.8000030518 32.7200012207 -33.5700073242 70.9400024414 -23.1399993896 85.5599975586 -4 -6.5299987793 -85 rcurveline
          40.8999938965 -3 6.80000305176 88 146.970001221 6 91.0899963379 75.7799987793 5.83000183105 125.550003052 rlinecurve
          4.25 75.4199981689 -33.6300048828 55.3300018311 -60.2899932861 34.7799987793 rrcurveto
          -190.669998169 123.86000061 rmoveto
          -41.9400024414 24.5299987793 -30.2799987793 27.9799957275 2.42999267578 40.8600006104 2.30000305176 50.5500030518 46.0700073242 40.5700073242 69.0500030518 4.16000366211 -15.9900054932 -209.190002441 rcurveline
          26.0099945068 -199.899993896 rmoveto
          27.7299957275 -18.3999938965 57.2700042725 -31.5399932861 22.7100067139 -32.7700042725 -0.0599975585938 -39.3999938965 rlinecurve
          0.0599975585938 -58.1399993896 -45.8899993896 -47.8200073242 -79.7700042725 -5.36999511719 rrcurveto
          endchar
        </CharString>
        <CharString name="dotaccent">
          -41 296.619995117 679.279998779 -94 callsubr
          endchar
        </CharString>
        <CharString name="dotlessi">
          -301 306.470001221 hmoveto
          -94 callgsubr
        </CharString>
        <CharString name="e">
          -78 543.470001221 183.869995117 -84 callsubr
          -37.5299987793 -66 callsubr
        </CharString>
        <CharString name="eacute">
          -78 280.990005493 662.429992676 -98 callsubr
          269.479995728 -485.559997559 -90 callsubr
        </CharString>
        <CharString name="ecaron">
          -78 297.429992676 664.309997559 -93 callgsubr
          107.630004883 -633.600006104 -90 callsubr
        </CharString>
        <CharString name="ecircumflex">
          -78 284.88999939 815.509994507 rmoveto
          11.1499938965 -89 callsubr
          402.800003052 -478.479995728 -84 callsubr
          -37.5299987793 -66 callsubr
        </CharString>
        <CharString name="edieresis">
          -78 172.460006714 659.130004883 -106 callgsubr
          137.570007324 -475.259994507 -84 callsubr
          -37.5299987793 -66 callsubr
        </CharString>
        <CharString name="edotaccent">
          -78 290.789993286 664.5 -94 callsubr
          252.679992676 -480.619995117 -90 callsubr
        </CharString>
        <CharString name="egrave">
          -78 310.419998169 671.210006714 -83 callsubr
          -35.5200042725 -91 callgsubr
          240.050003052 -480.330001831 -84 callsubr
          -37.5299987793 -66 callsubr
        </CharString>
        <CharString name="eight">
          -38 389.289993286 396.729995728 rmoveto
          72.9100036621 20.4400024414 58.0200042725 50.9499969482 16 callgsubr
          76.4199981689 0.130004882812 103.970001221 -100.880004883 66.2799987793 -120.300003052 -0.789993286133 -128.539993286 -0.789993286133 -91.4400024414 -74.2599945068 -0.0200042724609 -117.75 13 callsubr
          -85.5 47.9700012207 -56.5599975586 56.3200073242 -40.7599945068 -65.6900024414 -24.6300048828 -77.6499938965 -47 -1.17999267578 -98.8899993896 rrcurveto
          -131.669998169 -1.96000671387 124.580001831 -50.1999969482 128.070007324 hhcurveto
          165.649993896 108.949996948 74.8399963379 129.529998779 hvcurveto
          -0.00999450683594 113.699996948 -84.2100067139 46.0099945068 -90.6399993896 46.6499938965 rrcurveto
          -91.6499938965 274.520004272 rmoveto
          58.5500030518 -1.82000732422 32.4100036621 -46.75 1.38000488281 -64.8000030518 1.17999267578 -43.1399993896 -11.7400054932 -58.6199951172 -33.4900054932 -36.8500061035 -102.229995728 55.5 -35.3500061035 36.6199951172 -0.0200042724609 59.9100036621 0.0200042724609 56.5700073242 32.4799957275 45.0200042725 56.8099975586 -1.63999938965 rrcurveto
          -3.03999328613 -643.11000061 rmoveto
          -77.3300018311 4.11000061035 -46.8999938965 55.7700042725 0.389999389648 93.9499969482 0.25 58.7599945068 18.8999938965 43.4499969482 29.5099945068 30.6000061035 17.1199951172 -10.2400054932 17.1300048828 -9.10000610352 16.1199951172 -8.30000305176 98.8999938965 -50.8399963379 54.0899963379 -33.1900024414 13 callsubr
          -66.5599975586 -0.00999450683594 -61.4400024414 -50.75 -50.7799987793 -77.4199981689 3.80999755859 rrcurveto
          endchar
        </CharString>
        <CharString name="ellipsis">
          32 -44 callgsubr
          227.320007324 hmoveto
          -37 callgsubr
          32.3099975586 -84 callgsubr
          -32.3099975586 39.9400024414 hvcurveto
          223.38999939 hmoveto
          -63 callsubr
        </CharString>
        <CharString name="emacron">
          -78 157.020004272 695.619995117 -64 callgsubr
          386.460006714 -577.11000061 -84 callsubr
          -37.5299987793 -66 callsubr
        </CharString>
        <CharString name="emdash">
          159 264.929992676 vmoveto
          800 52.1399993896 -800 hlineto
          endchar
        </CharString>
        <CharString name="endash">
          -141 264.929992676 vmoveto
          500 52.1399993896 -500 hlineto
          endchar
        </CharString>
        <CharString name="eng">
          161 496.25 600.020004272 rmoveto
          -10 16.6600036621 vlineto
          28.9900054932 23.2100067139 -20.9900054932 -28.1499938965 1.25 hvcurveto
          -345.169998169 vlineto
          -475.270004272 417.779998779 -9.5299987793 0.25 rlineto
          0 10.8899993896 -45.3999938965 -67.8099975586 vvcurveto
          -439.419998169 vlineto
          -29.1399993896 -0.240005493164 -24.6699981689 -21.9799957275 -30.1900024414 hhcurveto
          -16.3200073242 -10 274.850006104 10 -16.6399993896 hlineto
          -30.1900024414 -24.0500030518 21.9799957275 29.1399993896 -0.860000610352 hvcurveto
          334.800003052 vlineto
          342.339996338 -301.369995117 rlineto
          -62.7799987793 vlineto
          -125.75 -27.7899932861 -36 -55.8800048828 -39 vhcurveto
          5.30999755859 -8 rlineto
          114.369995117 -17 96.8099975586 69 128.039993286 vvcurveto
          537.039993286 vlineto
          28.5599975586 -0.759994506836 23.3800048828 21.3899993896 29.2700042725 hhcurveto
          16.6600036621 10 hlineto
          endchar
        </CharString>
        <CharString name="eogonek">
          -78 548.779998779 -1 callgsubr
          -2.33000183105 35 15.6900024414 30 54.0800018311 13 rrcurveto
          4.39999389648 hlineto
          38.8000030518 183.869995117 rlineto
          -105 callsubr
          -37.5299987793 -91 callsubr
          415.160003662 hlineto
          -43.5200042725 -9 -38.7400054932 -29 -4.75 -51 -34 callgsubr
          17.3699951172 115 rrcurveto
          endchar
        </CharString>
        <CharString name="equal">
          -160 40 357.820007324 rmoveto
          -44 callsubr
          -232.13999939 vmoveto
          -44 callsubr
          endchar
        </CharString>
        <CharString name="eth">
          107 32.5299987793 600.029998779 rmoveto
          -9.9700012207 11.9900054932 vlineto
          31.0500030518 25.2299957275 -21.9799957275 -30.4199981689 0.729995727539 hvcurveto
          -217.789993286 -65.1600036621 -39.1100006104 65.1600036621 -217.850006104 vlineto
          -29.9799957275 -0.470001220703 -24.8800048828 -22.9499969482 -30.6100006104 hhcurveto
          -12.4299926758 -10 337.649993896 hlineto
          214.589996338 128.899993896 111.309997559 188.259994507 188.399993896 -128.899993896 112.050003052 -214.580001831 hvcurveto
          -124.589996338 -319.259994507 rmoveto
          125.630004883 39.1100006104 -125.630004883 240.800003052 112.75 hlineto
          125.669998169 77.0399932861 -97.5700073242 -163.529998779 -162.669998169 -77.6600036621 -96.7799987793 -125.039993286 hvcurveto
          -112.75 hlineto
          endchar
        </CharString>
        <CharString name="exclam">
          -372 193.070007324 378.669998169 rmoveto
          18.3500061035 322.929992676 rlineto
          -153.929992676 hlineto
          18.3200073242 -322.929992676 35.0599975586 -172.240005493 rlineto
          46.4299926758 hlineto
          -23.9400024414 -216.429992676 rmoveto
          -63 callsubr
        </CharString>
        <CharString name="exclamdown">
          -372 136.11000061 711.669998169 rmoveto
          -54 callgsubr
          -32.3800048828 -32.3800048828 -38 callsubr
          32.3800048828 -32.3800048828 39.9400024414 -37 callgsubr
          32.3800048828 39.9400024414 39.9400024414 -32.3800048828 32.3800048828 -54 callgsubr
          hvcurveto
          -59.7100067139 -388.740005493 rmoveto
          -18.3500061035 -322.929992676 rlineto
          153.929992676 hlineto
          -18.3200073242 322.929992676 -35.0599975586 171.130004883 rlineto
          -46.4299926758 hlineto
          endchar
        </CharString>
        <CharString name="f">
          -107 -79 callsubr
          -1.44999694824 -72 callsubr
          endchar
        </CharString>
        <CharString name="fi">
          245 -79 callsubr
          -1.44000244141 -72 callsubr
          361.190002441 -455.119995117 rmoveto
          -60 callsubr
        </CharString>
        <CharString name="five">
          -87 481.820007324 735.070007324 rmoveto
          -10 hlineto
          -29.8999938965 -15.3399963379 -22.3600006104 -20.1000061035 -41.6999969482 hhcurveto
          -258.210006714 -21.0700073242 -81.4799957275 -339.910003662 9 -5.2200012207 155.910003662 59.5800018311 122.300003052 -53.0800018311 -7.80000305176 -121.800003052 rlinecurve
          -10.3999938965 -162.220001221 -209.279998779 -65.3600006104 -84.75 3 -2 -10 rcurveline
          145 -65 313.070007324 68 10.7899932861 245.470001221 7.5299987793 171.61000061 -145.809997559 99.2200012207 -221.479995728 -53.7599945068 29.6499938965 112.529998779 rcurveline
          278.479995728 21.0700073242 rlineto
          endchar
        </CharString>
        <CharString name="fl">
          442 -79 callsubr
          -1.44000244141 -72 callsubr
          586.759994507 -271.240005493 -13 callsubr
          -88.4600067139 -83 callgsubr
          470.279998779 hlineto
          endchar
        </CharString>
        <CharString name="florin">
          -97 502.649993896 615.279998779 rmoveto
          -15.2799987793 -6.2799987793 -48.8899993896 -8.86000061035 -36.3200073242 -0.179992675781 rrcurveto
          -344.960006714 -8.74000549316 11.5500030518 hlineto
          28.3600006104 23.3099975586 -23.1499938965 -29.6600036621 0.740005493164 hvcurveto
          -508.070007324 vlineto
          -0.210006713867 -91.3600006104 -27.7700042725 -71 -73.0399932861 -36 rrcurveto
          -10 vlineto
          121.899993896 128.130004883 62 164.570007324 hvcurveto
          228.800003052 104.080001831 vlineto
          45.9700012207 -1.44999694824 30.1600036621 -33.2299957275 -44.3600006104 vvcurveto
          -6.41999816895 vlineto
          8.66999816895 14 callsubr
          rlineto
          212.289993286 vlineto
          -8.66999816895 14 callsubr
          rlineto
          -6.41999816895 vlineto
          -44.75 -30.6900024414 -33.4199981689 -46.6499938965 -0.889999389648 vhcurveto
          -102.86000061 242.419998169 130.619995117 hlineto
          58.9199981689 -0.839996337891 34.1900024414 -36.8000030518 -57.6499938965 vvcurveto
          -9.32000732422 8.66999816895 vlineto
          endchar
        </CharString>
        <CharString name="four">
          -22 560.479995728 212.330001831 rmoveto
          27.0700073242 117.5 rlineto
          -10 hlineto
          -20.8099975586 -12 -11.8800048828 -11.3300018311 -36.8399963379 hhcurveto
          -43.5099945068 416.309997559 -9.36000061035 hlineto
          -457.350006104 -491.669998169 rlineto
          -10 316.720001221 -150.470001221 vlineto
          -29.9100036621 -1.11999511719 -24.6100006104 -21.9499969482 -29.4499969482 hhcurveto
          -10.8999938965 hlineto
          -31 callgsubr
          -10 rlineto
          282.460006714 hlineto
          -31 callgsubr
          10 rlineto
          -10.8999938965 hlineto
          -29.7200012207 -25.1300048828 23.6699981689 29.7100067139 -0.350006103516 hvcurveto
          148.960006714 vlineto
          -334.699996948 85.3600006104 rmoveto
          184.699996948 197.270004272 rlineto
          -197.270004272 vlineto
          endchar
        </CharString>
        <CharString name="fraction">
          -64 498.350006104 -49 callgsubr
          endchar
        </CharString>
        <CharString name="g">
          89 663.789993286 238.300003052 -88 callgsubr
        </CharString>
        <CharString name="gbreve">
          89 483.759994507 811.350006104 -85 callgsubr
          168.380004883 -573.050003052 -88 callgsubr
        </CharString>
        <CharString name="gcommaaccent">
          89 663.779998779 238.300003052 rmoveto
          25.3399963379 15.6699981689 14.1000061035 28.0800018311 vhcurveto
          12.7100067139 8.74000549316 -257.399993896 -8.75 14.2299957275 hlineto
          27.4100036621 0.0200042724609 16.75 -14.1300048828 -0.119995117188 -25.1999969482 -1.25 -120.589996338 rcurveline
          -61.3200073242 -18.5 -61.0099945068 -30 -63.0599975586 hhcurveto
          -123.38999939 -67.2599945068 102.300003052 166.25 176.339996338 73.5899963379 102.020004272 140.11000061 95.7100067139 80.3399963379 -38.2700042725 -126.740005493 33.8800048828 hvcurveto
          7.69999694824 158.869995117 hlineto
          27.5299987793 -56.1300048828 -99.4900054932 17.9199981689 -92.3300018311 hhcurveto
          -208.800003052 -126.979995728 -117.13999939 -194.630004883 -196.289993286 129.949996948 -116.679992676 199.869995117 -1 hvcurveto
          141.059997559 116.580001831 62.7400054932 54.6799926758 42.1000061035 hvcurveto
          -340.059997559 -351.419998169 0 callgsubr
          -69 callsubr
          -11.9700012207 -9 callsubr
        </CharString>
        <CharString name="gdotaccent">
          89 369.61000061 671.479995728 -94 callsubr
          294.179992676 -433.179992676 -88 callgsubr
        </CharString>
        <CharString name="germandbls">
          388 231.38999939 415.580001831 -95 callgsubr
          356.699996948 97.1900024414 -96 callsubr
          -56.1199951172 -95.3000030518 -8.4700012207 hvcurveto
          -7.5299987793 -68.4700012207 -51 callgsubr
          142.419998169 -90.1300048828 -86 callsubr
          28.7700042725 69.3899993896 -22.3200073242 86.1999969482 hhcurveto
          139.070007324 89.7700042725 68.1300048828 113.119995117 6.16000366211 hvcurveto
          4.50999450684 71.2700042725 -35.7599945068 47.5 -51.0299987793 31.3699951172 rrcurveto
          endchar
        </CharString>
        <CharString name="grave">
          -105 272.410003662 751.149993896 -83 callsubr
          -35.5200042725 -91 callgsubr
          endchar
        </CharString>
        <CharString name="greater">
          -160 40 525.070007324 -10 callsubr
          -61.9600067139 7 callgsubr
          endchar
        </CharString>
        <CharString name="greaterequal">
          -88 40 587.429992676 -10 callsubr
          -61.9700012207 7 callgsubr
          -401.720001221 -361.679992676 rmoveto
          -44 callsubr
          endchar
        </CharString>
        <CharString name="guillemotleft">
          -135 245.160003662 489.710006714 -40 callsubr
          398.270004272 197.960006714 -40 callsubr
          endchar
        </CharString>
        <CharString name="guillemotright">
          -135 69 88.5 -39 callgsubr
          -12.0500030518 -203.259994507 -39 callgsubr
          endchar
        </CharString>
        <CharString name="guilsinglleft">
          -328 245.160003662 489.710006714 -40 callsubr
          endchar
        </CharString>
        <CharString name="guilsinglright">
          -328 69 88.5 -39 callgsubr
          endchar
        </CharString>
        <CharString name="h">
          109 -23 callgsubr
          -218.300003052 -263.36000061 218.880004883 -36 callsubr
          -473.88999939 vlineto
          -30.1399993896 -0.240005493164 -24.6999969482 -22.9100036621 -24 callgsubr
          -26 callgsubr
          -216.419998169 -2 callsubr
          -30.0099945068 -19 callsubr
          474.699996948 -8 callgsubr
          endchar
        </CharString>
        <CharString name="hbar">
          110 -23 callgsubr
          -77.7400054932 -263.36000061 78.3300018311 -36 callsubr
          -77.7400054932 -62.0099945068 -39.1100006104 62.0299987793 -357.070007324 vlineto
          -30.1300048828 -0.270004272461 -24.6900024414 -22.8899993896 -29.4100036621 -26 callgsubr
          -216.429992676 -2 callsubr
          -30 -19 callsubr
          357.850006104 65.0700073242 39.1100006104 -65.0700073242 77.7400054932 -8 callgsubr
          -198.570007324 -271.419998169 rmoveto
          -263.36000061 101.449996948 263.36000061 hlineto
          endchar
        </CharString>
        <CharString name="hungarumlaut">
          -41 168.559997559 746.11000061 -75 callsubr
          -22.9499969482 -46 callsubr
          -58.3200073242 -29 callgsubr
          endchar
        </CharString>
        <CharString name="hyphen">
          -25 callsubr
        </CharString>
        <CharString name="i">
          -289 318.259994507 hmoveto
          -60 callsubr
        </CharString>
        <CharString name="iacute">
          -301 158.63999939 662.470001221 -103 callgsubr
          154.839996338 -669.470001221 rmoveto
          -94 callgsubr
        </CharString>
        <CharString name="icircumflex">
          -301 162.539993286 815.550003052 rmoveto
          11.1600036621 -89 callsubr
          288.149993896 -662.38999939 rmoveto
          -94 callgsubr
        </CharString>
        <CharString name="idieresis">
          -301 50.1100006104 659.169998169 rmoveto
          33.1900024414 26.8999938965 26.8999938965 33.1900024414 33.1900024414 -26.8999938965 26.8999938965 -33.1900024414 -33.1900024414 -26.9199981689 -26.8999938965 -33.1900024414 -33.1900024414 26.9199981689 -26.8999938965 33.1900024414 hvcurveto
          233.440002441 hmoveto
          -107 callsubr
          22.9299926758 -659.169998169 rmoveto
          -94 callgsubr
        </CharString>
        <CharString name="igrave">
          -301 188.070007324 671.25 -83 callsubr
          -35.5200042725 -18 -19.7200012207 -27.0700073242 -13 -36.1399993896 59.9700012207 -37.8399963379 79.5299987793 -36.6600036621 65.5700073242 -15.4400024414 rrcurveto
          125.399993896 -664.25 rmoveto
          -94 callgsubr
        </CharString>
        <CharString name="ij">
          51 318.259994507 hmoveto
          10 -11.8399963379 vlineto
          -31.7700042725 -25.4700012207 22.8000030518 30.0299987793 -1.0299987793 hvcurveto
          474.830001831 vlineto
          29.8200073242 1.25999450684 25.3899993896 22.5800018311 31.6199951172 hhcurveto
          11.5500030518 10 -283.539993286 -10 11.8399963379 hlineto
          31.2599945068 26.1499938965 -71 callsubr
          0.259994506836 hvcurveto
          -473.839996338 vlineto
          -30.1600036621 -0.259994506836 -26.1399993896 -22.9299926758 -31.25 hhcurveto
          -11.8399963379 -10 hlineto
          348.779998779 -33 callgsubr
          -76.9299926758 -33 vhcurveto
          -9 vlineto
          126.190002441 -33 callsubr
        </CharString>
        <CharString name="imacron">
          -301 34.6600036621 695.660003662 -64 callgsubr
          271.809997559 -761.020004272 rmoveto
          -94 callgsubr
        </CharString>
        <CharString name="infinity">
          -24 316.270004272 251.770004272 rmoveto
          -48.0299987793 32.3500061035 57.5500030518 -45.2799987793 65.1300048828 hhcurveto
          72.9400024414 55.9799957275 60.1000061035 78.1199951172 12 callsubr
          78.5 -0.960006713867 -55.9100036621 60.3399963379 -71.1000061035 hhcurveto
          -58.6499938965 -58.0200042725 -43.9100036621 -47.8899993896 -37.6799926758 hvcurveto
          48.8200073242 -38.9499969482 -57.6699981689 42.9799957275 -58.4400024414 hhcurveto
          -71.1000061035 -55.9100036621 -60.3399963379 -78.5 -0.960006713867 hvcurveto
          -78.1199951172 -0.949996948242 55.9799957275 -60.1000061035 72.9400024414 hhcurveto
          63.3899993896 57.8300018311 43.1300048828 50.1799926758 33.1499938965 hvcurveto
          -154.369995117 -38.1699981689 rmoveto
          -37.4600067139 -33.3600006104 37.5399932861 45.4700012207 45.9499969482 33.3699951172 37.8200073242 37.4499969482 47.3699951172 41.6900024414 -42.2799987793 -40.7100067139 31.0599975586 hvcurveto
          -41.4299926758 -27.9499969482 -44.7100067139 -42.3500061035 -47.4700012207 hhcurveto
          309.410003662 hmoveto
          -47.6100006104 -42.5500030518 39.1600036621 44.6199951172 -29.9700012207 hvcurveto
          37.9799957275 29.0599975586 43.8099975586 45.0099945068 47.2599945068 hhcurveto
          37.4499969482 33.3699951172 -37.8200073242 -45.9499969482 -45.4700012207 -33.3600006104 -37.5399932861 -37.4600067139 hvcurveto
          endchar
        </CharString>
        <CharString name="integral">
          -79 181.690002441 -63 rmoveto
          -3.17999267578 -60 -10.0800018311 -17 -18.1900024414 -1 -27.8600006104 -1 1.69000244141 33 -18.7700042725 23 -18.6999969482 24 -37.5800018311 8 -26.8399963379 -28 -24.1600036621 -25 10.6199951172 -35 19.9799957275 -19 34.6100006104 -32 67.4600067139 -2 36.2799987793 4 90.8000030518 9 70.2400054932 65 10.1000061035 143.350006104 3.58999633789 46.6000061035 15.1600036621 290.300003052 16.8399963379 300.710006714 rrcurveto
          3.17999267578 64.1399993896 13.1000061035 13.0700073242 17 0.649993896484 27.2200012207 1.21000671387 -2.75 -32.4600067139 19.8699951172 -22.6799926758 18.0899963379 -21.2799987793 37.5200042725 -11.1399993896 27.5200042725 26.3200073242 24.7299957275 23.5399932861 -5.11999511719 36 -26.0500030518 21.6799926758 -39.4600067139 33.0700073242 -77.1699981689 -1.71000671387 -22.9199981689 -2.38999938965 -87.1600036621 -9 -76.9199981689 -72 -7.66999816895 -136.350006104 rrcurveto
          endchar
        </CharString>
        <CharString name="iogonek">
          -301 307.240005493 hmoveto
          9.39999389648 vlineto
          -10.8800048828 -0.660003662109 rlineto
          -29.0899963379 -23.2700042725 24.0899963379 30.0899963379 -0.940002441406 hvcurveto
          474.539993286 vlineto
          29.9299926758 1.10000610352 23.1999969482 23.9199981689 28.9900054932 hhcurveto
          10.2200012207 hlineto
          0.710006713867 8.74000549316 rlineto
          -272.080001831 -8.74000549316 10.8800048828 hlineto
          28.4900054932 23.9700012207 -24.1999969482 -30.1799926758 4 callsubr
          hvcurveto
          -473.929992676 vlineto
          -30.1300048828 -0.229995727539 -23.9400024414 -24.1399993896 -28.4600067139 hhcurveto
          -10.8800048828 0.660003662109 rlineto
          -9.39999389648 129.449996948 vlineto
          -43.4600067139 -9 -38.6499938965 -29 -4.75 -51 -34 callgsubr
          17.3600006104 115 -6 6 rcurveline
          6 callsubr
          -2.33000183105 35 15.6900024414 30 54.0700073242 13 rrcurveto
          endchar
        </CharString>
        <CharString name="j">
          -301 30.7799987793 -33 callgsubr
          -77.1399993896 -33 vhcurveto
          -9 vlineto
          126.410003662 -33 callsubr
        </CharString>
        <CharString name="k">
          -19 callgsubr
          29.5399932861 -79 callgsubr
          endchar
        </CharString>
        <CharString name="kcommaaccent">
          -19 callgsubr
          29.5299987793 -79 callgsubr
          -277.869995117 -315.130004883 -12 callsubr
          -73 callgsubr
        </CharString>
        <CharString name="l">
          -93 543.820007324 183.88999939 -13 callsubr
          -88.4700012207 -83 callgsubr
          470.289993286 hlineto
          endchar
        </CharString>
        <CharString name="lacute">
          -93 164.089996338 662.169998169 -98 callsubr
          386.740005493 -485.279998779 -13 callsubr
          -88.4700012207 -83 callgsubr
          470.289993286 hlineto
          endchar
        </CharString>
        <CharString name="lcaron">
          -93 379.169998169 417.089996338 -55 callgsubr
          167.080001831 -241.259994507 -63 callgsubr
          endchar
        </CharString>
        <CharString name="lcommaaccent">
          -93 543.820007324 183.88999939 -13 callsubr
          -88.4700012207 -83 callgsubr
          470.289993286 hlineto
          -256.880004883 -248 -12 callsubr
          -73 callgsubr
        </CharString>
        <CharString name="ldot">
          -93 543.820007324 183.88999939 -63 callgsubr
          -117.809997559 323.880004883 -14 callsubr
          27.9499969482 -4 callgsubr
          -27.9400024414 -27.9499969482 -9 callgsubr
        </CharString>
        <CharString name="less">
          -148 441.720001221 525.070007324 -11 callgsubr
          61.9600067139 -2 callgsubr
          endchar
        </CharString>
        <CharString name="lessequal">
          -148 441.720001221 587.429992676 -11 callgsubr
          61.9700012207 -2 callgsubr
          -401.720001221 -488.279998779 rmoveto
          -44 callsubr
          endchar
        </CharString>
        <CharString name="logicalnot">
          -41 561.720001221 403.300003052 rmoveto
          -521.720001221 -30 callgsubr
          464.580001831 -151.589996338 57.1399993896 151.589996338 hlineto
          endchar
        </CharString>
        <CharString name="lozenge">
          -124 474.899993896 349.789993286 rmoveto
          -221.820007324 -363.789993286 -209.149993896 363.789993286 209.149993896 364.210006714 rlineto
          -151.88999939 -364.199996948 rmoveto
          152.419998169 -270.779998779 164.029998779 270.779998779 -164.029998779 270.800003052 rlineto
          endchar
        </CharString>
        <CharString name="lslash">
          -67 543.820007324 183.88999939 -13 callsubr
          -88.4600067139 -57.6100006104 -54.3899993896 -84.4900054932 -0.850006103516 rrcurveto
          -120.440002441 286.529998779 hlineto
          125.679992676 68.3899993896 -21.6999969482 37.3300018311 -103.979995728 -56.5200042725 rlineto
          161.039993286 vlineto
          30.1699981689 0.869995117188 24.2799987793 22.9299926758 30.3399963379 hhcurveto
          11.3000030518 10 -277.229995728 -10 11.3000030518 hlineto
          29.6999969482 24.9199981689 -71 callsubr
          0.220001220703 hvcurveto
          -239.38999939 vlineto
          -76.2799987793 -41.4700012207 21.3099975586 -37.7200012207 54.9900054932 29.9199981689 rlineto
          -186 vlineto
          -29.7599945068 -0.660003662109 -24.0599975586 -22.5099945068 -24 callgsubr
          hhcurveto
          -11.9799957275 -10 470.279998779 hlineto
          endchar
        </CharString>
        <CharString name="m">
          -48 callgsubr
          -27.1399993896 -64 callsubr
        </CharString>
        <CharString name="macron">
          -41 158 702.940002441 -64 callgsubr
          endchar
        </CharString>
        <CharString name="minus">
          -160 40 281.179992676 rmoveto
          -44 callsubr
          endchar
        </CharString>
        <CharString name="mu">
          -48 callgsubr
          -27.1499938965 -64 callsubr
        </CharString>
        <CharString name="multiply">
          -230 368.399993896 431.580001831 rmoveto
          -40.4100036621 40.4100036621 12 callgsubr
          121.830001831 -40.4100036621 -40.4100036621 121.830001831 12 callgsubr
          40.4100036621 -40.4100036621 121.830001831 121.830001831 121.830001831 -121.830001831 40.4100036621 40.4100036621 -121.830001831 121.830001831 rlineto
          endchar
        </CharString>
        <CharString name="n">
          138 478.029998779 599.979995728 -98 callgsubr
          endchar
        </CharString>
        <CharString name="nacute">
          138 361.970001221 662.169998169 -98 callsubr
          123.059997559 -69.1900024414 -98 callgsubr
          endchar
        </CharString>
        <CharString name="ncaron">
          138 378.410003662 664.039993286 -93 callgsubr
          -38.7899932861 -217.229995728 -98 callgsubr
          endchar
        </CharString>
        <CharString name="ncommaaccent">
          138 478.029998779 599.979995728 -98 callgsubr
          -371.779998779 -847.979995728 -12 callsubr
          -73 callgsubr
        </CharString>
        <CharString name="nine">
          -12 372.149993896 350.779998779 rmoveto
          -20.5500030518 -20.1699981689 -33.9199981689 -13.6799926758 -34.0700073242 7 -51.6100006104 6.38999938965 -31.0599975586 47.0399932861 -0.729995727539 107.320007324 -0.740005493164 94.5399932861 25.3300018311 83.9600067139 82.2700042725 -0.0200042724609 85.1300048828 0.0200042724609 21.7200012207 -90.4600067139 0.179992675781 -164.539993286 -0.179992675781 -212.25 -37.6499938965 -152.289993286 -246.940002441 -74.6399993896 3.63999938965 -7 rcurveline
          302.050003052 -17 144.960006714 201.679992676 251.210006714 vvcurveto
          211.710006714 -101.330001831 104.380004883 -173.199996948 -2.58999633789 vhcurveto
          -168.949996948 -2.61999511719 -89.4199981689 -99.5200042725 -0.820007324219 -136.759994507 -2.30999755859 -242.740005493 261.770004272 -13.5099945068 73.0099945068 126.13999939 rrcurveto
          endchar
        </CharString>
        <CharString name="notequal">
          -160 441.720001221 357.820007324 rmoveto
          57.1399993896 -101.36000061 vlineto
          41.1499938965 85.6399993896 -52.0800018311 24.0299987793 -53.0099945068 -109.669998169 rlineto
          -236.419998169 -30 callgsubr
          208.800003052 hlineto
          -56.9700012207 -117.86000061 rlineto
          -151.830001831 -30 callgsubr
          124.210006714 hlineto
          -47.1600036621 -97.5800018311 53.3500061035 -24.0399932861 58.4299926758 121.619995117 rlineto
          212.88999939 57.1399993896 -185.440002441 hlineto
          56.6300048828 117.86000061 rlineto
          endchar
        </CharString>
        <CharString name="ntilde">
          138 551.520004272 789.130004883 -87 callgsubr
          7.75 19 rrcurveto
          -62.0599975586 -189.149993896 -98 callgsubr
          endchar
        </CharString>
        <CharString name="numbersign">
          -67 534.210006714 448.660003662 rmoveto
          48.2100067139 -107.339996338 vlineto
          -10 callgsubr
          -149.789993286 hlineto
          -10 callgsubr
          -112.660003662 -48.2100067139 104.160003662 hlineto
          -32.3699951172 -183.570007324 rlineto
          -115.789993286 -48.2100067139 107.289993286 18 callgsubr
          50.2100067139 17 callgsubr
          149.789993286 18 callgsubr
          50.2200012207 17 callgsubr
          112.710006714 48.2100067139 -104.210006714 17 callsubr
          -82.5800018311 -183.570007324 rmoveto
          -149.789993286 17 callsubr
          149.789993286 hlineto
          endchar
        </CharString>
        <CharString name="o">
          388.369995117 612.740005493 -102 callgsubr
        </CharString>
        <CharString name="oacute">
          378.619995117 662.729995728 -98 callsubr
          16.75 -56.9900054932 -102 callgsubr
        </CharString>
        <CharString name="ocircumflex">
          382.529998779 815.809997559 rmoveto
          11.1499938965 -89 callsubr
          150.059997559 -49.9100036621 -102 callgsubr
        </CharString>
        <CharString name="odieresis">
          270.100006104 659.429992676 -106 callgsubr
          -115.160003662 -46.6900024414 -102 callgsubr
        </CharString>
        <CharString name="oe">
          312 924.330001831 181.820007324 rmoveto
          -26.4900054932 -87.1699981689 -56.2899932861 -54.0399932861 -84.1900024414 -0.880004882812 rrcurveto
          -125.240005493 238.470001221 120.070007324 hlineto
          45.6499938965 -1.25999450684 28.8699951172 -32.4199981689 -47 callsubr
          -43.9600067139 rrcurveto
          -6.80999755859 vlineto
          10.0099945068 -14 callgsubr
          rlineto
          208.339996338 vlineto
          -10.0099945068 -14 callgsubr
          rlineto
          -6.80999755859 vlineto
          -68 callsubr
          -44.25 -29.2299957275 -32.5599975586 -46.2299957275 -0.839996337891 rrcurveto
          -119.13999939 244.059997559 151.470001221 hlineto
          55.9499969482 -1.86999511719 32.1499938965 -35.3600006104 -14 callgsubr
          -55.1499938965 rrcurveto
          -9.4700012207 vlineto
          10.0299987793 -0.130004882812 rlineto
          157.380004883 vlineto
          -16 22 callgsubr
          -49.7299957275 -8.58999633789 -37.1199951172 -0.320007324219 rrcurveto
          -233.699996948 hlineto
          -23.6999969482 -19.4199981689 1.83000183105 2.69000244141 -19.4799957275 hvcurveto
          4.74000549316 -34.1999969482 -31.1199951172 3.55000305176 -32.8399963379 hhcurveto
          -216.520004272 -132.929992676 -116.669998169 -195.570007324 -197.919998169 135.869995117 -116.86000061 206.539993286 47.7100067139 35.1499938965 8 3 36.3099975586 hvcurveto
          2 25.1199951172 13.5599975586 0 10.5399932861 hhcurveto
          350.289993286 hlineto
          38.4299926758 181.820007324 rlineto
          -442.910003662 -99.1900024414 rmoveto
          -27.8699951172 -0.240005493164 -44.3800048828 -28.8000030518 -61.3500061035 hhcurveto
          -120.809997559 -83.0200042725 102.220001221 172.419998169 0.570007324219 hvcurveto
          177.710006714 0.600006103516 85.9600067139 96.9299926758 117.289993286 hhcurveto
          61.8699951172 43.2700042725 -28.1999969482 -28.3000030518 0.240005493164 hvcurveto
          endchar
        </CharString>
        <CharString name="ogonek">
          -41 425.050003052 -107 rmoveto
          6 callsubr
          -2.33999633789 36 15.8999938965 29.6100006104 54.9100036621 12.8899993896 -10 3 rcurveline
          -57.4100036621 3.33999633789 -65.1199951172 -28.8399963379 -6.25999450684 -67 -34 callgsubr
          17.3699951172 115 rrcurveto
          endchar
        </CharString>
        <CharString name="ograve">
          408.059997559 671.509994507 -83 callsubr
          -35.5099945068 -91 callgsubr
          -12.6900024414 -51.7599945068 -102 callgsubr
        </CharString>
        <CharString name="ohungarumlaut">
          290.960006714 666.289993286 -75 callsubr
          -22.9600067139 -46 callsubr
          -58.3099975586 -29 callgsubr
          -69.5299987793 -58.5800018311 -102 callgsubr
        </CharString>
        <CharString name="omacron">
          254.649993896 695.929992676 -64 callgsubr
          133.720001221 -148.539993286 -102 callgsubr
        </CharString>
        <CharString name="one">
          -249 49.2799987793 hmoveto
          -51 callsubr
          10 rlineto
          20.9100036621 hlineto
          30.1399993896 25.0700073242 24.1600036621 29.9900054932 hvcurveto
          514.759994507 vlineto
          44.3399963379 -21.9600067139 16.8000030518 -36.1999969482 vhcurveto
          -25.5899963379 10 hlineto
          53.8300018311 4.58999633789 110.559997559 15.4799957275 58.4100036621 43.9199981689 rrcurveto
          10 -650.550003052 hlineto
          -29.6999969482 25.2700042725 -23.8000030518 29.9199981689 vhcurveto
          20.9100036621 hlineto
          -51 callsubr
          -9.97999572754 rlineto
          endchar
        </CharString>
        <CharString name="onehalf">
          191 576.13999939 -49 callgsubr
          -57.6499938965 300.61000061 -59 callsubr
          262.190002441 -42.7799987793 -36 callgsubr
          -81.0700073242 -60 callgsubr
        </CharString>
        <CharString name="onequarter">
          106 589.880004883 -49 callgsubr
          112.460006714 306.490005493 rmoveto
          -17.6499938965 -14.9100036621 14.0399932861 17.5200042725 hvcurveto
          368.919998169 -5.89999389648 vlineto
          -38.4799957275 -25.3999938965 -79.2200012207 -10.1399993896 -32.1199951172 -2.19999694824 rrcurveto
          -5.89999389648 12.5700073242 vlineto
          22.6100006104 14.2100067139 -9.91000366211 -28.6699981689 hvcurveto
          -286.309997559 vlineto
          -17.6900024414 -14.7899932861 -14.25 -17.7799987793 vhcurveto
          -12.3300018311 -5.89999389648 196.279998779 5.89999389648 hlineto
          465.559997559 -207.050003052 -25 callgsubr
          -5.86000061035 -42 callsubr
          -18.6100006104 -28 callsubr
        </CharString>
        <CharString name="onesuperior">
          -381 38.3500061035 308.149993896 -59 callsubr
          endchar
        </CharString>
        <CharString name="ordfeminine">
          -260 188.080001831 711.300003052 rmoveto
          -4.63000488281 hlineto
          -1.77000427246 -15.8000030518 -20.3099975586 -43.0399932861 -4.33999633789 -9.69000244141 -114.259994507 -233.559997559 rcurveline
          -19.0500030518 -11.0599975586 -16.1000061035 -7.97999572754 -14.5 hhcurveto
          -4.11000061035 -4.91999816895 113.25 4.88000488281 -4.33999633789 hlineto
          -12.75 -15.1600036621 11.1999969482 19.6900024414 9.08000183105 hvcurveto
          20.3500061035 44.3600006104 rlineto
          108.289993286 hlineto
          20.0800018311 -46.1000061035 rlineto
          -18.6100006104 6.88000488281 -14.0599975586 -10.5399932861 -12.3699951172 hhcurveto
          -4.33999633789 -4.88000488281 172.61000061 4.91999816895 -4.13000488281 hlineto
          -14.5099945068 -15.7100067139 8.35000610352 20 -11.6900024414 hvcurveto
          -219.440002441 72.0500030518 rmoveto
          44.0700073242 95.6100006104 41.6399993896 -95.6100006104 rlineto
          endchar
        </CharString>
        <CharString name="ordmasculine">
          -237 202.289993286 711.449996948 rmoveto
          -109.190002441 23 callgsubr
          -65.9299926758 -103.009994507 -102.600006104 69.1699981689 -65.8099975586 109.190002441 109.619995117 69.1699981689 65.8099975586 102.600006104 103.009994507 23 callgsubr
          65.9299926758 -109.619995117 hvcurveto
          -313.600006104 vmoveto
          -53.9299926758 -29.8500061035 56.3800048828 88.2899932861 88.6999969482 29.8500061035 56.3800048828 53.9299926758 54.3600006104 29.4199981689 -56.3800048828 -88.6999969482 -88.2899932861 -24 callgsubr
          -56.3800048828 -54.3600006104 hvcurveto
          endchar
        </CharString>
        <CharString name="oslash">
          666.089996338 607.970001221 19 callgsubr
          -54.6999969482 -65.0500030518 rlineto
          25.9100036621 -53.1600036621 -63.4400024414 13.8600006104 -70.1799926758 hhcurveto
          -211.600006104 -141.949996948 -119.580001831 -193.5 -102.649993896 40.2200012207 -81.8999938965 69.5399932861 -54.1499938965 hvcurveto
          -50.0599975586 -59.5299987793 36.5500030518 -30.4299926758 53.5099945068 63.6399993896 rlineto
          -30.8200073242 55.7700042725 69.1799926758 -16.8200073242 78.8500061035 hhcurveto
          212.229995728 141.960006714 119.820007324 192.839996338 109.559997559 -47.4499969482 85.8600006104 -78.5899963379 53.8800048828 hvcurveto
          -400.270004272 -402.770004272 rmoveto
          -18.2700042725 41.8800048828 -9.9700012207 51.7599945068 59.8300018311 vvcurveto
          169.289993286 79.1600036621 104.490005493 121.199996948 55.3399963379 46.3999938965 -21.5599975586 -39.3899993896 34.1699981689 vhcurveto
          27.5599975586 -40.5399932861 rmoveto
          23.7899932861 -44.8200073242 13.1000061035 -58.3300018311 -69.1399993896 vvcurveto
          -168.630004883 -78.5299987793 -27 callsubr
          -121.830001831 -61.5200042725 -50.6900024414 26.9199981689 48.5599975586 -35 vhcurveto
          endchar
        </CharString>
        <CharString name="otilde">
          568.179992676 789.690002441 -80 callgsubr
          -168.380004883 -176.949996948 -102 callgsubr
        </CharString>
        <CharString name="p">
          -56 34.1900024414 600.039993286 rmoveto
          -10 11.8800048828 vlineto
          30.1199951172 24.0299987793 -22.4600067139 -30.1799926758 0.25 hvcurveto
          -475.020004272 vlineto
          -29.8200073242 -0.570007324219 -23.2899932861 -22.6300048828 -29.8800048828 hhcurveto
          -11.8800048828 -9.94999694824 276.210006714 10 -11.8000030518 hlineto
          -31.4299926758 -22.1100006104 22.8699951172 30.1100006104 -0.919998168945 hvcurveto
          497.740005493 45.5599975586 vlineto
          73.7100067139 44.2599945068 -46.2599945068 -73.0200042725 2.13999938965 hvcurveto
          0.440002441406 -15.1999969482 -2.08000183105 -20.8399963379 -4.13999938965 -16.75 rrcurveto
          -112.419998169 -30.3899993896 -97.7799987793 11.2700042725 -0.0200042724609 hhcurveto
          -8.55000305176 vlineto
          131.300003052 -88.0200042725 161.179992676 84.6600036621 -6.39999389648 158.880004883 rrcurveto
          92.8699951172 -3.2799987793 -68.6600036621 72.7100067139 -160.229995728 hhcurveto
          endchar
        </CharString>
        <CharString name="paragraph">
          -109 515.509994507 742.619995117 rmoveto
          -47.1499938965 -40.9299926758 -32.9900054932 4.7200012207 -21.9499969482 hhcurveto
          -173.320007324 hlineto
          -108.080001831 -0.520004272461 -87 -69.5500030518 -1.22999572754 -112.960006714 rrcurveto
          -114.100006104 -1.24000549316 87 -69.9299926758 110.550003052 hhcurveto
          -333.13999939 vlineto
          2.91999816895 -97 -7.38999938965 -35 -56.2400054932 -58 7 -9 rcurveline
          82.4900054932 38 15.6300048828 84 77 vvcurveto
          658.039993286 83.4600067139 -513.410003662 vlineto
          -65.8699951172 1.75999450684 -34.3000030518 -28.7599945068 -49.4600067139 vhcurveto
          9 -8 rlineto
          39.1199951172 35.4700012207 21.0200042725 47.5899963379 77.0200042725 vvcurveto
          510.970001221 vlineto
          60.0700073242 1.05000305176 35.5800018311 41.1300048828 10.5399932861 36.3999938965 rrcurveto
          endchar
        </CharString>
        <CharString name="parenleft">
          -218 387.520004272 732 rmoveto
          -195.270004272 -32.1100006104 -102.949996948 -163.529998779 0.710006713867 -202.63999939 0.720001220703 -193.820007324 102.440002441 -180.88999939 192.559997559 -59 6 9 rcurveline
          -88.8300018311 62 -60.5899963379 148.669998169 -3.36999511719 215.839996338 -3.11999511719 200.270004272 61.5299987793 142.309997559 96.1699981689 45.8999938965 rrcurveto
          endchar
        </CharString>
        <CharString name="parenright">
          -218 37.7899932861 -100 rmoveto
          192.559997559 59 102.440002441 180.88999939 0.720001220703 193.820007324 0.710006713867 202.63999939 -102.949996948 163.529998779 -195.270004272 32.1100006104 -6 -8 rcurveline
          96.1699981689 -45.8999938965 61.5299987793 -142.309997559 -3.11999511719 -200.270004272 -3.36999511719 -215.839996338 -60.5899963379 -148.669998169 -88.8300018311 -62 rrcurveto
          endchar
        </CharString>
        <CharString name="partialdiff">
          -26 76.2100067139 583.460006714 rmoveto
          70.2799987793 84.2100067139 102.990005493 -11.1100006104 55.2799987793 -27.9100036621 68 -30.2299957275 35.2599945068 -88.4199981689 5.2799987793 -113.059997559 -170.960006714 100.449996948 -145.050003052 -101.759994507 -40.5800018311 -114.740005493 -46.6999969482 -132.300003052 59.3000030518 -175.589996338 215.509994507 13 175.61000061 10 99.2200012207 126.210006714 10.5700073242 210.830001831 10.1600036621 202.779998779 -96.2700042725 160.13999939 -169.300003052 18.6600036621 -104.75 11.6499938965 -93.0500030518 -37.9900054932 -49.8200073242 -97.8099975586 rrcurveto
          346.789993286 -257.419998169 rmoveto
          -8.89999389648 -174.330001831 -52.3800048828 -123.75 -67.8899993896 -6.80999755859 -68.0800018311 -6.77000427246 -37.0399932861 101.449996948 23.6600036621 108.240005493 22.9600067139 104.990005493 59.6300048828 76.3600006104 128.039993286 -50.1399993896 rrcurveto
          endchar
        </CharString>
        <CharString name="percent">
          99 -86 callgsubr
          28.6499938965 -177.520004272 rmoveto
          -69 callgsubr
          endchar
        </CharString>
        <CharString name="period">
          -419 -44 callgsubr
          endchar
        </CharString>
        <CharString name="periodcentered">
          -423 109.289993286 280.710006714 rmoveto
          -37 callgsubr
          32.3800048828 -84 callgsubr
          -32.3800048828 39.9400024414 hvcurveto
          endchar
        </CharString>
        <CharString name="perthousand">
          466 -86 callgsubr
          367.039993286 hmoveto
          -100.600006104 -73.1799926758 -64.0500030518 -106.789993286 -17.1199951172 hvcurveto
          -114.039993286 -18.2100067139 49.6600036621 -68.2200012207 96.7100067139 hhcurveto
          106.220001221 74.3300018311 65.9600067139 110.229995728 13.4600067139 hvcurveto
          110.61000061 13.4900054932 -50.8200073242 66.3099975586 -93.9400024414 hhcurveto
          28.6499938965 -177.520004272 rmoveto
          -69 callgsubr
          -367.039993286 hmoveto
          -69 callgsubr
          endchar
        </CharString>
        <CharString name="pi">
          110 715.589996338 10 rmoveto
          -17 callgsubr
          23.7899932861 29.6799926758 12 callsubr
          473.979995728 -16 callgsubr
          -678.910003662 -16 callsubr
          -471.710006714 vlineto
          -29.9900054932 -5 callsubr
          -24.1300048828 -35 callsubr
          -31 callgsubr
          10 rlineto
          -17 callgsubr
          23.7899932861 29.6900024414 12 callsubr
          441.830001831 -7 callgsubr
          140.949996948 -8 callsubr
          -439.559997559 vlineto
          -29.9900054932 -5 callsubr
          -24.1399993896 -35 callsubr
          endchar
        </CharString>
        <CharString name="plus">
          -160 441.720001221 338.320007324 rmoveto
          -172.289993286 -23 callsubr
          hlineto
          endchar
        </CharString>
        <CharString name="plusminus">
          -160 269.429992676 408.320007324 rmoveto
          -23 callsubr
          57.1399993896 vlineto
          -401.720001221 -354.399993896 rmoveto
          -44 callsubr
          endchar
        </CharString>
        <CharString name="product">
          176 775.589996338 -190 rmoveto
          -17 callgsubr
          24 29 12 callsubr
          774.419998169 -16 callgsubr
          -732.830001831 -16 callsubr
          -771.809997559 vlineto
          -30 -5 callsubr
          -24 -35 callsubr
          -31 callgsubr
          10 rlineto
          -17 callgsubr
          24 29 12 callsubr
          742.279998779 -7 callgsubr
          194.880004883 -8 callsubr
          -739.660003662 vlineto
          -30 -5 callsubr
          -24 -35 callsubr
          endchar
        </CharString>
        <CharString name="q">
          125 1158.69999695 -60 rmoveto
          -92.2299957275 -74 -140.11000061 -5 -158.63999939 60 -113.919998169 43 -64.7100067139 25 -81.2299957275 15.6699981689 rrcurveto
          134.25 39.7599945068 82.9199981689 105.550003052 149.669998169 vvcurveto
          193.5 -137.649993896 119.580001831 -207.729995728 -207.080001831 -137.649993896 -119.580001831 -193.5 -192.839996338 137.649993896 -119.820007324 207.080001831 vhcurveto
          3.46000671387 hlineto
          104.830001831 -10 90.9900054932 -97 127.550003052 -67 255.910003662 -133 195.990005493 108 5.44000244141 149 rrcurveto
          -975.289993286 362.660003662 rmoveto
          169.289993286 74.5200042725 104.490005493 116.619995117 117.270004272 74.5200042725 -27 callsubr
          -169.289993286 -168.630004883 -74.5200042725 -27 callsubr
          -117.270004272 -116.619995117 -74.5200042725 104.490005493 168.630004883 vhcurveto
          endchar
        </CharString>
        <CharString name="question">
          -180 5 callgsubr
          518.089996338 rmoveto
          10 hlineto
          102.570007324 -0.789993286133 41.6900024414 51.2100067139 68.1199951172 hhcurveto
          64.6199951172 37.4499969482 -46.0700073242 -80.4600067139 0.610000610352 hvcurveto
          1.2200012207 -125.779998779 -107.679992676 -21.7599945068 -5.4700012207 -87.6499938965 -4.25 -53.1900024414 33.5700073242 -38.0099945068 49.0399932861 -21.6499938965 7.83000183105 5.58999633789 rcurveline
          -28 47.9799957275 26.5700073242 27.7899932861 28.4299926758 30.9499969482 rrcurveto
          71.4299926758 81.3300018311 87.3099975586 45.8399963379 103.089996338 vvcurveto
          109.619995117 -80.8200073242 64.5099945068 -142.990005493 -92 -70.0399932861 -35.4700012207 -53.5800018311 -30.1399993896 vhcurveto
          200.210006714 -634.949996948 rmoveto
          39.5099945068 21 callgsubr
          32.1300048828 15 callgsubr
          -51 callsubr
          hvcurveto
          15 callgsubr
          -31 callgsubr
          22 callsubr
          21 callgsubr
          -39.5099945068 hhcurveto
          16 callsubr
          -32.8099975586 22 callsubr
          16 callsubr
          -51 callsubr
          hvcurveto
          16 callsubr
          -31 callgsubr
          32.8099975586 -32.1300048828 15 callgsubr
          hhcurveto
          endchar
        </CharString>
        <CharString name="questiondown">
          -154 253.630004883 710.070007324 rmoveto
          -39.5099945068 22 callsubr
          22 callsubr
          16 callsubr
          -31 callgsubr
          hvcurveto
          16 callsubr
          -51 callsubr
          21 callgsubr
          22 callsubr
          39.5099945068 hhcurveto
          15 callgsubr
          32.8099975586 21 callgsubr
          15 callgsubr
          -31 callgsubr
          hvcurveto
          15 callgsubr
          -51 callsubr
          -32.8099975586 21 callgsubr
          16 callsubr
          hhcurveto
          165.919998169 -528.160003662 rmoveto
          -10 hlineto
          -102.570007324 0.789993286133 -41.6900024414 -51.2100067139 -68.1199951172 hhcurveto
          -64.6199951172 -37.4499969482 46.0700073242 80.4499969482 -0.610000610352 hvcurveto
          -1.21000671387 125.779998779 107.679992676 21.7599945068 5.46000671387 87.6499938965 4.25 53.1900024414 -33.5700073242 38.0099945068 -49.0399932861 21.6499938965 -7.83000183105 -5.58999633789 rcurveline
          28 -47.9799957275 -26.5700073242 -27.7899932861 -28.4299926758 -30.9499969482 rrcurveto
          -71.4299926758 -81.3300018311 -87.3099975586 -45.8399963379 -103.089996338 vvcurveto
          -109.619995117 80.8200073242 -64.5099945068 142.990005493 92 70.0399932861 35.4700012207 53.5700073242 30.1399993896 vhcurveto
          endchar
        </CharString>
        <CharString name="quotedbl">
          -279 51.6600036621 500 rmoveto
          95.8899993896 35.3399963379 23.9900054932 127.119995117 -2.58000183105 51.5399932861 -107.149993896 -14 rcurveline
          8.2799987793 -72.6699981689 -3.7799987793 -34.4199981689 -28.4499969482 -87.6699981689 rrcurveto
          170.309997559 -5.25 -35 callgsubr
        </CharString>
        <CharString name="quotedblbase">
          -193 46.3999938965 -131 -50 callsubr
          201.320007324 -13 -50 callsubr
          endchar
        </CharString>
        <CharString name="quotedblleft">
          -187 200.059997559 819.460006714 -41 callgsubr
          68.1600036621 -55 callsubr
          49.3200073242 18.8099975586 rrcurveto
          197.75 12.0899963379 -41 callgsubr
          68.1499938965 -55 callsubr
          49.3300018311 18.8099975586 rrcurveto
          endchar
        </CharString>
        <CharString name="quotedblright">
          -206 242.679992676 563.509994507 -72 callgsubr
          -191.240005493 -11.5099945068 -72 callgsubr
          endchar
        </CharString>
        <CharString name="quoteleft">
          -394 200.059997559 819.460006714 -41 callgsubr
          68.1600036621 -55 callsubr
          49.3300018311 18.8099975586 rrcurveto
          endchar
        </CharString>
        <CharString name="quoteright">
          -400 48.0399932861 563.509994507 -72 callgsubr
          endchar
        </CharString>
        <CharString name="quotesinglbase">
          -394 47.4199981689 -124 rmoveto
          107.179992676 -14 88.25 123 -49.4400024414 110.839996338 -23.6699981689 53.4100036621 -68.1499938965 11.7799987793 -35.2299957275 -34 -30.6000061035 -29.2200012207 4.77000427246 -53.2799987793 29.4100036621 -33.6499938965 42.3699951172 -48.8800048828 -19.1300048828 -55 -49.3300018311 -19 rrcurveto
          endchar
        </CharString>
        <CharString name="quotesingle">
          -441 45.7700042725 500 -35 callgsubr
        </CharString>
        <CharString name="r">
          16 41 600.039993286 rmoveto
          -10.0399932861 12.5899963379 vlineto
          28.8000030518 23.3200073242 -22.0099945068 -29.9499969482 0.509994506836 hvcurveto
          -475.919998169 vlineto
          -29.7700042725 -0.699996948242 -23.8399963379 -22.3600006104 -28.6900024414 hhcurveto
          -11.9799957275 -10 275.309997559 10 -10.8699951172 hlineto
          -26.5800018311 -27.6300048828 19.7899932861 33.25 -31 callgsubr
          hvcurveto
          495.669998169 vlineto
          11.3999938965 -0.449996948242 19.9900054932 1.24000549316 25.7799987793 -1.21000671387 34.6499938965 -1.60000610352 67.1699981689 -14.2599945068 4.4700012207 -98.6399993896 0.850006103516 -19.5399932861 -2.33000183105 -14.3500061035 -1.88000488281 -7.94000244141 -16.7299957275 -84.0200042725 -45.7299957275 -15.4400024414 -41.4299926758 -0.550003051758 rrcurveto
          -25.6000061035 -8.38000488281 hlineto
          18.4299926758 -1.49000549316 24.75 -17.9299926758 16.7100067139 -41.8600006104 9.14999389648 -33.6100006104 35.8300018311 -67.0899963379 22.0500030518 -35.6999969482 rrcurveto
          -74.9199981689 47.5399932861 51.1499938965 -20.9799957275 108.61000061 hhcurveto
          83.8399963379 10.0200042725 hlineto
          -41.2200012207 0.179992675781 -22.5299987793 14.7700042725 -39.0599975586 53.1399993896 -35.0599975586 46.7400054932 -29.1199951172 49.5200042725 -8.44000244141 15.1799926758 -18.7400054932 30.75 -38.1699981689 42.2899932861 -39.6100006104 12.0599975586 rrcurveto
          98.4700012207 14.1900024414 40.3999938965 77.0200042725 70.3500061035 vvcurveto
          124.690002441 -107.449996948 39.1100006104 -110.839996338 vhcurveto
          endchar
        </CharString>
        <CharString name="racute">
          16 311.619995117 662.339996338 -98 callsubr
          -263.580001831 -69.3000030518 -100 callsubr
          endchar
        </CharString>
        <CharString name="radical">
          -49 23.7899932861 387.100006104 rmoveto
          69.5599975586 13.7100067139 167.809997559 -547.809997559 319.740005493 988.179992676 -45.1799926758 2 -230.050003052 -698.699996948 -94.3800048828 329.529998779 -197.369995117 -43.5599975586 rlineto
          endchar
        </CharString>
        <CharString name="rcaron">
          16 328.059997559 664.220001221 -93 callgsubr
          -425.429992676 -217.339996338 -100 callsubr
          endchar
        </CharString>
        <CharString name="rcommaaccent">
          16 41 600.039993286 -100 callsubr
          2.69000244141 -848.039993286 0 callgsubr
          -73 callgsubr
        </CharString>
        <CharString name="registered">
          -396 122.86000061 700.86000061 rmoveto
          -62.3300018311 -50.5299987793 -50.5299987793 -62.3300018311 -62.3300018311 50.5299987793 -50.5299987793 62.3300018311 62.3300018311 50.5299987793 50.5299987793 62.3300018311 62.3300018311 -50.5299987793 50.5299987793 -62.3300018311 hvcurveto
          -203.529998779 vmoveto
          -51.2799987793 -39.3800048828 2 callsubr
          2 callsubr
          -39.3800048828 -51.2799987793 -51.2799987793 -39.3800048828 -39.3800048828 -51.2799987793 hvcurveto
          -58.3399963379 153.149993896 rmoveto
          -2 2.5299987793 vlineto
          5.99000549316 4.52000427246 -4.49000549316 -5.94000244141 0.179992675781 hvcurveto
          -94.9299926758 vlineto
          -5.88000488281 -0.240005493164 -4.49000549316 -4.69000244141 -5.94000244141 hhcurveto
          -2.5299987793 -2 54.5399932861 2 -2.5299987793 hlineto
          -6.0299987793 -4.53999328613 4.83000183105 6 -14 callgsubr
          hvcurveto
          97.9100036621 vlineto
          10.8000030518 -0.199996948242 15.75 0.179992675781 6.13999938965 -8.88000488281 0.479995727539 -12.9700012207 rlinecurve
          -51 callsubr
          -3.77000427246 14 callsubr
          -5.41999816895 -0.679992675781 -2.85000610352 -3.38999938965 -13.5700073242 -8.41999816895 -2.63000488281 -3.92999267578 -0.279998779297 rrcurveto
          -10.5599975586 -1.85000610352 hlineto
          3.69000244141 2.89999389648 -6.7200012207 -6.75999450684 3.41999816895 hvcurveto
          -20.1999969482 10.1600036621 7.05000305176 -24.7400054932 33.8399963379 hhcurveto
          16.9299926758 2 hlineto
          -11.8899993896 3.92999267578 -6.08000183105 10.8800048828 -2.80000305176 4.28999328613 -7.74000549316 11.8600006104 -12.7799987793 19.7100067139 -8.82000732422 1.97999572754 rrcurveto
          17.0200042725 1.80000305176 12.7200012207 11.1300048828 19.9900054932 vvcurveto
          20.1900024414 -19.0800018311 12.1799926758 -23.6000061035 vhcurveto
          endchar
        </CharString>
        <CharString name="ring">
          -41 301.190002441 865.830001831 -74 callsubr
          -21.5899963379 23.3000030518 34.8999938965 -31 callsubr
          endchar
        </CharString>
        <CharString name="s">
          -127 231.38999939 -65 callsubr
          142.410003662 -90.1399993896 -89 callgsubr
          endchar
        </CharString>
        <CharString name="sacute">
          -127 255.080001831 662.169998169 -103 callgsubr
          -16.6900024414 -253.589996338 -95 callgsubr
          endchar
        </CharString>
        <CharString name="scaron">
          -127 271.520004272 664.039993286 -93 callgsubr
          -178.539993286 -401.619995117 -88 callsubr
          142.419998169 -90.1300048828 -89 callgsubr
          endchar
        </CharString>
        <CharString name="scedilla">
          -165 220.350006104 -65 callsubr
          142.419998169 -90.1399993896 -93 callsubr
          27.4900054932 -29.7100067139 64.5800018311 -21.7100067139 80.8899993896 -2 -45.8800048828 -59 rcurveline
          -34 callsubr
          -9 -2.5299987793 -42 rlinecurve
          -52 -3.39999389648 -53.5500030518 -19 -41.4499969482 hhcurveto
          -0.729995727539 -10 76.7799987793 -26 89.8800048828 39 3.11999511719 67 rlinecurve
          2.99000549316 -3 callgsubr
          40.6600036621 47 rcurveline
          117.38999939 11.3399963379 74.2599945068 65.3899993896 5.58999633789 102.520004272 4.50999450684 71.2700042725 -35.7599945068 47.5 -51.0299987793 31.3699951172 rrcurveto
          endchar
        </CharString>
        <CharString name="scommaaccent">
          -127 231.38999939 415.580001831 -95 callgsubr
          -177.770004272 -565.38999939 0 callgsubr
          -69 callsubr
          -11.9799957275 -9 callsubr
        </CharString>
        <CharString name="section">
          -115 310.089996338 712.86000061 rmoveto
          -219.869995117 -10.1799926758 -174.210006714 -304.830001831 242.339996338 -237.880004883 134.589996338 -131.520004272 66.3500061035 -76.4400024414 -55.9400024414 -43 -79.1699981689 -60 -87.3800048828 194.830001831 -59.4499969482 -84.8300018311 -42.0099945068 -54 76.6499938965 -69 117.699996948 8 244.149993896 11 117.779998779 301.619995117 -225.869995117 246.809997559 -99.3200073242 104.410003662 -94.3999938965 97.1600036621 61.8300018311 45.5299987793 79 58.1300048828 75.4499969482 -188.479995728 59.7899932861 80.2799987793 rrcurveto
          40.3300018311 49.4100036621 -62.1100006104 70.9299926758 -116.229995728 -7.94999694824 rrcurveto
          -167.119995117 -129.940002441 rmoveto
          -3.55999755859 -108.229995728 32.6600036621 -48.2899932861 113.270004272 -116.070007324 113.520004272 -115.410003662 46.0299987793 -101.919998169 -59.4700012207 -111.990005493 17.8399963379 91.5 -67.3699951172 85.7200012207 -98.5599975586 95.2400054932 -115.309997559 110.910003662 -38.0800018311 94.6100006104 59.0200042725 123.929992676 rrcurveto
          endchar
        </CharString>
        <CharString name="semicolon">
          -248 111.25 401.160003662 rmoveto
          -37 callgsubr
          32.3800048828 -84 callgsubr
          -32.3800048828 39.9400024414 hvcurveto
          -65.5099945068 -514.160003662 -50 callgsubr
        </CharString>
        <CharString name="seven">
          -97 45 698.130004883 rmoveto
          478.289993286 hlineto
          -119.759994507 -291.88999939 -35.1499938965 -85.2299957275 -75.1799926758 -223.449996948 -25.7599945068 -97.5500030518 rlinecurve
          -130.710006714 hlineto
          53.5099945068 100.339996338 108.529998779 215.690002441 42.1699981689 98.0200042725 66.1600036621 158.089996338 rcurveline
          -305.350006104 hlineto
          -39.9799957275 -20.2200012207 -20.3399963379 -39.6600036621 -14.7599945068 hvcurveto
          -10 hlineto
          endchar
        </CharString>
        <CharString name="six">
          -12 257.729995728 345.61000061 rmoveto
          20.4299926758 19.9600067139 33.9700012207 14.0800018311 34.3899993896 -7.30999755859 51.4100036621 -7.05000305176 31.4299926758 -44.9900054932 0.600006103516 -108.779998779 rrcurveto
          -92.6100006104 0.570007324219 -25.0500030518 -85.6999969482 -82.4700012207 hhcurveto
          -85.3200073242 -21.9600067139 91.9600067139 159.990005493 215.490005493 37.1799926758 148.940002441 247.729995728 77.4199981689 hvcurveto
          -3.64999389648 7.41000366211 -301.570007324 14.5200042725 -144.559997559 -196.679992676 -1.02000427246 -254.339996338 rlinecurve
          -0.899993896484 -210.399993896 103.809997559 -105.520004272 171.919998169 3 173.990005493 3 85.7200012207 109.009994507 -0.479995727539 126.699996948 -0.850006103516 246.160003662 -257.669998169 9.50999450684 -74.2599945068 -125.380004883 rrcurveto
          endchar
        </CharString>
        <CharString name="slash">
          -215 8.78999328613 10.5500030518 rmoveto
          47.6600036621 -24.5500030518 360.940002441 710.5 -48.0800018311 22.9600067139 rlineto
          endchar
        </CharString>
        <CharString name="softhyphen">
          -25 callsubr
        </CharString>
        <CharString name="space">
          -391 endchar
        </CharString>
        <CharString name="sterling">
          -38 579.160003662 195.830001831 rmoveto
          -55.6799926758 -111.759994507 -100.63999939 -32.1399993896 -93.9600067139 8.21000671387 -72.5099945068 6.11999511719 -54.9900054932 17.4900054932 -53.0599975586 -17.9199981689 72.8600006104 30.8000030518 60.8000030518 46.8800048828 1.52000427246 179.169998169 rrcurveto
          163.100006104 hlineto
          17.7299957275 48 rlineto
          -181.720001221 hlineto
          -8.55999755859 180.020004272 12.5899963379 114.619995117 112.580001831 6.5299987793 70.9799957275 3.63000488281 37.9499969482 -42.5800018311 -1.80999755859 -97.7700042725 rrcurveto
          10 hlineto
          39.4900054932 121.559997559 -28.1300048828 35.8999938965 -62.75 27.3899993896 -88.0700073242 -6 rlinecurve
          -197.179992676 -13.7700042725 -55.3500061035 -148.279998779 5.9700012207 -181.270004272 rrcurveto
          -76.9700012207 hlineto
          -15.3000030518 -48 rlineto
          92.6499938965 hlineto
          -3.16999816895 -170.460006714 -51.7700042725 -102.88999939 -34.8699951172 -45.4100036621 rrcurveto
          -9.91999816895 10 vlineto
          10.1600036621 10.7100067139 46.7100067139 17.8899993896 18.1100006104 1.38999938965 63 6.32000732422 49 -26.3200073242 89 -12 53 -7 98.2899932861 9 65.5700073242 30 45.4299926758 171.830001831 rcurveline
          endchar
        </CharString>
        <CharString name="summation">
          -5 601.080001831 109.850006104 rmoveto
          -25.2299957275 -92.6199951172 -61.4299926758 -61.2299957275 -82.0700073242 -5 rrcurveto
          -258.949996948 hlineto
          244.589996338 367.720001221 -196.990005493 339.13999939 rlineto
          241.520004272 hlineto
          61.5200042725 -1.44000244141 38.9600067139 -39.5899963379 -0.119995117188 -61.0700073242 rrcurveto
          -30 callsubr
          vlineto
          10.0899963379 -20 callsubr
          174.350006104 vlineto
          -7.99000549316 -18.9499969482 -59.6199951172 -10.2100067139 -43.3600006104 hhcurveto
          -414.559997559 -10.0099945068 hlineto
          266.649993896 -449.759994507 -272.190002441 -410.240005493 rlineto
          -11 544 vlineto
          36.1900024414 290.850006104 rlineto
          endchar
        </CharString>
        <CharString name="t">
          -42 -13 callgsubr
          -37.4400024414 hhcurveto
          -369.089996338 hlineto
          -37.3099975586 -78 callgsubr
          21 callsubr
          -39 callsubr
          endchar
        </CharString>
        <CharString name="tbar">
          -38 -13 callgsubr
          -37.4400024414 hhcurveto
          -369.100006104 hlineto
          -37.3000030518 -51.1499938965 8.97999572754 6.33999633789 -16.5299987793 hvcurveto
          -158.649993896 10.2700042725 9.32000732422 vlineto
          56.9900054932 33.0700073242 36.1499938965 58.4299926758 0.839996337891 vhcurveto
          115.520004272 -218.130004883 -130.100006104 -39.1100006104 130.100006104 -240.63999939 hlineto
          -30.1699981689 -0.860000610352 -24.1499938965 -71 callsubr
          hhcurveto
          -10.6000061035 -10 276.330001831 10 -10.6000061035 hlineto
          -29.8699951172 -24.5899963379 22.4799957275 29.7200012207 -0.699996948242 hvcurveto
          241.550003052 134.580001831 39.1100006104 -134.580001831 218.13999939 115.479995728 vlineto
          58.4299926758 -0.839996337891 21 callsubr
          -39 callsubr
          endchar
        </CharString>
        <CharString name="tcaron">
          -43 308.050003052 668.440002441 rmoveto
          138.410003662 153.160003662 22 callgsubr
          8 -136.759994507 -64.9900054932 -146.850006104 65.0800018311 22 callgsubr
          -8 147.449996948 -153.259994507 rlineto
          292.520004272 -52.1499938965 rmoveto
          -38 callgsubr
          -37.4400024414 hhcurveto
          -369.100006104 hlineto
          -37.3000030518 -78 callgsubr
          33.4900054932 -39 callsubr
          endchar
        </CharString>
        <CharString name="tcedilla">
          -42 115.13999939 600.970001221 rmoveto
          -37.3099975586 -51.1499938965 8.97999572754 6.33999633789 -16.5299987793 hvcurveto
          -158.649993896 10.2700042725 9.32000732422 vlineto
          56.9900054932 33.0700073242 36.1499938965 58.4299926758 0.839996337891 vhcurveto
          115.520004272 -497.880004883 hlineto
          -30.1699981689 -0.860000610352 -24.1399993896 -71 callsubr
          hhcurveto
          -10.6000061035 -10 109.399993896 hlineto
          -47.3600006104 -61 -1 callsubr
          -53 -66 callgsubr
          68 10 callsubr
          40.8999938965 47 rcurveline
          119 10 -10.6000061035 hlineto
          -29.8699951172 -24.5899963379 22.4799957275 29.7200012207 -0.699996948242 hvcurveto
          498.800003052 115.479995728 vlineto
          58.4299926758 -0.839996337891 21 callsubr
          -36.1499938965 -0.399993896484 -56.9900054932 rrcurveto
          -9.30999755859 10.25 158.649993896 vlineto
          -38 callgsubr
          -37.4400024414 hhcurveto
          endchar
        </CharString>
        <CharString name="thorn">
          -70 250.949996948 478.800003052 rmoveto
          59.5399932861 vlineto
          29.4700012207 1.08999633789 23.5500030518 22.2299957275 29.7799987793 hhcurveto
          11.5700073242 hlineto
          -46 callgsubr
          10 rlineto
          -273.63999939 hlineto
          -46 callgsubr
          -10 rlineto
          11.5700073242 hlineto
          30.0200042725 23.6900024414 -22.5899963379 -29.8200073242 0.740005493164 hvcurveto
          -474.660003662 vlineto
          -29.8500061035 -0.699996948242 -23.6999969482 -23.1600036621 -30.0399932861 hhcurveto
          -11.5700073242 -6 callgsubr
          -10 rlineto
          273.669998169 -6 callgsubr
          10 rlineto
          -11.5700073242 hlineto
          -30.0700073242 -23.7100067139 23.1999969482 29.8999938965 -0.660003662109 hvcurveto
          376.529998779 46.6100006104 vlineto
          74.5700073242 44.5800018311 -45.8999938965 -73.5 1.7799987793 hvcurveto
          0.369995117188 -15.3000030518 -1.63000488281 -21.2299957275 -4.2799987793 -16.3899993896 rrcurveto
          -31.3399963379 -114.449996948 -99.5700073242 12.5500030518 0 vvcurveto
          0.110000610352 -8.64999389648 131.429992676 -87.1100006104 159.759994507 83.5299987793 -6.10000610352 158.839996338 rlinecurve
          94.1399993896 -3.22999572754 -68.3600006104 72.6600036621 -159.520004272 hhcurveto
          endchar
        </CharString>
        <CharString name="three">
          -78 83.8500061035 499.199996948 rmoveto
          10 hlineto
          -3.83000183105 107.160003662 37.6799926758 59.25 81.0800018311 4.35000610352 69.5299987793 3.53999328613 47.5399932861 -40.3899993896 5.42999267578 -68.1100006104 7.82000732422 -101.710006714 -87.8600006104 -71.1100006104 -91.0399932861 2.19000244141 -1.82000732422 -10 rcurveline
          99 -0.970001220703 93.8899993896 -47.75 -51 callsubr
          -118.619995117 -31 callgsubr
          -145.059997559 -140.039993286 -97.9600067139 -162.039993286 4 -2 -10 rcurveline
          213.13999939 -74 250.929992676 108.320007324 0.360000610352 204.160003662 -0.309997558594 120.36000061 -85.6699981689 54.9700012207 -76.4199981689 13.8200073242 rrcurveto
          67.3300018311 4.67999267578 69.6399993896 59.7400054932 88.9700012207 vvcurveto
          100.36000061 -87.5399932861 64.9600067139 -144.070007324 -2.36000061035 vhcurveto
          -96.6100006104 -1.57000732422 -72.3200073242 -29.7799987793 -43.4499969482 -39.6799926758 rrcurveto
          endchar
        </CharString>
        <CharString name="threequarters">
          148 648.669998169 -49 callgsubr
          -111.029998779 576.130004883 -76 callgsubr
          721.86000061 -568.63999939 -25 callgsubr
          -5.86999511719 -42 callsubr
          -18.6000061035 -28 callsubr
        </CharString>
        <CharString name="threesuperior">
          -293 56.4900054932 583.669998169 -76 callgsubr
          endchar
        </CharString>
        <CharString name="tilde">
          -41 452.179992676 790.660003662 -87 callgsubr
          7.74000549316 19 rrcurveto
          endchar
        </CharString>
        <CharString name="trademark">
          -155 192.539993286 651.190002441 rmoveto
          2.92999267578 54.4799957275 hlineto
          -5.30999755859 -2.08000183105 -16.3200073242 -2.94999694824 -12.0599975586 -0.0399932861328 rrcurveto
          -118.070007324 hlineto
          -12.0700073242 0.0399932861328 -16.3399963379 2.94999694824 -5.30999755859 2.08000183105 rrcurveto
          -54.4799957275 2.71000671387 3.07000732422 vlineto
          18.8800048828 11.6999969482 11.9900054932 18.9900054932 0.369995117188 vhcurveto
          33.4900054932 -163.75 hlineto
          -9.91000366211 -0.369995117188 -7.75 -7.91999816895 -9.69000244141 hhcurveto
          -3.41999816895 0.220001220703 rlineto
          -2.92999267578 94.1900024414 2.92999267578 vlineto
          -3.41999816895 -0.220001220703 rlineto
          -9.69999694824 -7.97999572754 7.94000244141 9.92999267578 -0.130004882812 hvcurveto
          163.710006714 21 callsubr
          vlineto
          18.9900054932 -0.369995117188 11.6999969482 -11.9900054932 -0.220001220703 -18.8800048828 rrcurveto
          230.899993896 49.9700012207 rmoveto
          -2.69999694824 hlineto
          -83.5 -135.919998169 -92.3099975586 135.949996948 rlineto
          -2.5 hlineto
          -24.3600006104 -184.460006714 rlineto
          -10.0399932861 -2.36999511719 -8.53999328613 -5.83000183105 -9.75 hhcurveto
          -4.38999938965 0.220001220703 rlineto
          -2.92999267578 62.9900054932 2.66000366211 -4.4700012207 vlineto
          -5.7799987793 -4.96000671387 5.61999511719 5.83999633789 -0.320007324219 hvcurveto
          9.41000366211 88.6900024414 72.3399963379 -108.830001831 rlineto
          2.72999572754 hlineto
          14.1199951172 11.1499938965 17.6699981689 0 vhcurveto
          49.2799987793 79.8500061035 13.4799957275 -90.9700012207 rlineto
          -6.0299987793 -5.08999633789 -5.96000671387 -5.94999694824 vhcurveto
          -4.4700012207 -2.66000366211 93.4600067139 2.92999267578 hlineto
          -4.50999450684 -0.220001220703 rlineto
          -9.72999572754 -8.19000244141 6.19000244141 10.6100006104 -2.55999755859 hvcurveto
          endchar
        </CharString>
        <CharString name="two">
          -25 105.080001831 486.929992676 rmoveto
          -1.13000488281 116.899993896 50.3600006104 63.0800018311 87.5200042725 4.94000244141 rrcurveto
          83.0200042725 4.30999755859 51.2400054932 -58.4400024414 -94.8200073242 vvcurveto
          -161.279998779 -198.729995728 -201.850006104 -132.070007324 -149.770004272 vhcurveto
          -10 477.289993286 vlineto
          59.8600006104 226.130004883 rlineto
          -10 hlineto
          -68.9700012207 -35.1799926758 -34.6499938965 -27.9499969482 -59.4299926758 hhcurveto
          -205.850006104 hlineto
          98.9499969482 78.4900054932 199.820007324 139.080001831 164.949996948 vvcurveto
          126.559997559 -109.190002441 75.7100067139 -150.460006714 -83.9700012207 -94.4499969482 -27.1199951172 -46.0800018311 -50.6499938965 vhcurveto
          47.6999969482 -153.880004883 rlineto
          endchar
        </CharString>
        <CharString name="twosuperior">
          -240 74.0599975586 573.300003052 -36 callgsubr
          -81.0800018311 -60 callgsubr
        </CharString>
        <CharString name="u">
          63 499.75 600.039993286 rmoveto
          -10 13.7200012207 -105 callgsubr
        </CharString>
        <CharString name="uacute">
          63 368.820007324 662.169998169 -98 callsubr
          137.929992676 -69.1199951172 rmoveto
          -10 13.7200012207 -105 callgsubr
        </CharString>
        <CharString name="ucircumflex">
          63 372.729995728 815.25 rmoveto
          11.1499938965 -89 callsubr
          271.240005493 -62.0500030518 rmoveto
          -10 13.7200012207 -105 callgsubr
        </CharString>
        <CharString name="udieresis">
          63 260.289993286 658.869995117 -106 callgsubr
          6.02000427246 -58.8300018311 rmoveto
          -10 13.7200012207 -105 callgsubr
        </CharString>
        <CharString name="ugrave">
          63 398.259994507 670.940002441 -83 callsubr
          -35.5200042725 -91 callgsubr
          108.490005493 -63.8999938965 rmoveto
          -10 13.7200012207 -105 callgsubr
        </CharString>
        <CharString name="uhungarumlaut">
          63 281.149993896 665.720001221 -58 callgsubr
          -22.9499969482 -46 callsubr
          -58.3200073242 -29 callgsubr
          51.6499938965 -70.7100067139 rmoveto
          -10 13.7200012207 -105 callgsubr
        </CharString>
</ttFont>
